<svg version="1.2" xmlns="http://www.w3.org/2000/svg" viewBox="0 0 620 71" width="620" height="71">
	<title>image</title>
	<style>
		.s0 { fill: #213188 } 
	</style>
	<path id="Path 0" class="s0" d="m227.5 0l-203 0.5c-7.7 3.9-12 7.1-14.7 9.8-2.6 2.6-5.8 6.8-7 9.4-1.7 3.6-2.3 7.2-2.6 14.3-0.4 8.9-0.3 9.9 2.6 16 1.6 3.6 4.9 8.5 7.3 10.8 2.4 2.4 5.5 5 6.9 5.7 1.4 0.7 4.6 2 7.2 2.9 4.4 1.5 29.8 1.6 284.1 1.7 153.5 0.1 281-0.2 283.2-0.6 2.2-0.4 5.8-1.6 8-2.6 2.2-1 6-3.6 8.5-5.7 2.5-2.1 6.1-6.8 8-10.3 3.3-6.1 3.5-6.8 3.5-16.4 0-8.9-0.4-10.6-2.8-15.5-1.5-3-3.9-6.9-5.5-8.5-1.5-1.7-4.7-4.4-7.2-6.1-2.5-1.7-5.6-3.5-7-4-1.4-0.5-39.4-1.1-84.5-1.4-45.1-0.3-173.3-0.3-285 0z"/>
</svg>