<svg version="1.2" xmlns="http://www.w3.org/2000/svg" viewBox="0 0 689 486" width="689" height="486">
	<title>Screen Shot 2023-10-19 at 6</title>
	<style>
		.s0 { fill: #f8faf9 } 
		.s1 { fill: #626fb7 } 
		.s2 { fill: #dbd3c9 } 
		.s3 { fill: #ccc3ba } 
		.s4 { fill: #40466c } 
		.s5 { fill: #2e4f72 } 
		.s6 { fill: #223487 } 
	</style>
	<g id="Background">
		<path id="Path 0" class="s0" d="m123.6 105.3c-0.2 0.6-1.8 11.8-3.5 24.7-1.7 12.9-3.5 27.8-4.1 33-0.6 5.2-2.6 21.7-4.5 36.5-1.9 14.9-7.8 61.4-13 103.5-5.3 42.1-10.7 85.1-12 95.5-1.2 10.4-2.1 19.3-1.9 19.8 0.2 0.4 102.1 0.7 226.4 0.7 124.3 0 226-0.3 226-0.7 0-0.5 0.7-5.1 1.4-10.3 0.8-5.2 1.8-12.4 2.2-16 0.4-3.6 0.8-8.1 0.9-10 0-1.9 0.4-4.1 0.8-4.7 0.4-0.7 0.8-4.8 1-9 0.2-4.3 0.6-8.4 1-9 0.4-0.7 0.8-4.6 0.8-8.5 0.1-4 0.5-7.7 1-8.3 0.5-0.6 1-3.8 1.1-7.2 0.2-3.5 0.5-6.3 0.8-6.3 0.3 0 0.9-3.2 1.4-7.2 0.5-4 1-8.9 1.2-10.8 0.2-1.9 0.7-6.9 1.3-11 0.5-4.1 0.7-8.2 0.4-9-0.3-0.8 0-2.6 0.6-4 0.6-1.4 1.3-5.2 1.5-8.5 0.1-3.3 0.5-6.7 0.9-7.5 0.3-0.8 0.8-3.7 1.2-6.5 0.3-2.7 1.2-9.9 2-16 0.8-6.1 1.1-12 0.7-13.3-0.4-1.5-0.2-2.6 0.5-3 0.8-0.5 1.4-3.6 1.5-8.7 0.1-4.4 0.6-8.2 1-8.5 0.4-0.3 1-3.4 1.2-7 0.2-3.6 0.6-7.2 0.9-8 0.3-0.8 1.7-11.2 3.2-23 1.4-11.8 2.8-24 3-27 0.3-3 0.7-6.6 1-8 0.3-1.4 1.6-10.5 2.8-20.2l2.2-17.8h-109.5c0.9 8.9 1.4 12.3 1.6 13.3 0.2 0.9 1.1 1.7 1.9 1.7 0.8 0 3 0.8 4.7 1.7 1.8 0.9 4.1 2.6 5.1 3.7 0.9 1.2 2.5 3.4 3.4 5.1 0.9 1.7 1.6 5.3 1.7 8.5 0 4.1-0.6 6.6-2.4 9.5-1.3 2.2-3.5 5.3-4.8 7-1.4 1.7-2.8 3-3.1 2.9-0.3 0-2.2 0.6-4.1 1.4-1.9 0.8-5.5 1.5-8 1.6-2.5 0-6.5-0.8-9-1.9-2.8-1.1-5.7-3.4-7.6-5.9-3.1-3.9-3.2-4.4-2.9-12.1 0.2-4.4 0.5-8.6 0.7-9.2 0.2-0.7 0.9-1.3 1.5-1.3 0.7 0 1.3-0.3 1.3-0.7 0-0.5-0.7-4.6-1.5-9.3-0.8-4.7-1.5-10.2-1.5-12.2v-3.8h-240.5c1.2 11.2 1.7 14.6 1.8 14.7 0.1 0.1 1.3 0.3 2.7 0.6 1.4 0.2 3.4 0.8 4.5 1.2 1.1 0.5 2.5 1.4 3 1.9 0.6 0.6 2.2 2.9 3.6 5.1 2.2 3.3 2.6 5.2 2.6 10.5 0 4.5-0.6 7.4-1.8 9.5-1 1.7-3.4 4.8-5.3 7-2 2.2-3.6 3.7-3.6 3.3 0-0.5-1-0.3-2.3 0.3-1.2 0.7-4.3 1.7-6.9 2.3-2.6 0.6-4.8 0.8-4.8 0.4 0-0.5-1.6-1-3.5-1.3-1.9-0.3-3.7-0.5-4-0.5-0.3 0-2.3-1.9-4.6-4.2-2.4-2.6-4.5-5.9-5.1-8.3-0.5-2.2-0.7-5.8-0.4-8 0.3-2.2 0.5-4.3 0.6-4.7 0-0.5 0.9-1.7 2-2.8 1.9-1.9 1.9-2.3 0.5-8.2-0.8-3.5-1.5-8.1-1.5-10.3 0-2.2-0.2-5-0.5-6.2l-0.5-2.3c-49.6 0-56.1 0.3-56.4 1.3z"/>
		<path id="Path 1" fill-rule="evenodd" class="s1" d="m611.8 78.2c0.6-0.1 3.1 0.3 5.5 0.8 2.3 0.6 4.9 1.8 5.8 2.8 0.9 0.9 2 2.8 2.5 4.2 0.5 1.5 0.4 2.2-0.2 1.8-0.5-0.3-1.4 5-2.2 13-0.7 7.6-1.7 17.3-2.2 21.7-0.5 4.4-1.7 14.5-2.5 22.5-0.8 8-2.6 26.2-4 40.5-1.4 14.3-3.2 31.6-4 38.5-0.8 6.9-2.4 22.2-3.5 34-1.1 11.8-2.4 25.8-3 31-0.5 5.2-1.6 15.1-2.4 22-0.8 6.9-2.4 22.9-3.6 35.5-1.1 12.6-3.2 33.4-4.5 46-1.4 12.6-3.3 31.3-4.3 41.5-1.6 16.6-2 18.8-6.7 24.9h-261.7c-207.5 0.1-262.3-0.2-264.3-1.2-1.4-0.6-2.9-2.1-3.2-3.2-0.4-1.1-0.6-4.9-0.4-8.5 0.1-3.6 1.5-16.9 3.1-29.5 1.6-12.6 3.8-31.1 5-41 1.1-9.9 3.2-27.2 4.6-38.5 1.3-11.3 4.4-37.1 6.9-57.5 2.4-20.4 5.8-48.7 7.5-63 1.7-14.3 4.4-36.8 6-50 1.6-13.2 4.1-34.1 5.5-46.5 1.4-12.4 3-25.2 3.5-28.5 0.6-3.3 1.7-7 2.5-8.3 0.8-1.2 2.6-2.6 4-3.2 1.5-0.6 17.3-1 40-1 20.6 0 38.1 0.2 38.8 0.5 0.9 0.4 1 2.8 0.4 10.3-0.4 5.3-0.6 10.7-0.2 14.1l-56.9 0.6-2.2 16.5c-1.3 9.1-3.2 24.4-4.4 34-1.1 9.6-3.6 29.7-5.5 44.5-1.9 14.9-7.8 61.4-13 103.5-5.3 42.1-10.7 85.1-12 95.5-1.2 10.4-2.1 19.3-1.9 19.8 0.2 0.4 105.9 0.7 234.9 0.7 206.2 0 234.6-0.2 236-1.5 0.8-0.8 1.5-2.7 1.5-4.3 0-1.5 1.6-19.8 3.5-40.7 1.8-20.9 6.6-72.9 10.5-115.5 3.9-42.6 8.6-93.9 10.4-114 1.9-20.1 3.2-37.1 3-37.8-0.3-0.9-13-1.2-117.9-1.2l0.7-9.2c0.4-5.1 1.1-10.8 2.3-15.8h75l2.3 3c1.2 1.7 3.8 3.5 6 4.1 2 0.6 4.7 0.8 6 0.5 1.2-0.3 3.9-2.2 9.7-7.5l21-0.3c11.6-0.2 21.6-0.4 22.3-0.6zm-330.8 0.8l2.8 3c1.5 1.7 4.1 3.6 5.7 4.2 2.2 0.8 3.9 0.8 6.8 0 2-0.7 4.7-2.5 8.2-7.2h69c38 0 69.5 0.4 70.1 0.8 0.8 0.5 1 4.2-0.1 24.2h-240l0.6-11.6c0.4-8.6 0.9-11.9 2-12.5 0.8-0.5 17.9-0.9 74.9-0.9z"/>
		<path id="Path 2" class="s2" d="m40 445.1c-6.9 1-15.6 2.5-19.5 3.4-3.9 0.8-9.5 2.7-12.5 4.2-3.9 2-5.5 3.4-5.5 4.8 0 1.4 1.6 2.8 5.5 4.7 3 1.5 10 3.6 15.5 4.7 5.5 1.1 17.9 3.1 27.5 4.5 9.6 1.4 23.6 2.9 31 3.5 7.4 0.6 21.8 1.5 32 2.1 10.2 0.6 20.5 1.3 23 1.5 2.5 0.3 15.5 0.9 29 1.5 13.5 0.6 26.5 1.3 29 1.6 2.5 0.3 12.4 0.9 22 1.4 9.6 0.5 46.5 1.2 82 1.6 39.4 0.4 88.4 0.2 126-0.5 33.8-0.6 70.5-1.6 81.5-2.1 11-0.6 30.4-1.7 43-2.5 12.6-0.8 28.6-2 35.5-2.5 6.9-0.6 17.9-1.5 24.5-2.1 6.6-0.6 20.8-2.3 31.5-3.9 10.7-1.6 23.1-3.6 27.5-4.6 4.4-0.9 10.4-2.8 13.3-4.3 3.7-1.8 5.2-3.2 5.2-4.6 0-1.1-1.2-2.7-2.7-3.6-1.6-0.9-5.6-2.6-9.1-3.8-3.4-1.1-8.9-2.2-12.2-2.4l-6-0.2c0 5.4-0.9 7.4-2.5 9l-2.4 2.5c-531.8 0-593.6-0.3-595.6-1.3-1.4-0.6-2.9-2.3-3.4-3.7-0.4-1.4-0.6-4.4-0.4-6.8 0.2-2.3 0.3-4.2 0.1-4.1-0.2 0-5.9 0.9-12.8 2z"/>
		<path id="Path 3" class="s3" d="m576.5 105.3c-0.2 0.6-1.3 8.9-2.5 18.2-1.2 9.3-3.4 27.6-5 40.5-1.6 12.9-4.7 38.1-7 56-2.2 17.9-4.9 39-6 47-1.1 8-3.1 24.6-4.5 37-1.4 12.4-3.2 26.8-4 32-0.8 5.2-2.6 19.6-4 32-1.4 12.4-3.5 28.6-4.5 36-1.5 10.4-1.6 13.7-0.7 14.2 0.7 0.4 4.4 0.8 8.4 0.8 5 0 7.6-0.4 8.7-1.5 0.9-0.8 1.6-2.7 1.6-4.2 0-1.6 1.6-19.9 3.5-40.8 1.8-20.9 6.6-72.9 10.5-115.5 3.9-42.6 8.6-93.9 10.4-114 1.9-20.1 3.2-37.1 3-37.8-0.2-0.6-2-1.2-3.9-1.2-2 0-3.7 0.6-4 1.2zm-370.4 15.7c0 1.2 1 5.4 2.4 9.3 1.4 4 2.5 8.3 2.5 9.5 0 1.3-0.6 3.5-1.4 5-0.7 1.6-3 3.6-5 4.5-2 1-4.3 1.8-5.1 1.8-0.8 0-3.2-0.8-5.2-1.8-2.8-1.3-4.2-2.9-5.9-6.7-1.2-2.8-2.4-6.5-2.8-8.3-0.3-1.7-1.2-3.5-1.8-3.9-0.7-0.3-1.9 0.3-2.5 1.3-0.7 1-1.5 3.9-1.9 6.4-0.3 2.5-0.1 6.3 0.5 8.5 0.6 2.3 2.6 5.6 4.8 7.7 2.3 2.4 5.7 4.4 8.8 5.3 3 0.9 6.4 1.3 8.5 0.9 1.9-0.4 5.7-1.8 8.3-3.3 3.1-1.6 6-4.3 7.8-7.1 1.6-2.5 3.2-6.1 3.6-8 0.3-1.9 0.3-5.3 0-7.5-0.4-2.2-1.8-5.7-3.2-7.8-1.4-2-3.5-4.3-4.7-5.1-1.3-0.8-3.5-1.8-4.9-2.1-2.2-0.6-2.6-0.4-2.8 1.4zm262.9-0.9c0 0.6 1.1 4.5 2.5 8.7 1.4 4.3 2.5 9.4 2.5 11.3 0 2-0.8 4.7-2 6.2-1.1 1.6-3.6 3.2-5.5 3.8-2.3 0.7-4.6 0.7-6.8 0-1.7-0.5-4.2-2-5.4-3.2-1.1-1.3-3.2-5.6-4.5-9.6-1.2-3.9-2.9-7.2-3.6-7.2-0.6 0-1.7 1.7-2.3 3.7-0.7 2.1-1 6.3-0.8 9.4 0.3 4.1 1.1 6.5 3.1 9.2 1.6 2 4.5 4.5 6.5 5.6 2.1 1 5.4 2.1 7.3 2.5 2.1 0.4 5.5 0 8.5-0.9 2.7-0.8 6.4-2.6 8-3.8 1.6-1.3 4.3-4.6 5.9-7.3 2.3-3.8 2.9-6.1 2.9-10.4 0-3.2-0.7-6.8-1.6-8.5-0.9-1.7-2.5-3.9-3.4-5.1-1-1.1-3.3-2.8-5.1-3.7-1.7-0.9-3.9-1.7-4.7-1.7-0.8 0-1.5 0.4-1.5 1z"/>
		<path id="Path 4" class="s4" d="m623.2 100.8c-0.7 7.5-1.7 17.3-2.2 21.7-0.5 4.4-1.7 14.5-2.5 22.5-0.8 8-2.6 26.2-4 40.5-1.4 14.3-3.2 31.6-4 38.5-0.8 6.9-2.4 22.2-3.5 34-1.1 11.8-2.4 25.8-3 31-0.5 5.2-1.6 15.1-2.4 22-0.8 6.9-2.4 22.9-3.6 35.5-1.1 12.6-3.2 33.4-4.5 46-1.4 12.6-3.4 31.6-4.5 42-1.6 16.2-2.2 19.3-3.9 21-1.1 1.1-2.1 2.3-2.1 2.8 0 0.4 15.8 0.6 35.1 0.5 35-0.3 35.1-0.3 37-2.5 1.4-1.8 1.8-3.6 1.6-7.7-0.1-3-0.5-5.2-1-5-0.4 0.2-0.9-1-1.2-2.6-0.3-1.6-0.1-3.9 0.5-5 0.5-1.1 1-2.7 1-3.5 0-0.8-0.6-1.4-1.3-1.2-0.7 0.1-1.2-0.9-1.1-2.8 0.1-1.6 0.5-4.5 1-6.4 0.7-2.7 0.6-3.2-0.6-3-1.1 0.3-1.5-0.4-1.4-2.6 0.1-1.6 0.4-4.2 0.8-5.7 0.4-2 0.2-2.7-0.6-2.5-0.7 0.1-1.4-0.9-1.6-2.3-0.2-1.4 0.2-4.5 1-6.9 1.2-3.9 1.1-4.4-0.5-5.2-1.2-0.6-1.7-2.1-1.7-4.9 0-2.2 0.6-4.3 1.2-4.6 1-0.5 0.8-0.9-0.5-1.5-1.3-0.7-1.6-1.9-1.5-5.3 0.2-2.4-0.1-4.8-0.5-5.3-0.4-0.4-0.8-2.6-0.7-4.8 0-2.2 0.5-4.6 1.2-5.4 1-1.1 1-1.3 0-0.7-0.6 0.3-1.5 0-1.8-0.6-0.3-0.7-0.2-3.4 0.3-5.9 0.4-2.6 0.5-4.5 0-4.3-0.4 0.2-0.8-1.3-0.8-3.3-0.1-2.1-0.1-4.4 0-5 0-0.7-0.5-2-1.2-2.9-0.7-1-1-2.9-0.5-5.3 0.3-2 1-4.4 1.5-5.5 0.6-1.4 0.4-1.7-0.7-1.5-1.1 0.3-1.5-0.5-1.5-3.1 0-1.9 0.4-4.7 0.8-6.2 0.5-2 0.3-2.7-0.6-2.5-0.8 0.1-1.2-1.2-1.1-4.3 0.1-2.5 0.6-5.8 1-7.4 0.7-2.3 0.6-2.7-0.6-2.5-1.1 0.3-1.6-0.6-1.8-3.1-0.2-1.9 0.3-4.5 1-5.8 0.9-1.7 1-2.5 0.2-3-0.6-0.4-1.4-2.3-1.6-4.2-0.3-1.9-0.2-4.3 0.3-5.2 0.5-1.1 0.5-2.3-0.1-3-0.5-0.7-1.1-2.9-1.3-4.8-0.2-1.9-0.6-3.9-0.9-4.5-0.4-0.6-0.7-4.4-0.8-8.5-0.1-4.1-0.3-11.4-0.4-16.1 0-4.8-0.3-8.6-0.6-8.4-0.3 0.2-0.8-1.5-1.2-3.8-0.3-2.3-0.2-5.2 0.3-6.4 0.7-1.7 0.6-2.1-0.3-1.5-0.9 0.5-1-1.2-0.5-7 0.5-6 0.4-7.6-0.5-7-0.9 0.5-1-1-0.5-6.5 0.5-5.6 0.4-7.3-0.6-7.3-0.9 0-1-1.3-0.5-5.2 0.4-3.4 0.1-6.7-0.7-9.3-1-3.1-1.1-4.4-0.2-5.8 0.9-1.4 0.9-1.9-0.1-2.5-0.9-0.5-1.2-2-0.9-4.7 0.3-2.2-0.4-14.6-1.4-27.5-1-12.9-2.6-29.8-3.4-37.5-0.8-7.7-1.8-14.3-2.2-14.7-0.4-0.4-1.4 5.5-2.1 13z"/>
		<path id="Path 5" class="s5" d="m238.5 1.9c-2.2 0.5-6 1.7-8.5 2.8-2.5 1.1-7.2 3.7-10.5 6-3.3 2.2-8.2 6.4-10.9 9.4-2.7 3-7 8.6-9.5 12.4-2.4 3.8-5.9 10.2-7.7 14-1.8 3.8-4.6 11.7-6.2 17.5-1.7 5.8-3.4 13.2-3.8 16.5-0.4 3.3-0.7 12.5-0.7 20.5 0 12.5 0.4 16 2.8 25.5 1.5 6.1 3.7 13.3 4.9 16 1.7 3.9 3.1 5.4 6.2 6.9 2.5 1.1 5 1.6 6.9 1.2 1.7-0.3 4.2-1.7 5.8-3.1 1.5-1.4 3-3.7 3.4-5.3 0.3-1.5 0.1-4.5-0.6-6.7-0.7-2.2-2.2-7.2-3.3-11-1.9-6-2.2-9.5-2.2-25.3-0.1-11.1 0.3-18.6 0.9-19 0.6-0.4 1.1-2.3 1.2-4.2 0.1-1.9 1.9-8 4-13.5 2.1-5.5 5.8-13.2 8.4-17 2.5-3.8 6.8-9.1 9.5-11.6 2.7-2.5 6.5-5.4 8.4-6.4 1.9-1 6.2-2 9.5-2.3 4.9-0.4 6.9 0 10.9 1.9 2.7 1.3 6.7 4.4 8.9 6.9 2.2 2.5 5.5 7.7 7.3 11.5 1.8 3.8 3.9 9.5 4.7 12.5 0.8 3 1.8 9.1 2.3 13.5 0.6 6.6 1.2 8.5 3.3 10.8 1.4 1.5 4 3.3 5.6 3.9 2.2 0.8 3.9 0.8 6.7 0 2.1-0.7 4.7-2.4 5.9-4 1.1-1.5 2.3-3.8 2.6-5.2 0.3-1.4 0-6.1-0.6-10.5-0.7-4.4-2.1-11.4-3.3-15.5-1.1-4.1-3.7-11.1-5.7-15.5-2.1-4.4-6-10.9-8.7-14.4-2.7-3.6-7.6-8.5-10.9-10.9-3.3-2.4-8.5-5.2-11.5-6.4-3.3-1.2-8.7-2.1-13.5-2.4-4.4-0.2-9.8 0.1-12 0.5zm261 0.7c-3.3 0.8-9.1 3.4-12.9 5.7-4 2.4-10.1 7.6-14.5 12.3-5 5.2-9.4 11.3-12.8 17.5-2.8 5.2-6.4 12.6-7.8 16.4-1.5 3.8-3.5 10.8-4.6 15.5-1.2 5.3-2.2 14.3-2.6 24-0.4 11.9-0.2 17.7 1 25 0.9 5.2 2.8 13.1 4.3 17.5 1.4 4.4 3.6 9 4.8 10.3 1.1 1.2 3.6 2.7 5.3 3.2 2.2 0.7 4.5 0.7 6.8 0 1.9-0.6 4.4-2.2 5.5-3.8 1.2-1.5 2.1-4.2 2-6.2 0-1.9-0.9-6.2-2.1-9.5-1.1-3.3-2.2-6.9-2.5-8-0.2-1.1-0.9-5.8-1.5-10.5-0.7-4.8-0.9-12.7-0.6-18 0.4-5.2 1.7-13.8 3-19 1.4-5.2 3.6-12.4 5.1-16 1.4-3.6 4.1-8.9 5.9-11.8 1.7-3 5.4-7.8 8.2-10.9 3.2-3.5 7.2-6.6 11-8.4 4.1-2 7.5-2.9 10.8-2.9 2.6 0 6.4 0.7 8.4 1.5 2.1 0.9 5.9 3.7 8.5 6.3 3.1 3 6.2 7.7 8.8 13.2 2.2 4.7 4.7 12 5.5 16.3 0.8 4.2 1.5 9.4 1.5 11.5 0 2.2 0.8 5.1 2.2 7.2 1.3 1.9 3.9 4 5.8 4.8 1.9 0.8 4.7 1.1 6.2 0.8 1.6-0.3 4.4-1.9 6.3-3.6 3.2-2.7 3.5-3.5 3.5-8.2 0-2.9-0.7-9.1-1.5-13.8-0.8-4.7-3.1-12.8-5-18-1.9-5.2-5-11.9-6.7-14.9-1.8-3-5.4-7.7-7.9-10.5-2.5-2.8-7.5-7-11-9.4-4.4-2.9-8.6-4.7-13.2-5.7-3.7-0.8-9.1-1.5-12-1.4-2.8 0-7.9 0.7-11.2 1.5z"/>
		<path id="Path 6" class="s6" d="m193.5 177c-2.2 0.3-6.4 1.9-9.4 3.5-2.9 1.7-6.6 4.6-8.1 6.5-1.6 1.9-3.6 5.3-4.5 7.5-1 2.4-1.7 6.7-1.7 10.5 0 3.6 0.6 8.3 1.3 10.6 0.8 2.2 3 5.8 4.9 8.1 1.9 2.2 5.8 5.3 8.5 6.9 3.6 1.9 6.9 2.9 11.5 3.2 4.4 0.3 8.1 0 11.5-1.1 2.7-0.9 7-3.3 9.4-5.4 2.4-2.1 5.6-5.8 7-8.3 2.3-3.9 2.6-5.6 2.6-13.5 0-7.2-0.4-9.8-2.1-13-1.2-2.2-4.1-5.8-6.5-8.1-2.4-2.2-6.4-4.7-8.9-5.6-2.5-0.9-6.1-1.8-8-2.1-1.9-0.2-5.3-0.1-7.5 0.3zm71.4-0.3c-1.3 0.2-4.2 0.8-6.4 1.4-2.2 0.6-6.2 2.8-8.9 4.8-3.5 2.6-5.6 5.3-7.9 10.1-2.5 5.1-3.1 7.8-3.1 12.5 0 4.2 0.8 7.6 2.5 11.5 1.4 3 4.3 7.2 6.5 9.3 2.1 2.1 6.4 4.7 9.4 5.8 4.1 1.5 7.2 2 12 1.7 3.9-0.2 8.3-1.2 11-2.5 2.5-1.2 6-3.7 7.8-5.5 1.8-1.8 4.4-5.5 5.8-8.3 1.9-3.9 2.5-6.6 2.5-12 0-5.4-0.6-8.1-2.5-12-1.4-2.7-4-6.5-5.8-8.4-1.8-1.8-5.1-4.2-7.3-5.3-2.2-1.1-6.1-2.3-8.6-2.7-2.5-0.3-5.6-0.5-7-0.4zm65.6 0.6c-2.8 0.5-7.2 2.4-10 4.2-2.8 1.9-6.2 5.3-7.7 7.7-1.5 2.4-3.2 5.6-3.8 7.3-0.6 1.7-1.2 5.7-1.2 9 0 3.7 0.7 7.7 1.9 10.5 1 2.5 3.9 6.7 6.4 9.3 2.9 3.2 6.1 5.5 9.7 6.8 2.8 1 7.6 1.9 10.5 1.9 2.8 0 7.2-0.6 9.7-1.5 2.5-0.8 6.7-3.4 9.4-5.7 2.7-2.4 5.7-5.9 6.6-7.8 1-1.9 2.2-6 2.8-9 0.5-3.3 0.6-7.2 0.1-9.7-0.5-2.4-1.9-6.2-3.1-8.5-1.2-2.4-3.5-5.6-5.2-7.2-1.7-1.5-5.3-3.9-8.1-5.1-2.7-1.3-6.8-2.5-9-2.7-2.2-0.3-6.2 0-9 0.5zm70.5-0.3c-2.5 0.4-6.3 1.7-8.5 2.8-2.2 1.1-5.6 3.8-7.6 5.9-2 2.1-4.5 5.4-5.4 7.3-1 1.9-2 6.4-2.3 10-0.3 4.7 0 8.1 1.3 12 1.3 3.9 3.3 7 6.9 10.6 3.4 3.3 6.8 5.6 10.1 6.7 2.8 1 7.4 1.7 10.3 1.7 2.8 0 7.6-0.9 10.5-1.9 3.6-1.4 6.7-3.6 10.2-7.3 2.8-3 5.6-7.2 6.2-9.3 0.7-2.2 1.3-6.7 1.3-10 0-3.3-0.5-7.6-1.1-9.5-0.7-1.9-2.5-5.3-4.1-7.5-1.6-2.2-4.6-5.2-6.6-6.6-2-1.5-5.3-3.1-7.2-3.7-1.9-0.5-4.9-1.2-6.5-1.5-1.6-0.2-5-0.1-7.5 0.3zm68.4 0.2c-2.7 0.4-6.7 1.9-8.9 3.2-2.2 1.3-5.2 3.7-6.7 5.3-1.4 1.5-3.7 4.8-4.9 7.3-1.4 2.7-2.5 6.9-2.8 10.5-0.2 4 0.2 7.8 1.4 11.5 1.3 3.9 3.3 6.9 6.9 10.6 3.4 3.3 6.8 5.6 10.1 6.7 2.7 1 7.2 1.7 10 1.7 2.7 0 6.8-0.5 9-1.1 2.2-0.6 5.8-2.4 8-3.9 2.2-1.5 5.4-4.9 7.2-7.6 2-3 3.7-7.3 4.3-10.9 0.8-4.4 0.8-7.4 0-11-0.6-2.7-2.5-7.2-4.3-9.9-1.8-2.7-5.5-6.5-8.2-8.3-3.4-2.2-6.8-3.6-10.6-4.1-3-0.4-7.7-0.4-10.5 0z"/>
		<path id="Path 7" class="s3" d="m251.4 140.3c-0.4 0.6-0.3 2 0 2.9 0.6 1.7 5.6 1.8 86.6 1.8 81 0 86-0.1 86.5-1.8 0.3-0.9-0.1-2.3-0.7-3-1.1-1-18.1-1.3-86.6-1.2-67.2 0-85.4 0.3-85.8 1.2zm-119.8 121.5c-0.9 6-1.9 11.8-2.1 13l-0.5 2.3h45c1.5-7.4 2.1-10.9 2.4-12.5 0.2-1.6 0.7-4.2 1-5.8 0.3-1.5 0.8-3.8 1.1-5.2l0.5-2.5h-45.7zm60.4-10.5c0 0.1-0.9 5.4-2 11.7-1.1 6.4-2 12.1-2 12.8 0 1 5.2 1.2 22.5 1.2h22.5c0.7-3.4 1.4-7.6 2-11.5 0.6-3.8 1.3-8.6 1.5-10.7l0.5-3.8c-34.9 0-45 0.2-45 0.3zm58.4 3.5c-0.3 2.1-1.2 7.4-2 11.7-0.8 4.4-1.4 8.6-1.4 9.3 0 1 5.2 1.2 22.5 1.2 12.4 0 22.5-0.1 22.5-0.2 0-0.1 0.9-5.2 2-11.3 1.1-6 2-11.7 2-12.7 0-1.6-1.7-1.8-22.5-1.8h-22.4zm58.7 0c-0.5 2.1-1.4 7.1-2 11-0.7 4-1.2 8.2-1.2 9.3 0 1.9 0.7 2 22.5 2 14.3 0 22.5-0.4 22.5-1 0-0.6 0.9-6.2 2-12.5 1.1-6.3 2-11.7 2-12 0-0.3-10.1-0.5-22.5-0.5h-22.4zm59.3-1.5c-0.2 1.2-1.2 6.3-2 11.2-0.9 5-1.8 9.8-2.1 10.8-0.4 1.6 1.2 1.8 22.4 1.8h22.7q1.8-9.9 3-16.6c0.8-4.3 1.5-8.3 1.5-8.7 0-0.4-10.1-0.8-22.5-0.8h-22.5zm57.7 4.5c-0.6 3.8-1.4 8.8-1.7 11.3-0.4 2.5-0.8 5.3-1.1 6.2-0.4 1.7 1.2 1.8 22.4 1.8h22.7c2.7-16.7 3.5-22.5 3.5-23.8v-2.2h-44.7zm60.4-5.5c-0.3 0.7-1.4 6.1-2.5 12-1.2 5.9-2.1 11.2-2.1 11.7 0 0.7 8.2 1 22.5 1 12.4 0 22.5-0.1 22.5-0.2 0-0.1 1.1-5.8 2.3-12.6 1.2-6.7 2-12.5 1.7-12.7-0.3-0.3-10.3-0.5-22.3-0.5-16.5 0-21.8 0.4-22.1 1.3zm-361 53.3c-0.3 1.4-1 5.8-1.6 9.7-0.5 4-1.3 8.7-1.7 10.5l-0.8 3.3 45.5-0.1c1.5-8.1 2.4-13.1 3-16.5 0.5-3.3 1-6.7 1-7.7 0-1.6-1.7-1.8-22.4-1.8h-22.4zm58 5.3c-0.9 4.2-2 10.1-2.4 13l-0.7 5.2h45.5c0.9-7.4 1.8-12.6 2.6-16.5 0.8-3.8 1.4-7.6 1.4-8.2 0-1-5.2-1.3-22.4-1.3h-22.3zm58.4 1.5c-0.7 5.1-1.5 11-1.9 13l-0.7 3.8h45c3.5-19 4.5-24.9 4.5-25.3 0-0.4-10.2-0.7-22.8-0.7h-22.8zm60.5-7.5c-0.3 0.9-1.2 5.3-2 9.7-0.8 4.4-1.7 9.5-2 11.3l-0.6 3.2h45.5c2.8-17.4 3.8-23.3 4.1-24.2 0.4-1.7-1.2-1.8-22-1.8-20.5 0-22.5 0.2-23 1.8zm57.1 9c-1 5.9-1.9 11.7-2.2 13l-0.5 2.2 45.4-0.5c2.7-15.5 3.8-21.2 4.1-22.7l0.5-2.8h-45.6zm60.3-10.5c0 0.1-0.9 5.4-2 11.8-1.1 6.3-2 12-2 12.7 0 1 5.2 1.3 22.5 1.3h22.5c0.8-3.5 1.7-8.8 2.6-14 0.8-5.3 1.6-10 1.7-10.5 0.1-0.7-8.1-1.1-22.5-1.3-12.5-0.2-22.8-0.2-22.8 0zm57.2 11.8c-1.2 6.6-2.2 12.4-2.2 13 0 0.6 8.2 1 22.5 1h22.5c3.1-17.5 4-23.3 4-24.3 0-1.6-1.7-1.7-22.3-1.7h-22.4zm-359.6 41.2c-0.2 1.2-1.1 6.5-2 11.8-0.8 5.2-1.5 10.2-1.5 11.2 0 1.6 1.7 1.8 22.5 1.8 12.3 0 22.5-0.4 22.5-0.8 0-0.4 0.9-5.9 2-12.2 1.1-6.4 1.9-12.1 2-12.8 0-1-5.2-1.2-22.5-1.2h-22.5zm58.5 3.5c-0.6 3.1-1.6 7.6-2.1 10-0.5 2.3-1 5.8-1 7.7v3.5l44.5-0.5c3.4-17 4.4-23 4.4-24.2l0.1-2.3h-44.9zm59.8-5c-0.2 0.4-0.9 4.2-1.6 8.3-0.6 4.1-1.6 9.6-2.1 12.2-0.8 3.7-0.8 4.9 0.2 5.3 0.7 0.3 10.9 0.4 22.7 0.2l21.5-0.2c3.4-18.6 4.4-24.6 4.5-25.3 0-1-5.1-1.2-22.4-1.2-12.4 0-22.6 0.3-22.8 0.7zm58.8 1c-0.3 1-1.5 6.7-2.6 12.8-1 6-2 11.3-2 11.7 0 0.4 10.1 0.8 22.5 0.8 20.6 0 22.6-0.2 23-1.8 0.3-1 0.9-4.9 1.5-8.7 0.6-3.9 1.4-9 1.8-11.3 0.4-2.4 0.5-4.5 0.2-4.8-0.3-0.3-10.2-0.5-22.2-0.5-19.8 0.1-21.7 0.2-22.2 1.8zm57 9c-1 5.9-2 12-2.4 13.5l-0.7 2.8h45.5c0.8-3.5 1.7-8.6 2.5-13.5 0.8-5 1.5-10.1 1.5-11.3v-2.2h-44.7zm60.4-10c0 0.4-0.9 5.9-2 12.2-1 6.3-1.9 12.1-1.9 12.8-0.1 0.9 5.1 1.2 22.2 1.2h22.2c2.7-13.5 3.8-19.6 4.3-22.3l0.7-4.7c-35.2 0-45.5 0.3-45.5 0.8zm58.5 3c-0.3 2-1.3 7.3-2.1 11.7-0.7 4.4-1.4 8.8-1.4 9.8 0 1.6 1.7 1.7 22.3 1.5l22.2-0.3c2.6-13.2 3.6-19.1 4-21.7l0.5-4.8h-44.9z"/>
		<path id="Path 8" class="s0" d="m200.8 204.9l-5.3 5c-3.1-3.2-4.6-3.9-5.3-3.5-0.6 0.3-1.2 1.5-1.2 2.6 0 1.1 1.1 2.7 2.5 3.5 1.4 0.8 3.3 1.5 4.2 1.5 1 0 4.2-2.3 7-5.2 2.9-2.9 5.3-5.8 5.4-6.5 0.1-0.6-0.4-1.5-0.9-1.8-0.6-0.3-3.5 1.6-6.4 4.4zm138.2-0.1l-5.5 5.2c-3.1-3.2-4.3-4.1-4.8-4-0.4 0-1 0.7-1.5 1.5-0.4 1 0.2 2.4 1.8 4 1.4 1.4 3.5 2.5 4.7 2.5 1.2 0 4.2-2.2 7.2-5.3 2.9-2.8 5.1-5.4 5.1-5.7 0-0.3-0.4-1.1-0.8-1.9-0.5-1.1-2.1-0.1-6.2 3.7zm138.9-0.4c-2.4 2.6-5.1 4.7-5.9 4.7-0.8 0-2.2-0.7-3-1.6-0.8-0.9-2.1-1.6-2.8-1.5-0.6 0-1.2 0.8-1.2 1.7 0 1 1 2.8 2.2 4 1.3 1.3 3.3 2.3 4.5 2.3 1.3 0 4.3-1.8 6.9-4.3 2.5-2.3 5-5 5.5-6 0.6-1.1 0.5-2.1-0.5-2.8-1-0.9-2.3-0.1-5.7 3.5zm-208.4 0.6c-2.2 2.2-4.4 4-5 4.1-0.6 0-1.7-0.7-2.5-1.6-0.8-0.9-2.1-1.6-2.8-1.5-0.6 0-1.2 1-1.2 2.2 0.1 1.3 1.1 3.1 2.3 4.1 1.2 1 3.1 1.8 4.2 1.7 1.1 0 4.4-2.3 7.2-5.2 2.9-2.9 5.3-5.9 5.3-6.6 0-0.6-0.8-1.2-1.8-1.2-1 0-3.6 1.8-5.7 4zm138 0c-2.2 2.2-4.4 4-5 4.1-0.6 0-1.7-0.7-2.5-1.6-0.8-0.9-2.1-1.6-2.8-1.5-0.6 0-1.2 0.8-1.2 1.7 0 1 1 2.8 2.2 4 1.3 1.3 3.3 2.3 4.5 2.3 1.4 0 4.4-1.9 7.3-4.8 2.8-2.6 5.1-5.5 5-6.5 0-1-0.8-1.7-1.8-1.7-1 0-3.6 1.8-5.7 4z"/>
	</g>
</svg>