<svg version="1.2" xmlns="http://www.w3.org/2000/svg" viewBox="0 0 145 165" width="145" height="165">
	<title>Screen Shot 2023-10-21 at 12</title>
	<style>
		.s0 { fill: #6bb192 } 
		.s1 { fill: #d5e2d8 } 
		.s2 { fill: #c4d4c7 } 
		.s3 { fill: #9bc5ac } 
		.s4 { fill: #ebf5ef } 
		.s5 { fill: #749c81 } 
		.s6 { fill: #5e6a57 } 
		.s7 { opacity: .7;fill: #e9f8f3 } 
	</style>
	<g id="Background">
		<path id="Path 0" fill-rule="evenodd" class="s0" d="m3 67h2.5c1.4 0 2.6 0.5 2.8 1.1 0.1 0.6 2.6 1.4 5.6 1.8 2.9 0.3 5.5 0.9 5.7 1.3 0.2 0.5 4.2 0.8 8.9 0.8 5 0 8.5 0.4 8.5 1 0 0.6 5.2 1 13.5 1 8.3 0 13.5-0.4 13.5-1 0-0.6 3.8-1.2 8.8-1.4 4.8-0.2 11.2-0.9 14.2-1.5 3-0.6 5.6-1.5 5.8-2.1 0.1-0.5 0.7-1 1.2-1 0.5 0 1.1 2.7 1.3 6q0.2 6.1 1.7 7.1c0.8 0.5 2.8 0.7 4.5 0.4 1.7-0.3 5.3-0.8 8-1.2 2.8-0.3 7-0.3 9.5 0.1 2.5 0.3 5.5 1.5 6.8 2.6 1.2 1.1 2.6 2 3.2 2 0.6 0 2 1.1 3.3 2.5 1.2 1.3 2.8 3.1 3.5 4 0.6 0.8 1.2 2.6 1.2 4 0 1.4 0.4 2.5 1 2.5 0.6 0 1 2 1 4.5 0 2.5-0.4 4.5-1 4.5-0.6 0-1 1.1-1 2.5 0 1.4-0.4 2.5-1 2.5-0.6 0-1.3 1-1.7 2.3-0.3 1.2-1.2 2.8-1.9 3.5-0.7 0.6-2.2 1.2-3.3 1.2-1.2 0-2.1 0.5-2.1 1 0 0.5-1.1 1.2-2.5 1.5-1.4 0.3-2.5 1-2.5 1.5 0 0.6-3.8 1-9.5 1-5.7 0-9.5-0.4-9.5-1 0-0.5-1-1-2.3-1-1.2 0.1-3 1.1-4 2.3-1.5 1.9-1.8 4.2-1.8 15.2 0 12.2-0.1 13.1-2.2 14.8-1.2 1-3.2 1.7-4.4 1.7-1.3 0-2.3 0.4-2.3 1 0 0.6-2.8 1.2-6.3 1.4-3.4 0.2-9.5 1-13.5 1.7-3.9 0.8-7.2 1.7-7.2 2.2 0 0.4-4.3 0.7-9.5 0.7-5.6 0-9.6-0.4-9.8-1-0.1-0.6-2.7-1.5-5.7-2.1-3-0.6-8.5-1.2-12.2-1.5-3.8-0.2-6.8-0.8-6.8-1.4 0-0.6-1.1-1-2.5-1-1.4 0-3.2-0.7-4-1.5-0.8-0.8-1.7-1.5-2-1.5-0.3 0-1.2-0.7-2-1.5-1.3-1.3-1.5-7.4-1.5-42.5zm106.6 26.7c-1.1 1.6-2 4.6-2 6.8 0 2.2 0.6 5.5 1.4 7.3 1.2 2.5 2.3 3.3 5 3.8 1.9 0.3 4 0.7 4.5 0.8 0.6 0.2 2.2-1.1 3.7-2.8 2.3-2.6 2.8-4 2.8-8.8 0-4.3-0.5-6.2-1.8-7.5-1-1-2.8-2.3-4-2.9-1.3-0.6-3.2-0.7-4.9-0.2-1.6 0.4-3.7 2-4.7 3.5z"/>
		<path id="Path 1" class="s1" d="m52 3.3c-1.4 0.7-3.7 2.4-5.3 3.9-1.5 1.6-2.7 3.7-2.7 4.8 0 1.1-0.5 2-1 2-0.5 0-1 2.5-1 5.5 0 3 0.5 5.5 1 5.5 0.5 0 1 1.1 1 2.5 0 1.5 1 3.3 2.5 4.5 1.4 1.1 2.5 2.3 2.5 2.8 0 0.4 1.1 1.4 2.5 2.2 1.4 0.8 2.5 1.8 2.5 2.3 0 0.4 0.7 1.4 1.5 2.2 0.8 0.8 1.5 3.1 1.5 5v3.5h-13c0-8.3-0.5-9.5-3.5-12.5-2.4-2.4-3.5-4.4-3.5-6.5 0-2.8-0.3-3-3.5-3-3.3 0-3.5 0.2-4.1 3.8-0.4 2-0.4 5.3 0 7.2 0.4 1.9 1.5 4.2 2.6 5 1 0.8 2.2 2.9 2.5 4.5l0.7 3c-11.4 1.1-15.1 1.9-15.6 2.4q-1 1.1 1.2 1.1c1.2 0 4.1-0.4 6.4-0.9 2.4-0.6 5.5-1.2 7-1.5 2.4-0.5 2.8-1.1 2.8-4.1 0-1.9-0.5-3.5-1-3.5-0.5 0-1.7-0.7-2.5-1.5-0.8-0.8-1.5-2-1.5-2.5 0-0.5-0.5-1-1-1-0.6 0-1-2-1-4.5 0-3.1 0.5-4.7 1.5-5 0.8-0.3 1.7-0.5 2-0.5 0.3 0 0.7 1.1 1 2.5 0.3 1.4 1 2.5 1.5 2.5 0.5 0 1 0.6 1 1.3 0 0.6 1.1 2.1 2.5 3.2 2.2 1.7 2.6 2.8 2.5 7.3v5.2c21.3 0 22-0.1 22-2 0-1.1 0.5-2 1-2 0.5 0 1-0.6 1-1.3 0.1-0.6 1.2-2.2 2.5-3.5 2-1.8 2.5-3.2 2.5-7.2 0-2.8-0.6-5.7-1.3-6.5-0.6-0.8-1.8-2.1-2.5-3-0.6-0.8-1.2-1.7-1.2-2 0-0.3-0.7-1.2-1.5-2-0.8-0.8-2-1.5-2.5-1.5-0.5 0-1-0.4-1-1 0-0.6-0.9-2-2-3.3-1.1-1.2-2.2-3.5-2.5-5.2-0.3-1.7-0.5-4.5-0.5-6.3 0-1.7-0.3-3.2-0.8-3.1-0.4 0-1.8 0.6-3.2 1.2zm18 49.7c2.5 0.6 6.5 1.3 9 1.6 3.4 0.4 4.1 0.3 2.7-0.5-0.9-0.6-5-1.3-9-1.6-6.4-0.4-6.7-0.3-2.7 0.5zm-58 3c0 0.5-0.7 1-1.5 1-0.8 0-2.9 0.8-4.5 1.7-1.7 1-3.1 2.1-3 2.5 0 0.4 1.3 0.8 3 0.8q3 0 5-2.5c1.1-1.4 2.9-2.5 4-2.5 1.1 0 2-0.5 2-1 0-0.6-1.1-1-2.5-1-1.4 0-2.5 0.4-2.5 1zm72 0c0 0.5 0.8 1 1.7 1 1-0.1 2.6 0.7 3.5 1.7 1 1 1.8 2.6 1.8 3.5 0 1 0.5 1.8 1 1.8 0.5 0 1.2-0.6 1.4-1.3 0.3-0.9 0.8-0.9 2.2-0.1 1.4 0.8 2 2.5 2.1 6.3 0.2 2.8 0.8 5.1 1.3 5.1 0.5 0 1-2.5 1-5.5 0-3-0.5-5.5-1-5.5-0.5 0-1-0.7-1-1.5 0-0.8-1.1-1.7-2.5-2-1.4-0.3-2.5-1-2.5-1.5 0-0.6-1.1-1-2.5-1-1.4 0-2.5-0.5-2.5-1 0-0.6-0.9-1-2-1-1.1 0-2 0.4-2 1zm21.5 19.5l-3 1.5c7-1 9.9-1.3 11-1.3 1.1 0 4 0.3 6.5 0.7 3.8 0.6 4.2 0.5 2.5-0.5-1.1-0.7-4.7-1.4-8-1.6-4-0.2-7 0.2-9 1.2zm19.5 2.5c0 0.5 0.5 1 1 1 0.5 0 1-0.5 1-1 0-0.6-0.5-1-1-1-0.5 0-1 0.4-1 1zm4.7 2.2c0.7 0.7 1.5 1.1 1.8 0.8 0.3-0.3-0.3-0.9-1.2-1.3-1.5-0.7-1.6-0.6-0.6 0.5zm4.3 2.5c0 0.4 0.6 1.5 1.5 2.3 0.9 0.8 1.6 2.1 1.5 2.7 0 0.7 0.4 1.3 1 1.3 0.6 0 1.2 1.1 1.5 2.5 0.3 1.4 0.9 2.5 1.5 2.5 0.6 0 0.9-0.3 0.7-0.8-0.1-0.4-0.9-2-1.7-3.7-0.8-1.7-2.5-4-3.7-5.3-1.1-1.3-2.2-1.9-2.3-1.5zm6.2 26.8c-0.6 1.9-1.6 3.5-2.2 3.5-0.6 0-1 0.6-1 1.2-0.1 0.7-1.2 2.3-2.5 3.5-1.4 1.3-2.3 2.6-2 3 0.3 0.5 1.7-0.5 3.2-2.2 1.6-1.7 3.7-4.9 4.8-7.2 1.1-2.4 1.8-4.5 1.5-4.8-0.3-0.2-1.1 1.1-1.8 3zm-15.5 14.7c-0.2 0.9-3.2 1.4-8.8 1.7-4.8 0.2-9.8-0.1-11.7-0.8-2.9-1-3.2-0.9-3.5 0.9-0.2 1.1-0.8 2-1.5 2-0.9 0-1.2 3.3-1.2 12 0 7.3 0.4 12 1 12 0.6 0 1-4.5 1-11.5 0-6.3 0.2-12.2 0.5-13 0.3-0.8 1.4-1.5 2.5-1.5 1.1 0 2 0.5 2 1 0 0.6 3.5 1 8.5 1 5 0 8.5-0.4 8.5-1 0-0.5 1.1-1.2 2.5-1.5 1.4-0.3 2.5-1 2.5-1.5 0-0.5-0.4-1-0.9-1-0.5 0-1.1 0.6-1.4 1.2zm-29.2 30.8c-0.3 0.6-0.4 1.2-0.3 1.4 0.2 0.2 0.9-0.2 1.6-1 0.6-0.8 0.8-1.4 0.3-1.4-0.6 0-1.2 0.4-1.6 1zm-90.5 1c0 0.6 0.4 1 1 1 0.5 0 1-0.4 1-1 0-0.6-0.5-1-1-1-0.6 0-1 0.4-1 1zm3 2c0 0.6 0.7 1.2 1.5 1.5 0.8 0.3 2.5 0.5 3.7 0.5 1.9-0.1 1.6-0.4-1.2-1.6-1.9-0.8-3.6-1.4-3.8-1.4-0.1 0-0.2 0.4-0.2 1zm80.5 0.5c-2.3 1-2.6 1.3-1 1.4 1.1 0 2.9-0.6 4-1.4 1.1-0.9 1.5-1.5 1-1.5-0.5 0.1-2.3 0.7-4 1.5zm-68.5 2.5c0 0.6 0.7 1 1.5 1 0.8 0 1.5-0.4 1.5-1 0-0.6-0.7-1-1.5-1-0.8 0-1.5 0.4-1.5 1zm58 0c0 0.6 0.7 1 1.5 1 0.8 0 1.5-0.4 1.5-1 0-0.6-0.7-1-1.5-1-0.8 0-1.5 0.4-1.5 1z"/>
		<path id="Path 2" class="s2" d="m31 30.7c-1 0.3-1.3 1.8-1.2 4.9 0.1 2.4 0.6 4.4 1.2 4.4 0.5 0 1 0.5 1 1 0 0.5 0.7 1.7 1.5 2.5 0.8 0.8 2 1.5 2.5 1.5 0.5 0 1 1.6 1 3.5 0 2.8-0.4 3.6-2.3 3.9-1.2 0.3-4 0.9-6.2 1.5-3.6 0.9-3.2 0.9 3 0.6 3.9-0.2 11-0.5 16-0.5 5 0 13.5 0.2 19 0.5 7.9 0.4 9.5 0.3 7.5-0.6-1.4-0.6-9.1-1.4-17.3-1.8l-14.7-0.6c0.1-9.2-0.3-10.3-2.5-12-1.4-1.1-2.5-2.6-2.5-3.3 0-0.6-0.5-1.2-1-1.2-0.5 0-1.2-1.1-1.3-2.5-0.2-1.4-0.8-2.5-1.3-2.4-0.5 0-1.6 0.3-2.4 0.6zm-14 25.3c0 0.5-0.9 1-2 1-1.1 0-2.9 1.1-4 2.5q-2 2.5-5 2.5c-1.7 0-3 0.5-3 1 0 0.5 1.1 1.2 2.5 1.5 1.4 0.3 2.5 1 2.5 1.5 0 0.5 1.6 1 3.5 1 3.1 0 3.5-0.3 3.5-2.5 0-1.4-0.6-2.7-1.3-2.9-0.7-0.2-0.3-1.1 1.3-2.5 1.4-1.2 3.7-2.1 5.3-2.1 1.5 0 2.7-0.5 2.7-1 0-0.5-1.4-1-3-1-1.6 0-3 0.5-3 1zm61 0c0 0.5 1.2 1 2.8 1 1.5 0 3.7 0.7 4.9 1.7 1.2 1 2.2 2.6 2.3 3.5 0 1-0.5 1.8-1 1.8-0.5 0-1 0.7-1 1.5 0 1 1.1 1.5 3.5 1.5 1.9 0 3.5-0.5 3.5-1 0-0.5 0.7-1 1.5-1 0.8 0 1.7 0.6 1.9 1.2 0.2 0.7 0.7 1 1.2 0.6 0.5-0.4 0.6-1.5 0.2-2.3-0.5-0.8-1.6-1.8-2.5-2.2-1.1-0.4-1.9-0.2-2 0.5-0.2 0.7-0.8 1.2-1.3 1.2-0.5 0-1-0.8-1-1.8 0.1-0.9-0.7-2.5-1.7-3.4-1-1-2.6-1.8-3.5-1.8-1 0-1.8-0.5-1.8-1 0-0.5-1.3-1-3-1-1.7 0-3 0.5-3 1zm-50 15c0.8 0.5 10.9 1 23.3 1 13.5 0 21.9-0.4 22.2-1 0.3-0.7-7.7-1-23.3-1-15.7 0-23.2 0.4-22.2 1zm70 5.5c0 2.2 0.4 2.5 3.5 2.5 1.9 0 3.5-0.5 3.5-1 0-0.5-1.1-1-2.5-1-1.6 0-2.5-0.6-2.5-1.5 0-0.8-0.5-1.5-1-1.5-0.5 0-1 1.1-1 2.5zm12-0.5c-1.8 0.6-0.9 0.8 3.5 0.8 4.4 0 5.3-0.2 3.5-0.8-1.4-0.4-3-0.8-3.5-0.8-0.5 0-2.1 0.4-3.5 0.8zm10 2c0 0.5 1.1 1 2.5 1 1.4 0 2.5-0.5 2.5-1 0-0.5-1.1-1-2.5-1-1.4 0-2.5 0.5-2.5 1zm7 2c0 0.5 1 1.3 2.3 1.6 1.2 0.4 3.2 1.9 4.4 3.3 1.2 1.4 2.4 2.4 2.7 2.1 0.2-0.3-0.3-1.4-1.2-2.5-1-1.1-2.9-2.8-4.5-3.8-1.5-0.9-2.9-1.7-3.2-1.7-0.3 0-0.5 0.5-0.5 1zm10 10c0 0.5 0.3 1 0.8 1 0.4 0 1.3 1.4 1.9 3.2 0.7 1.8 1.3 4.9 1.3 6.8 0 1.9-0.6 5-1.3 6.8-0.6 1.8-1.5 3.2-1.9 3.2-0.5 0-0.8 0.5-0.8 1 0 0.5 0.4 1 1 1 0.6 0 1.7-1.8 2.5-4 0.8-2.2 1.5-6.5 1.5-9.5 0-3-0.4-5.5-1-5.5-0.6 0-1.2-1.1-1.5-2.5-0.3-1.4-0.9-2.5-1.5-2.5-0.6 0-1 0.5-1 1zm-2.8 26.5c-1.2 1.4-1.9 2.5-1.5 2.5 0.5 0 1.6-0.9 2.5-2 1-1.1 1.7-2.2 1.5-2.5-0.2-0.3-1.3 0.6-2.5 2zm-7.2 5.5c0 0.5 0.4 1 1 1 0.6 0 1-0.5 1-1 0-0.5-0.4-1-1-1-0.6 0-1 0.5-1 1zm-29 3.5c0 1.4 0.5 2.5 1 2.5 0.5 0 1.2-0.9 1.5-2 0.4-1.7 0.9-1.8 3-1 1.4 0.5 5.8 1 9.8 1 3.9 0 8.2-0.2 9.4-0.5 1.3-0.3 2.3-1 2.3-1.5 0-0.6-1-0.7-2.3-0.3-1.2 0.3-5.7 0.8-10 1-4.7 0.2-7.7-0.1-7.7-0.7 0-0.5-1.6-1-3.5-1-3.1 0-3.5 0.3-3.5 2.5zm-2.4 28c-0.3 0.8-1.5 1.5-2.6 1.5-1.1 0-2 0.4-2 1 0 0.6-1.2 1.2-2.8 1.4-1.5 0.3-4.3 0.9-6.2 1.4l-3.5 1c4.7 0.1 8.2-0.6 11-1.6 2.7-0.9 5.7-2.5 6.7-3.5 1-0.9 1.8-1.9 1.8-2.2 0-0.3-0.4-0.5-0.9-0.5-0.5 0-1.2 0.7-1.5 1.5zm-92.6 0.5c0 0.6 0.4 1 1 1 0.5 0 1-0.4 1-1 0-0.6-0.5-1-1-1-0.6 0-1 0.4-1 1zm4 1.7c0 0.5 2.1 1.6 4.7 2.6 2.7 1 6.1 1.6 7.8 1.4 2.7-0.4 2.6-0.4-0.8-0.6-2 0-3.7-0.5-3.7-1.1 0-0.6-1.1-1-2.5-1-1.4 0-2.5-0.4-2.5-1 0-0.6-0.7-1-1.5-1-0.8 0-1.5 0.3-1.5 0.7zm16 5.3c0 0.6 1.1 1 2.5 1 1.4 0 2.5-0.4 2.5-1 0-0.6-1.1-1-2.5-1-1.4 0-2.5 0.4-2.5 1zm50 0c0 0.6 1.1 1 2.5 1 1.4 0 2.5-0.4 2.5-1 0-0.6-1.1-1-2.5-1-1.4 0-2.5 0.4-2.5 1z"/>
		<path id="Path 3" fill-rule="evenodd" class="s3" d="m47.9 53.7c4.7 0.2 13.4 0.6 19.4 1 5.9 0.5 10.7 1.1 10.7 1.5 0 0.5 1.2 0.8 2.8 0.8 1.5 0 3.7 0.7 4.9 1.7 1.2 1 2.2 2.6 2.3 3.5 0 1-0.4 1.8-1 1.8-0.5 0-1 0.7-1 1.5 0 1 1.1 1.5 3.5 1.5 1.9 0 3.5-0.5 3.5-1 0-0.6 0.5-1 1-1 0.6 0 1.7 0.7 2.5 1.5 1 1 1.5 3.4 1.5 12.5h3.5c1.9 0 3.5-0.5 3.5-1 0-0.6 3.2-1 7.5-1 4.3 0 7.5 0.4 7.5 1 0 0.5 1.6 1 3.5 1 1.9 0 3.5 0.4 3.5 0.9 0.1 0.5 1.1 1.3 2.3 1.7 1.2 0.4 3.4 2 5 3.6 1.5 1.5 2.7 3.5 2.7 4.3 0 0.8 0.3 1.5 0.8 1.5 0.4 0 1.3 1.4 1.9 3.2 0.7 1.8 1.3 4.9 1.3 6.8 0 1.9-0.6 5-1.3 6.8-0.6 1.8-1.5 3.2-1.9 3.2-0.5 0-0.8 0.6-0.8 1.2 0 0.7-1.6 3-3.5 5-1.9 2.1-4.2 3.8-5 3.8-0.8 0-1.5 0.5-1.5 1 0 0.5-1.5 1.3-3.2 1.6-1.8 0.3-6.8 0.8-11 1-4.8 0.2-7.8 0-7.8-0.6 0-0.6 3.5-1 8.5-1 5 0 8.5-0.4 8.5-1 0-0.5 1.1-1.2 2.5-1.5 1.4-0.3 2.5-1 2.5-1.5 0-0.5 0.9-1 2.1-1 1.1 0 2.6-0.6 3.3-1.3 0.7-0.6 1.6-2.2 1.9-3.5 0.4-1.2 1.1-2.2 1.7-2.2 0.6 0 1-1.1 1-2.5 0-1.4 0.4-2.5 1-2.5 0.6 0 1-2 1-4.5 0-2.5-0.4-4.5-1-4.5-0.6 0-1-1.1-1-2.5 0-1.4-0.6-3.2-1.2-4-0.7-0.9-2.3-2.7-3.5-4-1.3-1.4-2.7-2.5-3.3-2.5-0.6 0-2-0.9-3.2-2-1.3-1.1-4.3-2.3-6.8-2.6-2.5-0.4-6.7-0.4-9.5-0.1-2.7 0.4-6.3 0.9-8 1.2-1.7 0.3-3.7 0.1-4.5-0.4q-1.5-1-1.7-7.1c-0.2-3.3-0.7-6-1.3-6-0.5 0-1.1 0.5-1.2 1-0.2 0.6-2.8 1.5-5.8 2.1-3 0.6-7.5 1.3-10 1.6-3.3 0.5-4.3 0.3-3.7-0.5 0.5-0.9-5.2-1.2-23-1.2-15.8 0-23.3 0.4-22.3 1 1.1 0.7 0.2 1-3.2 1-2.7 0-5-0.3-5.2-0.8-0.2-0.4-2.8-1-5.7-1.3-3-0.4-5.5-1.2-5.6-1.8-0.2-0.6-1.4-1.1-2.8-1.1-1.6 0-2.5-0.6-2.5-1.5 0-1.1 0.6-1.3 2.3-0.9 1.2 0.4 2.3 1.1 2.5 1.5 0.1 0.5 1.8 0.9 3.7 0.9 3.1 0 3.5-0.3 3.5-2.5 0-1.4-0.6-2.7-1.2-2.9-0.9-0.2-0.7-1 0.8-2.5 1.2-1.3 3.3-2.1 5.2-2.1 1.8 0 3.2-0.5 3.2-1 0-0.6 2.9-1 6.8-1 3.7 0 7.3-0.4 8.1-0.8 0.8-0.4 5.3-0.6 10-0.5zm2.6 18.3c8.3 0 13.5 0.4 13.5 1 0 0.6-5.2 1-13.5 1-8.3 0-13.5-0.4-13.5-1 0-0.6 5.2-1 13.5-1zm50.3 49c1.2 0 2.2 0.4 2.2 1 0 0.5-1.1 1-5 1v14c0 11.9-0.3 14.3-1.7 16-1 1.1-2.6 2-3.5 2-1 0-1.8 0.4-1.8 1 0 0.6-1.2 1.2-2.7 1.5-1.6 0.2-5.6 1-9.1 1.7-3.4 0.7-6.2 1.6-6.2 2 0 0.5-3.1 0.8-7 0.8-3.8 0-7-0.3-7-0.8 0-0.4 3.3-1.3 7.2-2.1 4-0.7 10.1-1.5 13.6-1.7 3.4-0.2 6.2-0.8 6.2-1.4 0-0.6 1-1 2.3-1 1.2 0 3.2-0.7 4.4-1.7 2.1-1.7 2.2-2.6 2.2-14.8 0.1-10.9 0.4-13.4 1.8-15.2 1-1.3 2.8-2.3 4.1-2.3zm-96.8 29c0.6 0 1 0.4 1 1 0 0.6 0.5 1 1 1 0.6 0 1.7 0.7 2.5 1.5 0.8 0.8 2.6 1.5 4 1.5 1.4 0 2.5 0.4 2.5 1 0 0.6 2.4 1 5.3 1 2.8 0 6.8 0.5 8.7 1 1.9 0.5 5.2 1.2 7.3 1.5 2 0.3 3.7 0.9 3.7 1.5 0 0.6-2.7 1-6 1-3.3 0-6-0.4-6-1 0-0.6-2.9-1.2-6.5-1.5-3.6-0.3-6.5-0.9-6.5-1.5 0-0.6-1.1-1-2.5-1-1.4 0-2.5-0.4-2.5-1 0-0.6-0.9-1-2-1-1.1 0-2.7-0.7-3.5-1.5-0.8-0.8-1.5-1.9-1.5-2.5 0-0.6 0.5-1 1-1z"/>
		<path id="Path 4" fill-rule="evenodd" class="s4" d="m58.8 1l-0.2 6.9c-0.1 6.7 0 7 3.4 10.3 1.9 1.8 4.8 5 6.5 7.1 1.7 2.1 2.6 4.1 2.1 4.5-0.5 0.4-1.1 0-1.5-0.8-0.3-0.8-1.1-2.1-1.8-2.8-0.7-0.6-1.3-1.4-1.3-1.7 0-0.3-0.7-1.2-1.5-2-0.8-0.8-1.9-1.5-2.5-1.5-0.5 0-1-0.4-1-1 0-0.6-0.9-2-2-3.3-1.1-1.2-2.2-3.5-2.5-5.2-0.3-1.7-0.5-4.5-0.5-6.3 0-1.7-0.2-3.2-0.5-3.2-0.3 0-1.7 0.6-3.2 1.2-1.6 0.7-3.8 2.4-5 3.8-1.2 1.4-2.6 2.1-3 1.7-0.4-0.4 0.6-1.9 2.2-3.3 1.7-1.3 3.6-2.4 4.3-2.4 0.6 0 1.2-0.5 1.2-1 0-0.6 1.5-1 6.8-1zm-15.1 10.5c0.2 1.1 0.2 2.2-0.1 2.5-0.4 0.3-0.9 0.2-1.3-0.2-0.5-0.4-0.4-1.6 0.1-2.5 0.8-1.7 0.9-1.6 1.3 0.2zm-0.7 13.5c0.6 0 1 0.9 1 2 0 1.1-0.4 1.8-1 1.5-0.5-0.3-1-1.2-1-2 0-0.8 0.5-1.5 1-1.5zm-8.2 1.2c2 0.2 2.8 1.2 3.9 4.5 0.7 2.4 1.8 4.3 2.3 4.3 0.5 0 1 0.5 1 1 0 0.5 0.9 2 2 3.3 1.1 1.2 2.2 3.7 2.5 5.5 0.5 3 0.7 3.2 4.3 3 3.5-0.3 3.7-0.5 3.5-3.5-0.2-1.8 0.2-3.3 0.7-3.3 0.5 0 1.2 0.7 1.5 1.5 0.3 0.8 0.5 2.9 0.5 7.5h-13v-4.5c0-3.8-0.5-5-3.5-8-2.4-2.4-3.5-4.4-3.5-6.5 0-2.7-0.3-3-3-3-1.8 0-2.8-0.4-2.4-1.1 0.4-0.5 1.8-0.9 3.2-0.7zm-5.3 1.8c0 0 0 3.2 0 7.2 0 4.9 0.4 7.2 1.3 7.5 0.6 0.1 1.2 0.8 1.2 1.3 0 0.5-0.3 1-0.7 1-0.5 0-1.6-1.3-2.5-3-1-1.6-1.8-4.6-1.8-6.5 0-1.9 0.5-4.4 1.2-5.5 0.7-1.1 1.2-2 1.3-2zm17.1 3.7c1.3 1 2.3 2.3 2.3 2.8 0 0.5 1.2 1.7 2.6 2.5 1.4 0.8 2.5 1.8 2.5 2.3 0 0.4-0.5 0.7-1 0.7-0.5 0-2.8-1.7-5-3.8-2.2-2-3.9-4.3-3.9-5 0.1-0.9 0.7-0.8 2.5 0.5zm23.4 10.3c0.4 0 0.3 0.9-0.2 2-0.4 1.1-0.6 2.8-0.3 3.7 0.3 1.4 2.4 2.1 9.2 3.1 4.9 0.7 10.1 1.9 11.8 2.7 1.7 0.9 3.6 1.5 4.3 1.5 0.6 0 2.1 1.2 3.2 2.7 1.2 1.6 2.1 3.4 2 4 0 0.7-0.5 1.3-1 1.3-0.5 0-1-0.7-1-1.5 0-0.8-1.1-1.7-2.5-2-1.4-0.3-2.5-1-2.5-1.5 0-0.5-1.1-1-2.5-1-1.4 0-2.5-0.5-2.5-1 0-0.5-1.2-1.2-2.7-1.4-1.6-0.2-4.6-0.9-6.8-1.5-2.2-0.6-6.4-1.1-9.2-1.1-4.6 0-5.3-0.3-5.3-2 0-1.1 0.5-2 1-2 0.5 0 1-0.5 1-1 0-0.5 0.8-1.9 1.7-3 0.9-1.1 2-2 2.3-2zm-36.8 3c0.6 0 1.3 1 1.4 2.2 0.2 1.3 0.4 2.8 0.4 3.3 0 0.5-3.2 1.3-7.2 1.7-4 0.4-7.7 1.2-8.3 1.7-0.5 0.6-2.4 1.1-4.2 1.1-1.8 0-3.3 0.5-3.3 1 0 0.5-0.8 1-1.8 1-0.9 0-2.7 0.7-4 1.5-1.2 0.8-2.5 1.3-3 0.9-0.4-0.3-0.3-1.2 0.3-2.1 0.5-0.8 3.3-2.4 6-3.4 2.8-1 8.9-2.3 13.8-2.8 7.3-0.9 8.7-1.4 8.6-2.9-0.1-0.9-0.1-2 0-2.5 0-0.4 0.6-0.7 1.3-0.7zm-30.7 16.5l0.2 46.3c0.3 39.5 0.5 46.4 1.8 47.7 0.8 0.8 1.7 1.5 2 1.5 0.3 0 1.2 0.7 2 1.5 0.8 0.8 1.5 1.7 1.5 2 0 0.3-1 0-2.3-0.7-1.2-0.6-3-2.1-4-3.2-1.6-2-1.7-5.2-1.5-48.6zm97.9 2l0.7 10h10.8c8.5 0 11.6 0.4 15.2 2 2.4 1.1 5.3 2.8 6.4 3.8 1.1 0.9 2.3 1.7 2.5 1.7 0.3 0 1.8 2 3.3 4.5 1.5 2.5 2.6 5.1 2.4 5.8-0.2 0.6-1-0.1-1.8-1.8-0.7-1.7-2.4-4-3.6-5.3-1.3-1.2-2.7-2.2-3.3-2.2-0.5 0-1-0.5-1-1 0-0.5-1.1-1.2-2.5-1.5-1.3-0.3-2.5-0.8-2.4-1.2 0-0.5-2.4-1.6-5.3-2.6-2.9-0.9-7-1.7-9-1.7-2.1 0-5.5 0.7-7.5 1.5-3 1.2-3.9 1.3-4.5 0.3-0.4-0.7-0.7-3.8-0.6-6.8zm41.5 46.5c0.2 0.8-0.4 3-1.5 4.8-1 1.8-2.2 3.2-2.6 3.2-0.4 0-0.7 0.7-0.7 1.5 0 0.8-0.7 1.5-1.5 1.5-0.9 0-2.8 1-4.3 2.3-1.5 1.2-3.8 2.8-5 3.5-1.2 0.6-2.7 1.2-3.2 1.2-0.6 0-1-0.5-1-1 0-0.5 1.1-1.2 2.5-1.5 1.3-0.3 2.5-1 2.5-1.5 0-0.5 0.6-1 1.5-1 0.8 0 1.5-0.5 1.5-1 0-0.5 0.6-1 1.3-1 0.7 0 2.7-1.2 4.3-2.7 1.6-1.6 3.5-4.4 4.3-6.3 0.9-2.2 1.6-2.9 1.9-2zm-38.8 16c1.1 0 2 0.5 2 1 0 0.5-0.9 1-2 1-1.9 0-2 0.7-2 12.3 0 11.9 0 12.3-2.8 15.4-1.5 1.8-4.1 3.5-5.7 3.8-2.9 0.6-3 0.6-1-0.9 1.1-0.9 2.3-1.6 2.8-1.6 0.4 0 1.4-0.7 2.2-1.5 0.8-0.8 1.5-1.9 1.5-2.5 0-0.6 0.4-1 1-1 0.6 0 1-4.5 1-11.5 0-6.3 0.2-12.2 0.5-13 0.4-0.8 1.5-1.5 2.5-1.5zm9.4 2.1c1-0.1 1.7 0.2 1.5 0.5-0.3 0.3-1.1 0.3-1.9 0.1-1.1-0.4-1-0.6 0.4-0.6zm-97 31.9c2.5 0 4.6 0.4 4.6 1 0 0.6-1.8 1-4 1-2.2 0-4.3-0.4-4.6-1-0.4-0.6 1.2-1 4-1zm69.1 0c1.9 0 3.5 0.4 3.5 1 0 0.6-1.6 1-3.5 1-2 0-3.5-0.4-3.5-1 0-0.6 1.5-1 3.5-1zm-33.5 2.3c27.9 0 28.2 0 13.5 1-9.6 0.6-19.9 0.6-28.5 0-12.8-0.9-11.9-1 15-1z"/>
		<path id="Path 5" class="s0" d="m25.5 57.7c-1.1 0.3-2.4 0.9-3 1.4-0.5 0.5-1.9 0.9-3.2 0.9q-2.3 0-2.3 1.7c0 1 0.9 2.6 2 3.5 1.1 1 2.2 1.8 2.5 1.8 0.3 0 0.5-0.5 0.5-1 0-0.5-0.9-1.2-2-1.5-1.1-0.3-2-1-2-1.5 0-0.5 2-1 4.5-1 2.5 0 4.6-0.5 4.8-1 0.1-0.6 6.1-1.4 14.2-1.8 7.7-0.4 18-0.4 23 0.1 5 0.5 9.1 1.3 9.3 1.8 0.1 0.5 2.2 0.9 4.7 0.9 2.5 0 4.5 0.5 4.5 1 0 0.5-0.6 1-1.3 1-0.6 0-0.8 0.3-0.4 0.7 0.5 0.4 1.5-0.1 2.3-1.2 0.8-1.1 1.4-2.3 1.4-2.8 0-0.4-1.2-0.7-2.7-0.7-1.6 0-3.4-0.5-4.1-1.2-1-1-7.6-1.3-26-1.5-13.6-0.1-25.6 0.1-26.7 0.4z"/>
		<path id="Path 6" class="s1" d="m61 22c0 0.6 0.5 1 1 1 0.5 0 1.2 1.1 1.5 2.5 0.3 1.4 0.8 2.5 1.3 2.5 0.4 0 1.5 1.3 2.5 3 0.9 1.6 1.7 3.7 1.7 4.5 0 0.8-0.8 3.1-1.8 5-0.9 2-1.4 3.8-0.9 4 0.4 0.3 1.6-0.4 2.7-1.5 1.5-1.5 2-3.3 2-7 0-2.8-0.6-5.7-1.3-6.5-0.6-0.9-1.8-2.2-2.5-3-0.6-0.8-1.2-1.7-1.2-2 0-0.3-0.7-1.2-1.5-2-0.8-0.8-2-1.5-2.5-1.5-0.5 0-1 0.4-1 1z"/>
		<path id="Path 7" class="s2" d="m48.7 8c-0.9 1.1-1.7 2.7-1.7 3.5 0 0.8-0.5 1.7-1 2-0.6 0.3-1 3-1 6 0 3 0.4 5.7 1 6 0.5 0.3 1 1.4 1 2.5 0 1.1 0.4 2 1 2 0.5 0 1 0.4 1 1 0 0.6 0.7 1.7 1.5 2.5 0.8 0.8 1.9 1.5 2.5 1.5 0.5 0 1 0.7 1 1.5 0 0.8 0.4 1.5 1 1.5 0.5 0 1.7 0.7 2.5 1.5 0.9 0.9 1.5 3.3 1.5 6 0 3.3 0.4 4.5 1.5 4.5 0.8 0 1.5-0.3 1.5-0.8 0-0.4 0.8-1.6 1.8-2.7 1-1.1 2.5-3.7 3.5-5.8 0.9-2 1.7-4.4 1.7-5.2 0-0.8-0.8-2.9-1.8-4.5-0.9-1.7-2-3-2.5-3-0.4 0-0.7-0.7-0.7-1.5 0-0.8-1.1-2.5-2.5-3.8-1.3-1.2-3-2.7-3.7-3.4-0.7-0.7-1.9-1.9-2.6-2.8-0.6-0.8-1.2-3.5-1.2-6 0-3.7-0.3-4.5-1.8-4.5-1 0-2.6 0.9-3.5 2z"/>
		<path id="Path 8" fill-rule="evenodd" class="s3" d="m116 84c3.3 0 6 0.4 6 1 0 0.5 0.7 1 1.5 1 0.8 0 2.6 1.1 4 2.5 1.4 1.4 2.5 3.2 2.5 4 0 0.8 0.4 1.5 1 1.5 0.6 0 1 3 1 7 0 4-0.4 7-1 7-0.6 0-1.2 1.1-1.5 2.5-0.3 1.4-1.4 2.7-2.5 3-1.1 0.3-2 1-2 1.5 0 0.5-0.7 1-1.5 1-0.8 0-1.5 0.5-1.5 1 0 0.6-2.7 1-6 1-3.3 0-6-0.4-6-1 0-0.5-0.5-1-1-1-0.5 0-1.7-0.7-2.5-1.5-0.8-0.8-1.5-2-1.5-2.5 0-0.5-0.3-1-0.8-1-0.4 0.1-1.5-1.9-2.4-4.2-1-2.4-1.8-5.3-1.8-6.5 0-1.3 0.8-3.8 1.8-5.5 0.9-1.8 2-3.4 2.5-3.5 0.4-0.2 0.7-1.2 0.7-2.3q0-2 2.5-2.5c1.4-0.3 2.5-1 2.5-1.5 0-0.6 2.7-1 6-1zm-6.4 9.7c-1.1 1.6-2 4.6-2 6.8 0 2.2 0.6 5.5 1.4 7.3 1.2 2.5 2.3 3.3 5 3.8 1.9 0.3 4 0.7 4.5 0.8 0.5 0.2 2.2-1.1 3.7-2.8 2.3-2.6 2.8-4 2.8-8.8 0-4.3-0.5-6.2-1.8-7.5-1-1-2.8-2.3-4-2.9-1.3-0.6-3.2-0.7-4.9-0.2-1.6 0.4-3.7 2-4.7 3.5z"/>
		<path id="Path 9" class="s5" d="m41 59.1c-7.8 0.5-13.6 1.3-13.8 1.9-0.1 0.5-2.2 1-4.7 1-2.5 0-4.5 0.5-4.5 1 0 0.5 0.9 1.2 2 1.5 1.1 0.3 2 1 2 1.5 0 0.5 1.1 1 2.5 1 1.4 0 2.5 0.5 2.5 1 0 0.6 8.3 1 23 1 14.7 0 23-0.4 23-1 0-0.5 1.3-1 3-1 1.7 0 3-0.5 3-1 0-0.5 0.9-1.2 2-1.5 1.1-0.3 2-1 2-1.5 0-0.5-1.6-1-3.5-1-1.9 0-3.5 0.5-3.5 1 0 0.5-1.1 1.2-2.5 1.5-1.4 0.3-2.5 1-2.5 1.5 0 0.6-7.7 1-21 1-13.3 0-21-0.4-21-1 0-0.5-1-1.3-2.2-1.6-1.9-0.5-2-0.8-0.8-1.5 0.8-0.5 12-0.9 24.8-0.9 13.4 0 23.1-0.4 23-0.9-0.1-0.5-3.5-1.2-7.7-1.6-4.2-0.3-8.5-0.7-9.6-0.9-1.1-0.1-8.1 0.1-15.5 0.5z"/>
		<path id="Path 10" class="s6" d="m26 62.9c-1.2 0.7-1.1 1 0.8 1.5 1.2 0.3 2.2 1.1 2.2 1.6 0 0.6 7.7 1 21 1 13.3 0 21-0.4 21-1 0-0.5 1.1-1.2 2.5-1.5 1.4-0.3 2.5-1 2.5-1.5 0-0.6-8.7-1-24.3-1-13.3 0-24.9 0.4-25.7 0.9z"/>
		<path id="Path 11" class="s1" d="m112 88c0 0.5 1.8 1 4 1 2.2 0 4-0.5 4-1 0-0.5-1.8-1-4-1-2.2 0-4 0.5-4 1zm-5.3 4c-0.9 1.7-1.7 3.2-1.7 3.5 0 0.3 0.7-0.2 1.5-1 0.8-0.8 1.5-2 1.5-2.5 0-0.5 0.5-1 1-1 0.5 0 1-0.5 1-1 0-0.5-0.4-1-0.8-1-0.5 0-1.6 1.3-2.5 3zm16.3-2c0 0.5 0.5 1 1 1 0.5 0 1 0.7 1 1.5 0 0.8 0.5 1.5 1 1.5 0.5 0 1-0.5 1-1 0-0.5-0.7-1.7-1.5-2.5-0.8-0.8-1.7-1.5-2-1.5-0.3 0-0.5 0.5-0.5 1zm4 11c0 2.8 0.4 5 1 5 0.6 0 1-2.3 1-5 0-2.8-0.4-5-1-5-0.6 0-1 2.3-1 5zm-24 0c0 1.7 0.5 3 1 3 0.5 0 1-1.3 1-3 0-1.7-0.5-3-1-3-0.5 0-1 1.3-1 3zm2.2 5.8c0.2 0.4 1 2 1.8 3.5 0.8 1.5 1.8 2.7 2.2 2.7 0.5 0 0.8-0.5 0.8-1 0-0.5-0.5-1-1-1-0.5 0-1.2-1.1-1.5-2.5-0.3-1.4-1-2.5-1.6-2.5-0.6 0-1 0.3-0.7 0.8zm19.8 2.7c0 0.8-0.7 1.5-1.5 1.5-0.8 0-1.6 0.5-1.8 1.1-0.1 0.6-2.5 1.1-5.7 1.2-5.2 0-5.3 0-2 0.9 2.4 0.6 4.6 0.5 7-0.3 1.9-0.7 4.1-1.8 4.7-2.6 0.7-0.7 1.3-1.8 1.3-2.3 0-0.5-0.5-1-1-1-0.5 0-1 0.7-1 1.5z"/>
		<path id="Path 12" class="s2" d="m110.5 87c-0.3 0.5-0.2 1.3 0.1 1.8 0.4 0.4 0.8 0.1 1-0.6 0.2-0.7 2.1-1.2 4.4-1.2 2.2 0 4 0.5 4 1 0 0.5 0.7 1 1.5 1 0.8 0 1.5-0.5 1.5-1 0-0.5-1-1.2-2.3-1.5-1.2-0.3-3.9-0.5-5.9-0.5-2 0-3.9 0.5-4.3 1zm-4.3 3.6c-0.7 0.8-1.2 1.9-1.2 2.4 0 0.5-0.5 1-1 1-0.5 0-1 0.9-1 2 0 1.1 0.5 2 1 2 0.5 0 1-0.8 1-1.8 0-0.9 0.7-2.7 1.5-4 0.8-1.2 1.4-2.4 1.2-2.6-0.2-0.2-0.9 0.2-1.5 1zm18.8-0.6c0 0.5 0.5 1 1 1 0.5 0 1-0.5 1-1 0-0.5-0.5-1-1-1-0.5 0-1 0.5-1 1zm2 3.8c0 1.2 0.4 2.2 1 2.2 0.6 0 1 2.3 1 5 0 2.8-0.4 5-1 5-0.6 0-1 0.7-1 1.5 0 0.8 0.4 1.5 1 1.5 0.6 0 1.3-1.7 1.6-3.8 0.4-2 0.4-5.5 0.1-7.7-0.4-2.2-1.1-4.5-1.7-5-0.7-0.7-1-0.3-1 1.3zm-24 12.2c0 1.1 0.5 2 1 2 0.5 0 1 0.5 1 1 0 0.5 0.8 1.8 1.7 2.9 1 1 2.8 2.3 4 3 1.3 0.6 3.8 1.1 5.5 1.1 1.8-0.1 4.4-0.7 5.8-1.5 1.4-0.8 2.2-1.4 1.7-1.5-0.4 0-1.9 0.5-3.5 1.1-1.9 0.7-4 0.7-7.2-0.1-3.3-0.8-5-1.9-6.3-4-0.9-1.7-1.7-3.7-1.7-4.5 0-0.8-0.5-1.5-1-1.5-0.5 0-1 0.9-1 2z"/>
		<path id="Path 13" class="s4" d="m109.3 90.5c-0.7 0.8-1.3 1.7-1.3 2 0 0.3-0.7 1.2-1.5 2-0.9 0.9-1.5 3.4-1.5 6.5 0 2.8 0.5 5 1 5 0.6 0 1.3 1 1.7 2.3 0.3 1.2 1.1 2.7 1.7 3.3 0.6 0.6 2.4 1.3 4.1 1.7 1.7 0.3 3.7 0.2 4.5-0.3 1.2-0.8 1-1-1-1-1.4 0-3.4-0.3-4.5-0.6-1.1-0.3-2.8-2.3-3.8-4.7-1.3-3-1.7-5.2-1.2-7.7 0.4-1.9 1.2-4.4 1.9-5.5 0.6-1.1 1.8-2.5 2.6-3.2 1.3-1.1 1.3-1.2 0-1.2-0.8 0-2.1 0.6-2.7 1.4zm11.7 0.8c3.4 2.2 3.5 2.5 3.8 9.2 0.2 6.6 0.1 7.1-2.5 9.3-1.6 1.2-2.4 2.5-1.9 3 0.5 0.4 1 0.1 1.2-0.5 0.2-0.7 1.1-1.3 1.9-1.3 0.8 0 1.5-0.7 1.5-1.5 0-0.8 0.5-1.5 1-1.5 0.6 0 1-3 1-7 0-4-0.4-7-1-7-0.5 0-1-0.5-1-1 0-0.5-0.7-1.7-1.5-2.5-0.8-0.8-2.5-1.5-3.7-1.5-2-0.1-1.9 0.2 1.2 2.3z"/>
		<path id="Path 14" class="s7" d="m112.4 90c-0.5 0.6-0.1 0.8 0.9 0.5 0.9-0.3 1.7-0.7 1.7-1 0-0.3-0.4-0.5-1-0.5-0.5 0-1.2 0.4-1.6 1z"/>
	</g>
</svg>