<svg version="1.2" xmlns="http://www.w3.org/2000/svg" viewBox="0 0 458 505" width="458" height="505">
	<title>image</title>
	<style>
		.s0 { fill: #b8c7d7 } 
		.s1 { fill: #c4e1d5 } 
		.s2 { fill: #afb2c7 } 
		.s3 { fill: #a0a2b8 } 
		.s4 { fill: #6b729d } 
		.s5 { fill: #989bb3 } 
		.s6 { fill: #e3e3c2 } 
		.s7 { fill: #a0cbb9 } 
		.s8 { fill: #65b290 } 
		.s9 { fill: #595246 } 
		.s10 { fill: #f9f9f9 } 
		.s11 { fill: #6ab091 } 
		.s12 { fill: #cacdd1 } 
		.s13 { fill: #eeeded } 
		.s14 { fill: #ffffff } 
		.s15 { fill: #d4e3e3 } 
		.s16 { fill: #adb2b6 } 
		.s17 { fill: #e1aa69 } 
		.s18 { fill: #e4e4e0 } 
		.s19 { fill: #e2eae9 } 
		.s20 { fill: #dadada } 
		.s21 { fill: #b5d1c7 } 
		.s22 { fill: #e8ccac } 
		.s23 { fill: #7f85ab } 
		.s24 { fill: #e57358 } 
		.s25 { fill: #a9abc0 } 
		.s26 { fill: #394279 } 
		.s27 { fill: #3e4677 } 
		.s28 { fill: #8d92b3 } 
		.s29 { fill: #4c5380 } 
		.s30 { fill: #f3f7f8 } 
		.s31 { fill: #515b99 } 
		.s32 { fill: #cbd4e0 } 
		.s33 { fill: #596293 } 
	</style>
	<g id="Background">
		<path id="Path 0" class="s0" d="m352.2 420.9c-0.1 0.6 1.5 1.2 3.6 1.4l3.7 0.2c-12.4 10.6-19.8 16.3-24.5 19.4-4.7 3.2-12.3 7.9-17 10.4-4.7 2.5-12.1 6-16.5 7.7-4.4 1.8-11.1 4.2-15 5.5-3.9 1.2-8.5 2.5-10.2 2.9-2.6 0.5-3.1 0.3-2.5-0.7 0.4-0.7 3.7-5.7 7.5-11 3.7-5.3 6.7-10.7 6.7-11.9 0-1.3-0.5-2.9-1.2-3.6-0.7-0.7-2.3-1.2-3.5-1.2-1.6 0-3.6 1.7-6.5 5.8-2.4 3.3-5.9 8.1-7.8 10.8-1.9 2.7-5.5 7.8-8 11.4-2.6 3.6-4.9 7.3-5.3 8.3-0.4 1 0 2.5 1.1 3.7 0.9 1.1 4.8 4.2 8.7 7 3.9 2.8 11.2 7.9 16.3 11.5 5 3.6 10 6.5 11 6.5 0.9 0.1 2.5-0.7 3.5-1.7 1.2-1.2 1.6-2.6 1.3-4-0.3-1.3-3.2-4.1-6.3-6.3-3.2-2.2-8.5-5.9-11.8-8.1-3.4-2.3-5.6-4.4-5-4.8 0.6-0.5 3.9-1.6 7.5-2.6 3.6-0.9 10.8-3.3 16-5.2 5.2-1.9 14.4-6.1 20.5-9.1 6.1-3.1 14.4-7.9 18.5-10.6 4.1-2.7 10.4-7.2 14-9.9 3.6-2.7 10.1-8.4 14.5-12.7 4.4-4.3 8.7-8 9.5-8.3 0.8-0.3-3-0.6-8.5-0.6-5.5-0.1-10.9-0.4-12.1-0.7-1.2-0.4-2.2-0.2-2.2 0.5z"/>
		<path id="Path 1" class="s1" d="m407 391.3c0 0.4 1.9 0.9 4.3 1.2 2.4 0.3 5.7 0.2 7.3-0.3 2.5-0.8 1.8-1-4.4-1.3-3.9-0.2-7.2-0.1-7.2 0.3z"/>
		<path id="Path 2" class="s2" d="m209 390c1.4 0.4 4.1 0.8 6 0.8h3.5c-4.4-1.4-7.1-1.8-8.8-1.7-3.1 0.1-3.1 0.1-0.7 0.9z"/>
		<path id="Path 3" class="s3" d="m147 379.4c0.3 0.2 4.6 1.2 9.5 2 4.9 0.9 9.9 1.5 11 1.5 1.1-0.1-2.1-0.9-7-2-4.9-1-10.1-1.8-11.5-1.9-1.4 0-2.3 0.1-2 0.4z"/>
		<path id="Path 4" class="s4" d="m129 375.5c0.3 0.3 3.2 1.2 6.5 2 3.3 0.8 7.1 1.5 8.5 1.5 1.4 0 2.3-0.1 2-0.4-0.3-0.3-3.9-1.2-8-2-4.1-0.9-7.9-1.6-8.5-1.6-0.6 0-0.8 0.2-0.5 0.5z"/>
		<path id="Path 5" class="s1" d="m436.2 372c0 6 0.1 6.2 1 3 0.7-2.4 0.7-4.5 0-6.5-0.9-2.6-1-2.2-1 3.5z"/>
		<path id="Path 6" class="s5" d="m118.2 356.7c0 3.2 0.2 5 0.4 4.1 0.2-1 1.2-1.8 2.1-1.8 1 0 14.2 2.3 29.3 5.1 15.1 2.7 38.3 7 51.5 9.4 13.2 2.5 30.5 5.7 38.5 7.1 9.2 1.7 15.9 2.4 18.2 2l3.8-0.6c0-13.4-0.4-16.2-1.3-16.5-0.6-0.3-2.9 0.1-5 1-2 0.8-5.8 1.5-8.5 1.5-2.6 0-11.2-0.9-19.2-2-8-1-26.2-3.5-40.5-5.5-14.3-2-34.3-4.7-44.5-6-10.2-1.4-19.9-2.7-21.7-3l-3.2-0.6z"/>
		<path id="Path 7" class="s3" d="m110.5 350.7c-0.5 0.3-0.8 1.1-0.7 1.7 0.1 0.6 1.7 2.1 3.5 3.3 1.7 1.3 3.5 2.3 4 2.3 0.4 0 0.7-1.6 0.7-3.5 0-2.8-0.4-3.6-2.3-4-1.2-0.3-2.7-0.5-3.3-0.5-0.6 0-1.4 0.3-1.9 0.7z"/>
		<path id="Path 8" class="s6" d="m357 347.5c0 1.2 1.5 1.5 7.5 1.5 6 0 7.5-0.3 7.5-1.5 0-1.2-1.5-1.5-7.5-1.5-6 0-7.5 0.3-7.5 1.5z"/>
		<path id="Path 9" class="s7" d="m344.1 346.1c-0.1 0.9 1.5 1.7 4.6 2.2 2.7 0.4 5.6 0.7 6.5 0.7 1 0 1.8-0.7 1.8-1.5 0-1-1-1.5-3.3-1.5-1.7 0-4.6-0.3-6.3-0.6-2.2-0.5-3.1-0.3-3.3 0.7z"/>
		<path id="Path 10" class="s7" d="m379.2 345.4c-5.3 0.8-7.2 1.5-7.2 2.6 0 1.2 0.8 1.4 4.7 0.7 2.7-0.4 5.8-0.7 7.1-0.7 1.4 0 2.3-0.7 2.5-2 0.2-1.1 0.3-1.9 0.3-1.8-0.1 0.1-3.4 0.6-7.4 1.2z"/>
		<path id="Path 11" fill-rule="evenodd" class="s8" d="m326.8 343c0.4 0 2.3 0.6 4.2 1.4 1.9 0.8 8 2.2 13.5 3.2 7.8 1.3 13.3 1.5 25 1.1 11.1-0.4 16.8-1.1 22-2.7 3.9-1.1 7.8-2.3 8.7-2.5 1.6-0.4 1.8 0.3 1.8 5 0 5.5 0 5.5 2.7 4.9 1.6-0.3 5.9-0.8 9.8-1.1 5.8-0.4 7.7-0.2 11 1.5 2.2 1.1 5 3.1 6.2 4.4 1.2 1.2 2.6 3.5 3.2 5 0.6 1.6 1.1 5.8 1.1 9.5-0.1 4.9-0.6 7.7-1.9 9.8-1.1 1.6-3.6 4.3-5.7 5.8-3.8 2.7-4.3 2.8-25.4 2.2v10.7c0 6-0.5 11.7-1 12.8-0.5 1.1-3.6 3-6.8 4.2-5.4 2.1-7.2 2.3-31.2 2.2-22.1 0-26.1-0.2-30-1.8-2.5-1-5.3-2.8-6.2-3.9-1.6-2-1.7-5.6-1.8-37 0-19.1 0.3-34.7 0.7-34.7zm82.9 25.3c-1.4 3.1-2.6 6-2.6 6.5-0.1 0.4 1 2 2.2 3.6 1.3 1.6 3.4 3.3 4.8 3.8 1.5 0.5 3.8 0.5 5.7-0.2 2.5-0.8 3.8-2.1 5.3-5.5 1.6-3.7 1.8-5.2 1-8-0.6-2.1-2.2-4.3-4-5.5-1.6-1.1-4-2-5.3-2-1.2 0-2.7 0.4-3.3 0.8-0.6 0.4-2.3 3.3-3.8 6.5z"/>
		<path id="Path 12" class="s1" d="m407.9 365.3c-1.5 2.5-1.9 4.3-1.6 8.2 0.4 4 1.1 5.5 3.6 7.7 2 1.8 4.2 2.8 6.4 2.8 1.7 0 4.1-0.7 5.2-1.5 1.9-1.6 1.9-1.6-0.5-0.8-1.4 0.4-3.7 0.8-5.2 0.8-1.5 0-3.8-1.1-5.2-2.5-1.5-1.4-2.9-3.3-3.1-4.3-0.3-0.9 0.6-4.2 2-7.2 1.4-3 2.5-5.7 2.5-6 0-0.3-0.5-0.5-1-0.5-0.6 0-1.9 1.5-3.1 3.2z"/>
		<path id="Path 13" class="s9" d="m348 340.8c-3 0.4-6.2 1.1-7 1.6-1.3 0.7-1.2 1 0.5 2 1.1 0.6 9.5 1.2 19 1.4 9.4 0.2 19-0.1 21.4-0.5 2.4-0.4 4.6-1.3 4.8-1.8 0.2-0.6-0.7-1.4-1.9-1.8-1.3-0.4-8.8-0.9-16.8-1.2-8-0.2-17 0-20 0.3z"/>
		<path id="Path 14" class="s10" d="m255 346.1q-7.5 7.1-14.5 10.4c-3.9 1.8-8.2 3.8-9.8 4.4-1.7 0.7-2.7 1.9-2.7 3.1 0 1.4 0.8 2.1 2.8 2.5 1.5 0.2 6.8 0.8 11.7 1.1 7.9 0.6 9.6 0.4 13.8-1.5 2.9-1.3 5.6-3.5 7.2-5.9 1.4-2 3.2-6.2 4-9.2 0.8-3 1.5-7 1.5-8.8 0-3-0.2-3.2-3.2-3.2-2.7 0.1-4.7 1.4-10.8 7.1z"/>
		<path id="Path 15" class="s11" d="m337.1 337.5c-1.9 0.8-3.3 1.9-3.3 2.5 0.1 0.5 1.3 1.7 2.7 2.5 2 1.2 2.9 1.3 4.5 0.3 1.1-0.7 1.8-1.9 1.5-2.5-0.3-0.7-0.5-2-0.5-2.8 0-0.8-0.3-1.5-0.8-1.5-0.4 0.1-2.2 0.7-4.1 1.5z"/>
		<path id="Path 16" class="s8" d="m351 334.7c-1.4 0.2-4 0.6-5.8 0.8-2.6 0.4-3.2 0.9-3 2.8 0.3 2.2 0.4 2.2 14.8 1.9 8-0.2 17.9 0.1 22 0.7 4.1 0.6 7.8 1.6 8.2 2.3 0.6 1 1.3 1 3.4-0.2 1.5-0.8 2.9-2.1 3.1-2.7 0.2-0.7-1.2-1.9-3-2.7-1.7-0.8-6.7-1.9-10.9-2.5-4.3-0.6-12-1-17.1-1-5 0.1-10.3 0.3-11.7 0.6z"/>
		<path id="Path 17" class="s6" d="m382.3 333.5c0.1 1.2 1.6 2.1 4.9 2.9 2.5 0.6 5.2 1.5 5.8 2.1 0.7 0.6 0.9 1.6 0.6 2.3-0.3 0.6-2.2 1.9-4.1 2.7-1.9 0.8-3.5 1.9-3.5 2.5 0 0.6 0.8 1 1.7 1 1-0.1 4.3-0.9 7.3-2 3-1.1 5.8-1.9 6.2-2 0.5 0 0.9 2.6 1.1 5.8 0.3 4.9 0.3 4.6 0.5-2 0.2-7.4 0.1-7.9-2.6-9.9-1.5-1.1-4.3-2.4-6.2-2.9-1.9-0.5-5.4-1.2-7.7-1.6-3.6-0.6-4.1-0.5-4 1.1z"/>
		<path id="Path 18" class="s6" d="m336 333.6c-3 0.8-6.6 2.3-8 3.3l-2.5 1.8c-0.4 65.8-0.2 75.1 0.8 76.1 0.6 0.7 1.6 1.3 2.2 1.3 0.6 0 0.2-0.8-0.7-1.8-1.6-1.6-1.8-5-1.8-36.6 0-19.1 0.3-34.7 0.7-34.7 0.5 0.1 3.3 0.9 6.3 2 3 1.1 6.7 1.9 8.3 2 1.5 0 2.7-0.5 2.7-1 0-0.6-1.7-1.4-3.8-1.9-2-0.5-4.4-1.7-5.2-2.6-1.3-1.5-1.3-1.9 0.5-3.1 1.1-0.8 3.7-1.8 5.8-2.2 2.6-0.5 3.7-1.2 3.7-2.5 0-1-0.7-1.7-1.8-1.6-0.9 0-4.2 0.7-7.2 1.5z"/>
		<path id="Path 19" class="s12" d="m365.3 293.1c-3.1 1.4-4.9 3-6.3 5.9-1.1 2.2-2 5.2-2 6.7 0 1.6 0.5 4.4 1.1 6.3 0.7 1.9 3.4 5.9 6.1 8.7 3.2 3.6 4.7 6 4.5 7.5-0.2 2-0.9 2.3-4.7 2.6-4.4 0.3-4.5 0.2-4.1-2.5 0.3-2.1-0.6-4-3.2-7.6-2.7-3.4-3.6-5.4-3.2-7.2 0.4-2 0.1-2.5-1.5-2.5-1.1 0-2.9 1.2-4 2.7-1.2 1.6-2.1 4-2 5.5 0 1.6 0.5 3.8 1.1 5 0.6 1.3 2.1 3.3 3.3 4.6l2.1 2.3c-3.5-0.1-5.2 0.1-6 0.4-0.8 0.3-1.5 1.1-1.5 1.7 0 1 4.4 1.3 18.5 1.3 14.1 0 18.5-0.3 18.5-1.3 0-0.6-0.7-1.4-1.5-1.7-0.8-0.3-2.5-0.5-3.8-0.5l-2.2 0.1c3.3-3.6 4.8-5.6 5.4-6.9 0.6-1.2 1.1-3.4 1.1-5 0-1.5-1.3-4.4-3-6.7-1.6-2.2-4.4-5.8-6.1-8-2.7-3.6-3-4.5-2.5-8.8 0.3-2.6 0.4-4.7 0.3-4.6-0.1 0-2.1 0.9-4.5 2z"/>
		<path id="Path 20" class="s13" d="m270 291.8c0 1.5-1.3 4.7-2.8 7.2-1.6 2.5-4.9 6.7-7.3 9.4-2.4 2.7-11.2 10.3-19.4 16.9-8.3 6.6-17.5 13.2-20.5 14.7-3 1.5-8.6 3.7-12.5 4.9-3.9 1.2-10.1 2.9-14 3.7-3.9 0.9-12.1 1.8-18.3 2.2l-11.3 0.7 0.6 5.9c20.1 2.7 33 4.5 41.5 5.6 8.5 1.2 17 2.3 18.8 2.6 2.7 0.3 3.2 0.1 3.2-1.6 0-1.2 1-2.4 2.7-3.1 1.6-0.6 5.9-2.6 9.8-4.4 4.5-2.1 9.8-5.8 14.7-10.4 6.6-6 8.4-7.1 11.3-7.1 1.9 0 3.5-0.2 3.5-0.5 0-0.3 1.8-10.3 4-22.3 2.2-11.9 4.2-22.9 4.5-24.5 0.5-2.6 0.4-2.7-4-2.7-4.2 0-4.5 0.2-4.5 2.7z"/>
		<path id="Path 21" class="s14" d="m258 289.5c-0.6 1.4-1.9 2.9-3 3.5-1.1 0.6-5.8 1-10.5 1-6.1 0-8.5 0.3-8.5 1.3 0 0.6-1.2 2.4-2.7 3.9-2.2 2-4.5 2.9-10.1 3.7-3.9 0.6-8.9 1.1-10.9 1.1-2.6 0-5.3 1-8.7 3.2-3.5 2.4-6 5.2-8.9 10.3-2.2 3.9-7.2 10.2-11.1 14-4.2 4.2-9.7 8.4-13.4 10.3-5.7 2.9-6.2 3.5-6.2 6.4v3.3c17.4-1.1 25.6-2 29.5-2.9 3.9-0.8 10.1-2.5 14-3.7 3.9-1.2 9.5-3.4 12.5-4.9 3-1.5 12.3-8.1 20.5-14.7 8.3-6.6 17-14.2 19.4-16.9 2.4-2.7 5.7-6.9 7.3-9.4 1.5-2.5 2.8-5.6 2.8-7 0-1.4-0.5-3.1-1.2-3.8-0.7-0.7-3.2-1.2-5.6-1.2-3.6 0-4.4 0.4-5.2 2.5z"/>
		<path id="Path 22" class="s6" d="m138.6 283.3c-0.3 1.2-0.6 2.5-0.6 2.9 0 0.5 0.7 0.8 1.5 0.8 0.8 0 1.5-0.3 1.5-0.8 0-0.4 0.2-1.7 0.3-3 0.2-1.2-0.2-2.2-0.9-2.2-0.7 0-1.5 1-1.8 2.2z"/>
		<path id="Path 23" class="s0" d="m422 271c-1.4 0.4-5 0.9-8 1.1l-5.5 0.2 9 0.8c-1.2 31.8-2.2 41.8-3.5 48.4-1.1 5.5-3.4 14.5-5.1 20-1.7 5.5-3.6 10.6-4.2 11.4-1 1.2-0.9 1.3 0.8 0.7 1.1-0.5 4.3-1.1 7.2-1.5 2.8-0.3 5-0.9 4.7-1.3-0.2-0.5 0.7-4.7 2.1-9.5 1.4-4.9 2.9-11.3 3.5-14.3 0.6-3 1.7-10 2.5-15.5 0.9-5.6 1.5-16.9 1.5-25.8 0-11.9-0.3-15.7-1.3-15.6-0.6 0.1-2.3 0.5-3.7 0.9z"/>
		<path id="Path 24" class="s0" d="m28.5 273.7c-0.5 2.6-0.5 11.3-0.2 19.3 0.4 8 1.4 18.6 2.2 23.5 0.8 4.9 2.2 11.9 3.1 15.5 0.8 3.6 2.6 10 4 14.3 1.3 4.2 3 7.7 3.6 7.7 0.7 0 2.8-0.6 4.6-1.3 1.8-0.6 3.2-1.5 3.2-1.9 0-0.5-1.3-5.2-2.9-10.5-1.6-5.4-3.4-12.7-4.1-16.3-0.7-3.6-1.6-9.2-2.2-12.5-0.5-3.3-1.3-14.1-1.6-24l-0.7-18-8.3-0.6z"/>
		<path id="Path 25" class="s8" d="m205.5 268.2c-0.2 0.7-1.3 5.4-2.4 10.3-1.1 4.9-2.2 9.7-2.6 10.5-0.4 1.2 0.5 1.7 4.2 2.3 2.6 0.4 6.5 0.7 8.6 0.7 2.1 0 3.8-0.5 4-1.2 0.2-0.7 1.5-6 3-11.8 1.4-5.8 2.5-10.6 2.4-10.6-0.1-0.1-3.9-0.4-8.4-0.8-6.3-0.5-8.4-0.3-8.8 0.6z"/>
		<path id="Path 26" class="s15" d="m141.6 272.5c-0.9 3-1.6 6.2-1.6 7 0 0.8 0.6 1.4 1.3 1.2 0.6-0.2 1.7-2.6 2.4-5.3 0.6-2.7 1.2-5.7 1.2-6.7 0.1-0.9-0.3-1.7-0.8-1.7-0.6 0-1.7 2.5-2.5 5.5z"/>
		<path id="Path 27" class="s16" d="m184.2 268.3c-1.1 1.2-2.7 4.9-3.6 8.2-1 3.8-1.3 7.3-0.8 9.7l0.7 3.7c12 1.2 14.9 1 17.2 0 2.9-1.2 3.4-2.1 4.7-7.9 0.8-3.7 1-6.6 0.5-6.8-0.5-0.1-0.9-1.6-0.9-3.2q0-3-2.2-4.5c-1.4-0.9-4.6-1.5-7.9-1.5-4.5 0-6 0.4-7.7 2.2z"/>
		<path id="Path 28" class="s17" d="m145.6 266.1c-0.3 1.3-1.5 6.3-2.6 11.1-1.1 4.9-2 9.1-2 9.5 0 0.5 3.5 1.1 7.7 1.5 4.5 0.4 8.3 0.3 9.1-0.3 0.7-0.5 1.7-0.5 2.5 0 0.6 0.5 4.8 1.1 9.2 1.3l7.9 0.3c4.4-17.8 5.6-23.1 5.4-23.3-0.2-0.1-4.6-0.5-9.8-0.8-5.2-0.3-13.4-0.8-18.1-1.1-8.4-0.5-8.7-0.4-9.3 1.8z"/>
		<path id="Path 29" class="s18" d="m243.5 264c-0.3 0.6-1.6 1-3 1-1.8 0-2.5 0.5-2.5 2 0 1.2 0.7 2 1.8 2 0.9 0 2.1 0.4 2.7 0.9 0.6 0.5 2.6 0.6 4.5 0.2 2.2-0.4 3.6-1.3 3.8-2.4 0.1-1-0.5-1.7-1.3-1.7-0.8 0-1.7-0.7-2-1.5-0.3-0.8-1.2-1.5-2-1.5-0.7 0-1.6 0.4-2 1z"/>
		<path id="Path 30" class="s8" d="m126 263.3c0 0.1-1.1 4.9-2.5 10.7-1.4 5.8-2.3 11.1-2 11.7 0.3 0.9 3.1 1.3 8.5 1.3 4.4 0 8-0.2 8-0.5 0-0.3 1.1-4.8 2.5-10 1.4-5.2 2.5-10.4 2.5-11.5 0-1.8-0.7-2-8.5-2-4.7 0-8.5 0.1-8.5 0.2z"/>
		<path id="Path 31" class="s19" d="m223.3 263.1c-0.5 0.8-3.1 1-8.1 0.5-6.4-0.5-7.2-0.4-7.2 1.1 0 1.1 1 2.1 2.7 2.5 1.6 0.4 8.3 1 15.1 1.5 11.8 0.8 12.2 0.7 12.2-1.2 0-1.7-0.9-2.1-5.7-2.7-3.2-0.4-5.9-1.2-6.1-1.8-0.1-0.5-0.6-1-1.2-1-0.5 0-1.3 0.5-1.7 1.1z"/>
		<path id="Path 32" class="s19" d="m186.5 262.6c-0.4 0.4-0.8 1.3-0.7 2.1 0.2 0.9 1.9 1.3 6.2 1.3 5.1 0 6-0.2 5.7-1.8-0.2-1.3-1.4-1.8-5.2-2-2.8-0.2-5.5 0-6 0.4z"/>
		<path id="Path 33" class="s15" d="m127.5 259.7c-0.5 0.3-0.8 1.2-0.7 2 0.2 0.9 2 1.3 6.7 1.3 5.8 0 6.5-0.2 6.5-2 0-1.8-0.7-2-5.8-2-3.2 0-6.2 0.3-6.7 0.7z"/>
		<path id="Path 34" class="s20" d="m204.1 260c-0.8 2.2-1.7 3-3.6 3-1.7 0-2.5 0.6-2.5 1.8 0 0.9 0.9 2.3 2 3 1.3 0.7 2 2.3 2 4.2 0 1.6 0.4 3 1 3 0.6 0 1.3-1.6 1.8-3.6 0.4-2 1.3-3.9 1.9-4.3 0.9-0.4 1.1-2.1 0.8-5.4-0.3-2.6-0.9-4.7-1.4-4.7-0.5 0-1.4 1.4-2 3z"/>
		<path id="Path 35" class="s18" d="m164.6 258.5c-0.4 1-2 1.5-4.6 1.5-3.1 0-4 0.4-4 1.8 0 1.2 1.2 2 4.2 2.6 2.4 0.6 5.2 0.9 6.3 0.7 1.1-0.1 5.3 0 9.3 0.3 6 0.5 7.2 0.9 7.2 2.4 0 1.5 0.1 1.5 1.5 0.2 0.8-0.8 1.8-3.6 2.2-6.3 0.6-3.5 0.5-4.7-0.4-4.7-0.7 0-1.6 1.2-1.9 2.8-0.5 2.6-0.7 2.7-5.2 1.9-2.6-0.4-6.4-0.7-8.4-0.7-3.1 0-3.8-0.4-3.8-2 0-1.1-0.4-2-0.9-2-0.5 0-1.2 0.7-1.5 1.5z"/>
		<path id="Path 36" class="s19" d="m146 253.8c-0.6 1.5-1.3 3.3-1.5 3.9-0.3 0.7-1.4 1.3-2.5 1.3q-2 0-2 2c0 1.1 0.7 2 1.5 2 0.8 0 1.5 0.9 1.5 2 0 1.1 0.4 2 1 2 0.6 0 1.2-0.7 1.5-1.5 0.4-1.1 1.9-1.5 5.5-1.5 4.3 0 5-0.3 5-2 0-1.7-0.7-2-4.3-2h-4.2c1-7 0.8-9 0.3-9-0.4 0-1.3 1.2-1.8 2.7z"/>
		<path id="Path 37" class="s16" d="m256.8 242.7c-2.6 0.2-4.2 1-5.2 2.6-0.8 1.2-2.1 5.8-3.1 10.2-0.9 4.4-1.4 8.6-1.1 9.3 0.3 0.6 1.3 1.2 2.1 1.2 0.8 0 1.4 0.7 1.2 1.7-0.1 1.1-1.5 2-3.7 2.4-1.9 0.4-3.9 0.3-4.5-0.2-0.6-0.5-5.2-0.8-10.4-0.6l-9.5 0.2c-3.4 12.4-4.5 17.2-4.5 18.8-0.1 1.8 0.6 3 1.9 3.7 1.1 0.6 5.1 1 9 1 3.9 0 7.2-0.4 7.5-1 0.3-0.6 0.9-1 1.5-1 0.6 0 1 0.7 1 1.5 0 1.2 1.5 1.5 7.2 1.5 5.6 0.1 7.8-0.3 9.5-1.7 1.5-1.2 2.8-4.6 4.3-10.8 1.2-4.9 1.9-10.1 1.6-11.5-0.4-1.5-0.1-3.1 0.8-4 0.8-0.8 2.6-6.1 4-11.7 1.4-5.7 2.4-10.7 2.1-11.3-0.3-0.6-2.2-0.9-4.3-0.8-2 0.1-5.4 0.3-7.5 0.5z"/>
		<path id="Path 38" class="s8" d="m231.5 242.3c-0.2 0.6-1.5 5.7-2.8 11.2-1.4 5.5-2.3 10.2-2 10.5 0.3 0.3 4.1 0.5 8.5 0.5h8c3.7-14.7 5-20 5.3-21.3 0.5-2.1 0.3-2.2-8-2.2-5.9 0-8.7 0.4-9 1.2z"/>
		<path id="Path 39" class="s18" d="m148 244.8c-0.5 2-1 4.3-1 4.9 0 0.7 0.4 1.3 1 1.3 0.6 0 1.2-0.3 1.4-0.8 0.3-0.4 0.7-2.6 1-5 0.3-2.3 0.1-4.2-0.4-4.2-0.5 0-1.4 1.7-2 3.7z"/>
		<path id="Path 40" class="s16" d="m207.1 247.8c-1.2 5.2-1.7 8.8-1.1 8.9 0.6 0.2 1 1.5 1 3 0 2.7 0.2 2.8 7.2 3.6 5.3 0.6 8.1 0.4 10-0.5 2.4-1.2 3-2.4 4.9-10.8 1.7-7.9 1.8-9.7 0.7-10.7-0.8-0.8-5.2-1.5-11-1.7l-9.6-0.5z"/>
		<path id="Path 41" class="s21" d="m169.6 239.8c-0.3 0.4-1.2 3.6-2 7.2-0.8 3.6-1.7 7.3-2.1 8.2-0.3 1.2 0 1.8 1 1.8 0.8 0 1.8-1.2 2.1-2.8 0.4-1.5 1.3-5.2 2-8.2 0.8-3 1.4-5.8 1.4-6.3 0-0.4-0.4-0.7-1-0.7-0.5 0-1.1 0.3-1.4 0.7z"/>
		<path id="Path 42" class="s19" d="m236 239c0 1.7 0.7 2 5 2 4.3 0 5-0.3 5-2 0-1.7-0.7-2-5-2-4.3 0-5 0.3-5 2z"/>
		<path id="Path 43" class="s8" d="m172.5 238.3c-0.2 0.6-1.4 5-2.5 9.7-1.2 4.7-2.3 9.5-2.6 10.7-0.4 2.1 0 2.3 3.4 2.3 2 0 5.8 0.3 8.4 0.7 4.5 0.8 4.7 0.7 5.2-2 0.3-1.5 1-2.7 1.6-2.7 0.6 0 1 1 1 2.2 0 2.1 0.6 2.4 7.5 3 4.1 0.5 7.8 0.6 8.3 0.4 0.4-0.2 2-5.5 3.5-11.7 1.6-6.3 2.7-11.5 2.5-11.7-0.2-0.1-3.9-0.3-8.2-0.5l-8-0.2c-3.2 11.1-4.5 14.7-5 15.2-0.5 0.4-0.6-1-0.2-3.5 0.3-2.3 0.9-5.9 1.2-8 0.6-3.3 0.4-3.8-1.7-4.4-1.3-0.4-5-0.8-8.2-0.8-3.7 0-5.9 0.4-6.2 1.2z"/>
		<path id="Path 44" class="s20" d="m248.3 236.6c-1.5 0.3-2.3 1.1-2.3 2.4 0 1.1 0.7 2 1.5 2 0.9 0 1.3 0.7 1.1 1.8-0.3 0.9-1.4 5.4-2.5 10-1.2 4.5-2.1 8.6-2.1 9.2 0 0.6 0.7 1 1.5 1 1.1 0 2-2.2 3.1-7.7 0.9-4.3 2.2-8.7 2.9-9.8 0.9-1.5 2.8-2.2 7.8-2.7 5.6-0.7 6.7-1.1 6.4-2.5-0.2-1.4-1.5-1.9-5.2-2.4-2.8-0.3-6.1-0.8-7.5-1.1-1.4-0.3-3.5-0.4-4.8-0.2z"/>
		<path id="Path 45" class="s8" d="m152.7 237.3c-0.3 0.6-1.4 5.1-2.6 9.9-1.1 4.9-2.1 9.7-2.1 10.8 0 1.9 0.6 2 8.2 1.7l8.2-0.2c4.3-16.3 5.3-21.6 5.1-22.3-0.4-0.8-3-1.2-8.4-1.2-5.4 0-8.1 0.4-8.4 1.2z"/>
		<path id="Path 46" class="s17" d="m132.5 236.3c-0.3 0.6-1.4 5-2.5 9.7-1.1 4.7-2 9.5-2 10.7 0 2.2 0.3 2.3 8.2 2l8.2-0.2c2.2-7.8 3.5-12.3 4.3-15 0.9-2.8 1.3-5.8 0.9-6.8-0.5-1.4-1.9-1.7-8.6-1.7-5.5 0-8.2 0.4-8.5 1.2z"/>
		<path id="Path 47" class="s12" d="m229.5 235.4c-1.1 0.7-1.9 1.9-1.8 2.7 0.1 0.8 0.8 1.9 1.5 2.6 0.7 0.6 2.5 0.9 4 0.7 2.1-0.3 2.8-0.9 2.8-2.7-0.1-1.2-0.8-2.7-1.8-3.4-0.9-0.7-1.9-1.2-2.2-1.2-0.3 0-1.4 0.6-2.5 1.3z"/>
		<path id="Path 48" class="s19" d="m210.5 234c-0.3 0.6-2.3 1-4.5 1-2.9 0-4 0.4-4 1.5 0 0.8 0.3 1.7 0.8 1.9 0.4 0.3 6.2 0.7 12.9 1 11.3 0.6 12.3 0.5 12.3-1.1 0-1.5-1.3-1.9-7-2.5-3.8-0.5-7-1.2-7-1.8 0-0.6-0.7-1-1.5-1-0.7 0-1.6 0.4-2 1z"/>
		<path id="Path 49" class="s1" d="m158.1 233.9c-0.1 1.8 0.5 2.1 3.9 2.1 3.2 0 4-0.3 3.7-1.8-0.1-1.2-1.3-1.8-3.9-2-3.1-0.3-3.7 0-3.7 1.7z"/>
		<path id="Path 50" class="s18" d="m133.8 232.7c0.2 1.8 0.8 2.3 3.2 2.3 2.3 0 3-0.4 2.8-1.9q-0.2-1.9-3.2-2.3c-2.6-0.4-3-0.2-2.8 1.9z"/>
		<path id="Path 51" class="s13" d="m151.6 229.5c-0.4 1.1-2.1 1.5-6.1 1.5-4.8 0-5.5 0.2-5.5 2 0 1.7 0.8 2 4.8 2.3 4.3 0.2 4.7 0.4 5 3 0.1 1.5 0.6 2.7 1.2 2.7 0.6 0 1.2-1.1 1.5-2.5 0.4-1.9 1.1-2.5 3-2.5 1.8 0 2.5-0.5 2.5-2 0-1.1-0.7-2-1.5-2-0.8 0-1.7-0.9-1.8-2-0.2-1.1-0.9-2-1.5-2-0.5 0-1.3 0.7-1.6 1.5z"/>
		<path id="Path 52" class="s3" d="m313 233.5c-0.8 4.1-1.3 7.6-1 7.9 0.3 0.3 1.1-2.9 1.8-7 0.7-4.1 1.2-7.6 1-7.9-0.2-0.2-1 2.9-1.8 7z"/>
		<path id="Path 53" class="s1" d="m191.6 229c-0.5 3.4-1 4-3.1 4-2 0-2.5 0.5-2.5 2.5 0 1.7 0.5 2.5 1.8 2.5 1.5 0 1.6 0.5 0.9 4.2-0.4 2.4-1 6.1-1.4 8.3-0.3 2.3-0.2 3.6 0.3 3.2 0.5-0.5 1.8-4.1 2.9-8l2.1-7.2c8.7-0.5 9.4-0.8 9.4-2.5 0-1.7-0.7-2-4-2h-4c0.6-7.6 0.4-9-0.5-9-0.7 0-1.6 1.8-1.9 4z"/>
		<path id="Path 54" class="s18" d="m172.4 226.8c-0.3 0.9-1 2.7-1.5 3.9-0.5 1.3-1.8 2.3-2.9 2.3-1.1 0-2 0.7-2 1.5 0 0.8 0.7 1.5 1.5 1.5 0.8 0 1.9 0.8 2.4 1.7 0.8 1.5 1.2 1.6 2.2 0.5 0.8-0.7 3.9-1.2 7.6-1.2 5.6 0 6.3-0.2 6.3-2 0-1.8-0.7-2-6.3-2h-6.2c1-6.2 0.9-8 0.4-8-0.5 0-1.2 0.8-1.5 1.7z"/>
		<path id="Path 55" class="s22" d="m153.5 221.3c-0.4 1.7-0.8 4-1.1 4.9-0.2 1 0.2 1.8 0.9 1.8 0.6 0 1.8-1.7 2.4-3.7 0.7-2.1 1.3-4.4 1.3-5.1 0-0.6-0.6-1.2-1.4-1.2-0.9 0-1.7 1.4-2.1 3.2z"/>
		<path id="Path 56" class="s23" d="m315.5 219.5c-0.4 2.2-0.9 4.6-1.1 5.3-0.2 0.6 0 1.2 0.6 1.2 0.6 0 1.2-2.1 1.5-4.6 0.3-2.5 0.4-4.9 0.1-5.2-0.2-0.4-0.8 1.1-1.1 3.3z"/>
		<path id="Path 57" class="s1" d="m456.5 225.9c0 6.6 0.3 11.3 0.7 10.3 0.4-0.9 0.6-5.3 0.6-9.7 0-4.4-0.3-9-0.6-10.3-0.4-1.3-0.7 3.1-0.7 9.7z"/>
		<path id="Path 58" class="s21" d="m213.6 220.8c-0.9 3.7-1.6 7-1.6 7.4 0 0.5 0.7 0.8 1.5 0.8 1 0 2-2.1 3-6.5 0.8-3.6 1.5-7 1.5-7.5 0-0.6-0.6-1-1.4-1-0.9 0-2 2.4-3 6.7z"/>
		<path id="Path 59" class="s3" d="m299.5 212.9c-5.7 1.5-6.1 1.8-7.2 5.6-0.6 2.2-3 14.1-5.3 26.5-2.2 12.4-7.1 38.5-10.7 58-3.6 19.5-6.9 37.7-7.3 40.5-0.4 2.7-1.3 6.8-1.8 9-0.6 2.2-2.5 5.9-4.2 8.2-1.6 2.4-2.6 4.5-2 4.8 0.6 0.3 1 3.9 1 8 0 6.5 0.2 7.5 1.7 7.5 1 0 3.2-0.8 4.8-1.8 1.6-1 4.7-3.6 6.8-5.8 2.1-2.1 4.4-5.9 5.2-8.4 0.8-2.5 3-12.4 4.9-22 1.9-9.6 8-40.7 13.6-69 5.5-28.3 10.5-53.4 11-55.8 0.6-2.3 1-4.9 1-5.7q0-1.5-2.8-1.4c-1.5 0.1-5.4 0.9-8.7 1.8z"/>
		<path id="Path 60" class="s8" d="m218.5 213.6c-0.4 1.6-1.5 6.2-2.6 10.2-1 3.9-1.9 8.1-1.9 9.2 0 1.7 0.9 2.1 6.3 2.6 3.4 0.3 7 0.5 8.1 0.3 1.5-0.3 2.4-2.7 4.6-11.9 1.6-6.3 2.8-11.6 2.7-11.6-0.1-0.1-3.9-0.5-8.3-0.9l-8.1-0.7z"/>
		<path id="Path 61" class="s8" d="m176.6 219.7c-1.4 5.9-2.6 11.4-2.6 12.1 0 0.9 2.4 1.2 8.5 1.2h8.5c1.2-6.2 2.1-8 2.8-8 0.8 0 1 1.2 0.6 4.3l-0.6 4.2c12.2 1.2 16 1.2 16.3 0.8 0.3-0.4 1.8-5.7 3.2-11.8 1.5-6 2.6-11.1 2.4-11.1-0.1-0.1-3.9-0.4-8.4-0.8l-8.3-0.6-2.3 6.5-1.2-7-16.2-0.6z"/>
		<path id="Path 62" class="s17" d="m159.3 210.1c-0.6 1.3-1.3 4.2-1.7 6.4-0.4 2.2-1.4 6.3-2.2 9-0.9 2.8-1.2 5.3-0.7 5.6 0.4 0.4 4.1 0.9 8 1.3 6.3 0.5 7.4 0.4 8.2-1.1 0.5-1 1.9-6.2 3.2-11.5 1.3-5.3 2-10.1 1.6-10.5-0.5-0.4-4.2-1-8.2-1.2-6.9-0.3-7.3-0.2-8.2 2z"/>
		<path id="Path 63" class="s8" d="m136.7 218.3c-1.5 6.1-2.4 11.5-2 12 0.5 0.4 4.4 0.6 8.7 0.5l7.9-0.3c4.3-17.1 5.4-22.3 5.1-22.8-0.2-0.4-4.1-0.7-8.7-0.7h-8.3z"/>
		<path id="Path 64" class="s18" d="m256.6 207c-0.3 1.1-1.5 2-2.6 2-1.2 0-2 0.7-2 1.8 0 0.9 1 2.2 2.3 2.8 1.2 0.6 3.7 0.8 5.7 0.5 2.2-0.4 3.6-1.3 3.7-2.4 0.2-1-0.5-1.9-1.7-2.2-1.2-0.3-2-1.3-2-2.5 0-1.1-0.6-2-1.4-2-0.8 0-1.7 0.9-2 2z"/>
		<path id="Path 65" class="s19" d="m237.4 206.4c-0.8 1.7-1.7 1.8-8.2 1.2-6.4-0.5-7.2-0.4-7.2 1.1 0 1.3 1.1 2 3.7 2.6 2.1 0.4 8.9 1.1 15.1 1.5 11.2 0.7 11.2 0.7 11.2-1.6 0-1.7-0.6-2.2-2.8-2.2-1.5 0-4.4-0.4-6.4-0.8-2.1-0.4-3.9-1.4-4.1-2.2-0.3-1.2-0.6-1.1-1.3 0.4z"/>
		<path id="Path 66" class="s15" d="m182 207c0 1.8 0.7 2 6 2 5.3 0 6-0.2 6-2 0-1.8-0.7-2-6-2-5.3 0-6 0.2-6 2z"/>
		<path id="Path 67" class="s15" d="m140.5 203.7c-0.5 0.3-0.8 1.2-0.7 2 0.1 0.8 1.6 1.3 4.2 1.3 3.3 0 4-0.3 4-2 0-1.6-0.7-2-3.3-2-1.9 0-3.7 0.3-4.2 0.7z"/>
		<path id="Path 68" class="s22" d="m66.4 204.1c0.7 1.3 1.3 4.4 1.4 6.9 0.2 3.3 0.5 4.1 1.2 3 0.5-0.8 1-2.6 1-4 0-1.4-0.6-3.6-1.3-4.9-0.6-1.4-1.7-2.7-2.4-2.9-0.9-0.3-0.9 0.1 0.1 1.9z"/>
		<path id="Path 69" class="s18" d="m158 202c0 0.6-2.3 1-5 1-4.3 0-5 0.3-5 2 0 1.6 0.8 2 4.3 2.3 3 0.1 4.2 0.6 4.1 1.7-0.1 0.8-0.5 3.3-1 5.5-0.6 3.2-0.5 3.9 0.6 3.5 0.7-0.3 1.8-2.5 2.4-5 1.1-4.4 1.2-4.5 5.4-4.8 3.5-0.2 4.2-0.6 4.2-2.2 0-1.6-0.7-2-3-2-1.8 0-3.2-0.6-3.5-1.5-0.3-0.8-1.2-1.5-2-1.5-0.8 0-1.5 0.4-1.5 1z"/>
		<path id="Path 70" class="s24" d="m52 202.9c-1.8 1.9-2.9 4.1-2.9 6-0.1 1.7 0.5 4.3 1.3 5.8 0.7 1.6 2.6 3.4 4.2 4.1 1.8 0.9 4.1 1.1 5.9 0.7 1.7-0.3 4-1.6 5.3-2.8 1.7-1.6 2.2-3.3 2.2-6.5 0-3.3-0.6-4.8-3-7.2-2.2-2.2-3.9-3-6.6-3-2.6 0-4.3 0.8-6.4 2.9z"/>
		<path id="Path 71" class="s19" d="m198.3 201.7c-0.5 1.4-1.7 3.2-2.8 3.9-1.7 1.2-1.8 1.7-0.8 3.6 0.7 1.3 1.4 3.4 1.6 4.8 0.4 2.4 0.4 2.4 1.5-0.7 0.9-2.5 1.8-3.3 3.7-3.3 1.8 0 2.5-0.5 2.5-2q0-2-2-2c-1.7 0-1.9-0.5-1.6-3.5 0.3-1.9 0.1-3.5-0.4-3.5-0.5 0-1.3 1.2-1.7 2.7z"/>
		<path id="Path 72" class="s6" d="m178.5 201.5c-0.5 2.3-1 2.5-5.5 2.5-4.3 0-5 0.3-5 2 0 1.6 0.8 2.1 4 2.5 3 0.4 4 1 4 2.3 0 0.9-0.7 4.4-1.5 7.7-0.9 3.3-1.3 6.1-1 6.3 0.3 0.1 0.9 0 1.5-0.3 0.6-0.3 1.7-3.9 2.5-8 1.2-5.9 1.9-7.5 3.3-7.5 1.4 0 1.6-0.5 0.9-3.2-0.4-1.8-0.7-4.1-0.7-5 0-1-0.4-1.8-1-1.8-0.5 0-1.2 1.1-1.5 2.5z"/>
		<path id="Path 73" class="s20" d="m29 200c-2.5 0.4-7 1.9-10 3.3-3 1.4-7.3 4.5-9.4 6.9-2.2 2.4-5.1 6.8-6.5 9.8-2.2 4.6-2.6 6.9-2.5 14.5 0 7.1 0.4 9.9 2.2 13.5 1.1 2.5 4 6.7 6.4 9.4 2.6 2.9 6.6 5.9 10.3 7.7 3.3 1.6 8.5 3.2 11.5 3.6 3 0.3 6.1 1.1 6.8 1.7 1 0.8 1.3 0.7 1.2-0.7 0-1.2 0.8-1.7 2.5-1.7 1.4 0 5-1.2 8.1-2.8 3.1-1.5 7.8-5 10.3-7.7 2.9-3 5.6-7.2 6.9-10.8 1.4-3.7 2.2-8 2.2-12.2 0-3.6-0.7-8.6-1.6-11.3-1.1-3.3-1.2-5-0.4-5.7 0.5-0.6 1-1.4 1-2 0-0.6-1 0-2.2 1.2-1.3 1.2-3.6 2.5-5.3 2.8-1.8 0.4-4.1 0.2-5.9-0.7-1.6-0.7-3.5-2.7-4.3-4.3-0.8-1.7-1.3-4.8-1.2-7 0.4-3.7 0.2-4.1-3.1-5.6-1.9-0.9-5.5-1.9-8-2.1-2.5-0.3-6.5-0.2-9 0.2z"/>
		<path id="Path 74" class="s25" d="m294.6 204.3c-0.9 5-1.6 9.4-1.6 9.7 0 0.3 3.1-0.3 6.8-1.2 3.7-1 7.7-1.8 8.9-1.8 1.3 0 2.5-0.3 2.7-0.8 0.3-0.4 0.8-3.1 1.3-6l0.8-5.2c-9.5 0.1-11.7-0.5-13.8-2-1.5-1.1-2.9-2-3.1-2-0.2 0-1.1 4.2-2 9.2z"/>
		<path id="Path 75" class="s21" d="m159.5 194.8c-0.3 1.5-0.8 3.5-1 4.4-0.3 1.1 0.1 1.8 1 1.8 0.8 0 1.7-0.3 1.9-0.8 0.2-0.4 0.6-2.4 0.9-4.5 0.3-2.6 0.1-3.7-0.8-3.7-0.7 0-1.6 1.2-2 2.7z"/>
		<path id="Path 76" class="s21" d="m378.5 193c-2.2 2.2-3.8 4.2-3.5 4.5 0.3 0.2 2.5-1.6 4.9-4 2.5-2.5 4-4.5 3.5-4.5-0.6 0-2.8 1.8-4.9 4z"/>
		<path id="Path 77" class="s16" d="m263.5 187.3c-1.4 0.7-2.6 3.2-3.9 8.1-1 3.9-2 7.7-2.2 8.3-0.2 0.7 0.3 1.3 1.1 1.3 0.8 0 1.5 0.9 1.5 2 0 1.2 0.8 2.2 2 2.5 1.2 0.3 1.9 1.2 1.8 2.2-0.2 1.1-1.6 2-3.8 2.4-1.9 0.4-3.9 0.3-4.5-0.2-0.6-0.5-5.2-0.8-10.4-0.6l-9.5 0.2c-3.5 13.9-4.6 18.4-4.6 19 0 0.5 1.4 1.8 3.2 2.9 2.6 1.5 5 1.8 11.3 1.6 4.4-0.1 11.4 0.3 15.5 0.9 4.1 0.6 7.8 0.7 8.2 0.3 0.4-0.4 1.9-4.9 3.3-10 1.4-5 2.5-10.3 2.5-11.7 0-1.6-0.6-2.5-1.5-2.5-0.8 0-1.5-0.7-1.5-1.5 0-0.8 1-1.9 2.3-2.4 1.7-0.6 2.8-2.8 5-10.5 1.5-5.3 2.7-10.5 2.7-11.6 0-1.8-0.6-2-8.3-1.9-4.5 0.1-9.1 0.6-10.2 1.2z"/>
		<path id="Path 78" class="s8" d="m225.6 184.1c-0.3 0.8-1.4 5.1-2.6 9.7-1.1 4.5-2 9.3-2 10.7 0 2.4 0.4 2.5 7.5 3.3 6.8 0.6 7.6 0.5 8.9-1.3 1.4-1.8 1.5-1.8 1.6-0.2 0 1.3 1.2 1.8 5.3 2.3 2.8 0.3 6.7 0.4 8.6 0.2l3.3-0.3c4.5-17.1 5.8-22.2 5.8-22.5 0-0.3-3.7-0.8-8.2-1.2-4.9-0.5-8.6-0.4-9.5 0.2-0.7 0.6-1.4 0.6-1.5 0.1-0.2-0.5-4-1.2-8.5-1.6-6.4-0.6-8.2-0.4-8.7 0.6z"/>
		<path id="Path 79" class="s8" d="m185.1 184.8c-0.5 2-1.7 6.4-2.5 9.7-0.9 3.3-1.6 7-1.6 8.2 0 2.1 0.5 2.3 6.5 2.5 3.6 0.2 7.1 0.3 7.8 0.3 0.6 0 1.9-1.5 2.7-3.3 0.8-1.8 1.8-3.2 2.3-3.2 0.4 0 0.5 1.5 0.2 3.2l-0.5 3.3c13.4 1.1 15.8 1 16.5 0.1 0.6-0.7 2.1-5.8 3.5-11.4 1.4-5.6 2.1-10.5 1.7-10.9-0.5-0.4-4.3-0.8-8.5-0.8h-7.6c-1.6 5.7-2.5 7.7-3 8.2-0.5 0.5-0.6-1.1-0.3-3.7l0.6-4.5c-5.7-1.1-9.5-1.5-12.1-1.5-4.6 0-4.8 0.1-5.7 3.7z"/>
		<path id="Path 80" class="s8" d="m406.9 180.5c-0.2 0.2-2.9 0.9-5.9 1.5-3 0.6-7.7 2.1-10.5 3.5-2.7 1.3-7.9 5.2-11.5 8.7-3.6 3.5-7.4 7.7-8.4 9.3-1.1 1.6-2.8 5.5-3.8 8.5-1.2 3.6-1.8 8.4-1.8 14 0 6 0.6 10.3 2 14.5 1.2 3.3 3.1 7.8 4.4 10 1.3 2.2 4.6 6.3 7.3 9 2.8 2.8 7.9 6.4 11.4 8.2 3.5 1.7 8.4 3.6 10.9 4.2 2.9 0.7 7.4 0.7 13 0.1 4.7-0.5 10.1-1.3 12-1.8 1.9-0.5 5.3-1.7 7.5-2.8 2.2-1 6.7-4.4 10-7.5q6-5.7 9.4-12.5c3.4-6.8 3.5-7 3.5-21 0.1-11.1-0.2-14.5-1.4-15.9-0.8-1-1.5-2.5-1.5-3.4 0-0.9-1.6-4-3.5-7-1.9-3-5.3-7-7.5-8.8-2.2-1.9-6.7-4.7-10-6.3-3.3-1.6-7.6-3.3-9.5-3.9-1.9-0.6-6.2-1.1-9.6-1.1-3.3 0-6.3 0.2-6.5 0.5z"/>
		<path id="Path 81" class="s14" d="m415 226.5c-4.1 4.1-8 7.5-8.5 7.5-0.5 0-2.4-1.3-4-3-1.6-1.7-3.8-3-4.8-3-0.9 0-1.7 0.8-1.7 1.8-0.1 0.9 2 3.6 4.5 6 2.5 2.3 5.1 4.2 5.8 4.2 0.6 0 3-1.2 5.2-2.8 2.2-1.6 6.4-5.4 9.3-8.6 2.9-3.1 5.1-6.4 4.9-7.4-0.1-0.9-0.9-1.8-1.7-2-0.9-0.1-4.9 3.1-9 7.3z"/>
		<path id="Path 82" class="s8" d="m165.6 181.8c-0.3 0.9-1.4 5.9-2.6 10.9-1.1 5.1-1.8 9.7-1.5 10.3 0.3 0.5 4 1 8.3 1h7.7c1.9-5.8 3.1-10.9 4.1-15 1.3-6.3 1.4-7.6 0.3-8.2-0.8-0.4-4.6-0.8-8.6-0.8-6 0-7.3 0.3-7.7 1.7z"/>
		<path id="Path 83" class="s19" d="m263 180c0 0.6-2.8 1-6.5 1-5.6 0-6.5 0.2-6.2 1.8 0.2 1.3 1.4 1.8 6 1.9 4.3 0.2 5.7 0.7 5.7 1.8 0 0.8 0.4 1.5 1 1.5 0.6 0 1.2-0.4 1.5-1 0.3-0.6 3.2-1 6.5-1 5.3 0 6-0.2 6-2 0-1.7-0.7-2-4.5-2-2.7 0-5.1-0.6-6-1.5-0.8-0.8-1.9-1.5-2.5-1.5-0.6 0-1 0.4-1 1z"/>
		<path id="Path 84" class="s19" d="m230.1 180.6c-0.1 1.4 0.8 2.1 3.1 2.7 1.8 0.4 4.3 0.7 5.6 0.7 1.5 0 2.2-0.6 2.2-2 0-1.6-0.7-2-3.2-2-1.8 0-4.2-0.3-5.4-0.6-1.6-0.5-2.1-0.2-2.3 1.2z"/>
		<path id="Path 85" class="s8" d="m143.4 189.4c-1.3 6.1-2.4 11.7-2.4 12.3 0 0.9 2.3 1.3 8.2 1.3h8.3c5-18.2 5.7-22.3 5-22.9-0.6-0.5-4.5-1.1-8.8-1.3l-7.9-0.5z"/>
		<path id="Path 86" class="s25" d="m322.7 184.5c-1 5.5-1.6 10.1-1.5 10.2 0.2 0.1 1.1-3.5 2.1-8 1.1-4.5 1.7-9.1 1.5-10.2-0.2-1.1-1.1 2.5-2.1 8z"/>
		<path id="Path 87" class="s15" d="m148.2 176.8c0.2 1 1.4 1.8 3.1 1.9 2.1 0.2 2.7-0.1 2.7-1.7 0-1.6-0.7-2-3.1-2-2.4 0-3 0.4-2.7 1.7z"/>
		<path id="Path 88" class="s1" d="m244.6 176c-0.3 1.6-1.3 3.2-2.1 3.5-0.8 0.3-1.5 1.2-1.5 2 0 0.8 0.7 2.2 1.5 3 0.9 0.9 1.7 1.1 2 0.5 0.3-0.6 1.6-1 3-1 1.8 0 2.5-0.5 2.5-2 0-1.1-0.7-2-1.5-2-1 0-1.5-1.1-1.5-3.5 0-1.9-0.4-3.5-0.9-3.5-0.5 0-1.2 1.4-1.5 3z"/>
		<path id="Path 89" class="s19" d="m164.5 174c-0.3 0.6-2.8 1-5.5 1-4.3 0-5 0.3-5 2 0 1.6 0.8 2 4.3 2.3 3.8 0.2 4.2 0.4 4.1 2.7 0 1.4-0.5 4.3-0.9 6.5-0.7 3.3-0.6 3.9 0.6 3.4 0.8-0.3 1.5-1.4 1.7-2.5 0.2-1 0.8-3.6 1.3-5.7 0.9-3.5 1.1-3.7 4.9-3.7 3.3 0 4-0.3 4-2 0-1.6-0.7-2-3-2-1.8 0-3.2-0.6-3.5-1.5-0.3-0.8-0.9-1.5-1.5-1.5-0.5 0-1.1 0.4-1.5 1z"/>
		<path id="Path 90" class="s19" d="m205.5 172.5c-0.3 0.8-0.7 2.2-1 3-0.4 1.1-2.2 1.5-7.5 1.5-6.3 0-7 0.2-7 2 0 1.5 0.7 2 2.8 2 1.5 0 4.4 0.4 6.4 0.8l3.7 0.7c-0.9 7.1-0.8 8.7-0.3 8.2 0.5-0.5 1.4-2.5 1.9-4.5 0.9-3.2 1.5-3.7 4.3-3.9 2.4-0.2 3.2-0.8 3.2-2.3 0-1.5-0.7-2-2.8-2-2.5 0-2.7-0.2-2.1-3.5 0.3-1.9 0.1-3.5-0.3-3.5-0.5 0-1.1 0.7-1.3 1.5z"/>
		<path id="Path 91" class="s1" d="m184.8 173.3c-0.3 1.9-1 2.2-5.6 2.4-4.5 0.3-5.2 0.6-5.2 2.3 0 1.6 0.7 2 3.2 2 1.8 0 4 0.4 4.8 0.9 1.3 0.8 1.3 1.7-0.3 7.5-0.9 3.6-1.7 7.5-1.7 8.6 0 1.1 0.3 2 0.7 2 0.5 0 1.4-2.3 2.1-5.2 0.7-2.9 1.7-7 2.2-9.1 0.7-2.7 1.5-3.7 3-3.7q2 0 2-2c0-1.1-0.5-2.2-1-2.5-0.6-0.3-1-1.6-1-3 0-1.5-0.6-2.5-1.4-2.5-0.8 0-1.6 1-1.8 2.2z"/>
		<path id="Path 92" class="s6" d="m77.5 170.8c0.6 0.6 3.8 1.5 7.3 1.9 4.7 0.6 6.2 0.5 6.2-0.5 0-0.8-1.8-1.2-5.5-1.2-3 0-6.3-0.3-7.3-0.6-1.2-0.5-1.4-0.4-0.7 0.4z"/>
		<path id="Path 93" class="s0" d="m64.8 164l3.2 3c-4.4 5.8-8.5 12.2-12 18-3.5 5.8-6.9 12-7.7 13.8-1.1 2.7-1.1 3.3 0.2 4.2 1.1 0.7 2.3 0.4 4.3-1 1.5-1.2 3.9-2.1 5.5-2 1.5 0 3.6 0.4 4.7 1 1.1 0.6 2.3 0.8 2.8 0.5 0.4-0.2-0.6-1-2.3-1.7-1.7-0.7-3.2-1.3-3.5-1.5-0.3-0.1 1.5-3.5 4-7.5 2.4-4 6.3-10.1 8.7-13.6 2.4-3.4 4.3-6.4 4.3-6.7 0-0.3-1.5-1.1-3.2-1.8-1.8-0.8-4.9-2.8-6.8-4.5-1.9-1.7-3.9-3.1-4.5-3.1-0.6 0 0.5 1.3 2.3 2.9z"/>
		<path id="Path 94" class="s8" d="m271.1 160.8c-0.6 2-1.9 7.3-3 11.7-1.5 6.1-1.7 8.2-0.8 8.8 0.7 0.4 4.6 0.6 8.7 0.5l7.4-0.3c4.5-17.8 5.6-23 5.4-23.1-0.2-0.1-4-0.4-8.6-0.7l-8.2-0.6z"/>
		<path id="Path 95" class="s1" d="m268.1 160.8c-0.5 2-1.7 6.4-2.5 9.7-0.9 3.3-1.6 6.6-1.6 7.2 0 0.7 0.6 1.3 1.2 1.3 0.8 0 2.2-3.8 3.7-9.7 1.3-5.4 2.4-10.4 2.5-11.1 0.1-0.6-0.4-1.2-1.1-1.2-0.7 0-1.7 1.7-2.2 3.7z"/>
		<path id="Path 96" class="s8" d="m230.1 164.6c-1.2 5.4-2.5 10.9-2.7 12.2-0.4 2 0.1 2.2 5.9 2.8 3.4 0.3 7.1 0.5 8.2 0.3 1.1-0.3 2.3-1.7 3-3.7 0.5-1.8 1.3-3.2 1.8-3.2 0.4 0 0.7 1.6 0.7 3.5 0 2.8 0.4 3.6 2.3 4 1.2 0.3 4.8 0.5 8 0.5h5.7c1.5-5.8 2.6-10.4 3.5-14 0.9-3.6 1.8-7.2 2.1-8 0.3-1.2-1.2-1.7-7.8-2.3-5.3-0.5-8.6-0.4-9.5 0.3-0.8 0.6-1.4 0.6-1.5 0-0.2-0.5-4.1-1.3-8.8-1.6l-8.5-0.7z"/>
		<path id="Path 97" class="s1" d="m226.4 166.5l-2.9 11.5c-10.8 0-11.5 0.2-11.5 2 0 1.7 0.8 2.1 5 2.5 3.6 0.4 5 0.9 5 2 0 0.8-0.9 5.2-2 9.8-1.1 4.5-2.5 9.2-3 10.4-0.9 2.2-1.4 2.3-7 1.5-5.8-0.7-6-0.6-6 1.5 0 1.3 0.7 2.5 1.5 2.8 0.8 0.3 3.5 0.5 6 0.5 3.3 0 4.5 0.4 4.5 1.5 0 0.8 0.4 1.5 1 1.5 0.6 0 1.2-0.7 1.5-1.5 0.3-0.8 1.2-1.5 2-1.5 1.2 0 1.4-1 1-4.8-0.4-3.2 0.2-7.6 1.8-13.7 2-7.7 2.6-9 4.5-9.3 1.4-0.1 2.2-0.9 2.2-2.2 0-1.1-0.7-2-1.5-2-1.1 0-1.4-0.8-0.9-3.3 0.3-1.7 1.4-6.8 2.5-11.2 1.1-4.4 1.9-8.3 1.9-8.8 0-0.4-0.6-0.7-1.3-0.7-0.8 0-2.4 4.2-4.3 11.5z"/>
		<path id="Path 98" class="s1" d="m169.6 154.3c-0.3 0.6-1.4 4.9-2.6 9.5-1.1 4.5-2.1 8.5-2.1 8.7 0.1 0.3 0.8 0.5 1.6 0.5 0.8 0 1.8-1.2 2.1-2.8 0.3-1.5 1.2-5.2 2-8.2 0.7-3 1.4-6.3 1.4-7.3 0-0.9-0.5-1.7-1-1.7-0.6 0-1.2 0.6-1.4 1.2z"/>
		<path id="Path 99" class="s8" d="m172.6 153.2c-0.3 0.7-1.4 5.4-2.6 10.3-1.2 4.9-2.2 9.7-2.3 10.5-0.2 1.2 1.3 1.5 8.3 1.5 8.1 0 8.5-0.1 8.8-2.2 0.1-1.3 0.9-2.3 1.7-2.3 0.9 0 1.6 1.1 1.8 2.8 0.2 2.7 0.2 2.7 8.2 2.7 7.5 0 7.9-0.1 8.5-2.4 0.3-1.3 1.1-2.6 1.8-2.8 0.9-0.2 1 0.6 0.5 3.2l-0.8 3.5h17c4.6-17 5.6-22.3 5.2-22.7-0.5-0.5-4.3-0.9-8.5-1.1-6.5-0.3-7.9 0-8.8 1.5-1 1.7-1.2 1.6-1.8-0.4-0.6-2.2-1.1-2.3-9.1-2.3-8 0-8.5 0.1-9.1 2.3-0.6 2.2-0.6 2.2-1.3-0.3-0.6-2.4-1.1-2.5-8.9-2.8-6-0.2-8.3 0.1-8.6 1z"/>
		<path id="Path 100" class="s8" d="m152.1 153.7c-0.5 2.1-1.7 6.5-2.5 9.8-0.9 3.3-1.6 7.2-1.6 8.8v2.7l16.5-0.5c4.3-17.8 5.5-23.1 5.3-23.1-0.2-0.1-4-0.4-8.5-0.8l-8.2-0.6z"/>
		<path id="Path 101" class="s5" d="m332.2 135.8c-0.7 3.1-1.2 6.4-1.1 7.2q0 1.5 0.8-0.5c0.5-1.1 1.1-4.4 1.5-7.3 0.4-2.8 0.5-5.2 0.3-5.2-0.2 0-0.9 2.6-1.5 5.7z"/>
		<path id="Path 102" class="s6" d="m55.3 131.5c-0.7 2.5-1.3 6.4-1.2 8.8 0.1 2.3 0.4 5.3 0.8 6.7 0.5 1.6 1-1.4 1.2-8.5 0.3-6.1 0.5-11.1 0.4-11.2 0-0.2-0.6 1.8-1.2 4.2z"/>
		<path id="Path 103" class="s0" d="m335.2 123c-0.7 4.1-1.2 7.5-1 7.5 0.2 0.1 3.7 2.6 7.8 5.6 4.1 3.1 11.1 8.9 15.4 13 4.4 4.1 11.1 11.2 15.1 15.9 3.9 4.7 8.9 11.2 11.2 14.5 2.3 3.3 3.9 6.4 3.5 6.9-0.4 0.5-0.2 0.7 0.3 0.4 0.5-0.2 2.7-1.2 4.8-2.1 2-0.9 6.1-2.2 9-2.7 2.8-0.6 5.4-1.3 5.6-1.5 0.2-0.3-0.8-0.5-2.2-0.5-1.5 0-3.8 0.4-5.2 1-2.3 0.9-2.7 0.6-5.1-3.3-1.5-2.3-4.5-6.7-6.8-9.7-2.2-3-5.2-6.8-6.6-8.5-1.4-1.6-6.1-6.8-10.5-11.3-4.4-4.6-12.3-11.9-17.5-16.1-5.2-4.2-11-8.6-12.7-9.6-2.1-1.3-3.4-2.9-3.5-4.5-0.2-1.4-0.9 0.9-1.6 5z"/>
		<path id="Path 104" class="s26" d="m334.7 115.3c-0.5 2-1.2 2.6-2.9 2.5-2-0.3-2.3 0.6-4.9 13.7-1.6 7.7-5.8 29.3-9.4 48-3.6 18.7-7 36-7.5 38.5-0.5 2.5-5.5 27.7-11 56-5.6 28.3-11.7 59.4-13.6 69-1.9 9.6-4.1 19.5-4.9 22-0.8 2.7-3.1 6.3-5.7 8.9-2.4 2.4-5.4 4.9-6.8 5.6-1.4 0.7-4.7 1.8-7.5 2.5-4.5 1.2-6.5 1.1-20-1.3-8.2-1.5-25.8-4.7-39-7.2-13.2-2.4-36.4-6.7-51.5-9.4-15.1-2.8-28.3-5.1-29.2-5.1-1.5 0-1.7 0.6-1.2 3.3 0.4 1.7 2.2 5.2 4 7.7 3.2 4.2 3.8 4.6 10.7 5.8 3.9 0.8 8.8 1.8 10.7 2.3 1.9 0.4 10.5 2 19 3.5 8.5 1.5 16 3 16.5 3.5 0.6 0.4 4.4 1.1 8.5 1.4 4.1 0.3 12.2 1.3 18 2.2 5.8 0.8 11 1.9 11.5 2.4 0.6 0.4 5.5 1.2 11 1.8 5.5 0.6 13.4 1.5 17.5 2.2 4.1 0.6 8.4 1.5 9.5 2.1 1.2 0.6 4.4 0.7 8 0.3 3.3-0.4 7.1-1.3 8.5-2 1.4-0.7 4.2-3.1 6.2-5.2 2-2.1 4.2-5.2 4.8-6.8 0.6-1.6 1.7-5.7 2.5-9 0.7-3.3 1.7-8.9 2.1-12.5 0.3-3.6 1-6.9 1.5-7.5 0.5-0.6 1.3-3.2 1.8-6 0.4-2.7 2-10.9 3.5-18 1.4-7.1 3.1-15.5 3.7-18.5 0.6-3 1.5-7.3 1.9-9.5 0.5-2.2 1.2-7.1 1.6-11 0.4-3.9 1-7.4 1.5-8 0.4-0.6 1.2-3.9 1.8-7.5 0.6-3.6 1.6-8.3 2.1-10.5 0.5-2.2 1-6 1-8.5 0-2.5 0.4-6.1 1-8 0.5-1.9 1.8-8.7 2.9-15 1.1-6.3 2.8-14.9 3.7-19 0.8-4.1 1.9-9.5 2.4-12 0.4-2.5 2.3-11.7 4-20.5 1.8-8.8 3.6-18.2 4.1-21 0.5-2.7 1.3-5.2 1.8-5.5 0.6-0.3 1.3-3.6 1.6-7.5 0.4-3.9 1.8-12.2 3.1-18.5 1.4-6.3 2.4-12.8 2.2-14.5l-0.4-3z"/>
		<path id="Path 105" class="s10" d="m156.8 115.6c-4.1 3.5-5.8 4.5-7.6 4-2.1-0.6-2.3 0-4.7 10.7-1.4 6.1-3.2 14.6-4 18.7-0.8 4.1-2.2 10.9-3.1 15-0.8 4.1-1.7 8.2-1.9 9-0.2 0.8-1.6 6.7-3 13-1.4 6.3-2.9 13.1-3.4 15-0.5 1.9-1.4 6-2.1 9-0.6 3-1.7 8.4-2.6 12-0.8 3.6-1.6 7.2-1.9 8-0.2 0.8-1.1 4.4-2 8-0.9 3.6-1.8 7.9-2.1 9.5-0.3 1.6-1.6 7.7-3 13.5-1.4 5.8-2.9 12.1-3.4 14-0.5 1.9-2.5 10.7-4.5 19.5-2 8.8-4.8 20.7-6.2 26.5-2.4 10.2-2.4 10.6-0.8 15.5 0.9 2.8 2.5 5.9 3.5 7 1 1.1 1.9 2.3 1.9 2.8 0.1 0.4 0.1 1.1 0.1 1.7 0 0.6 0.6 0.9 1.2 0.8 0.7-0.1 3.1 0.3 5.3 0.9 2.2 0.7 14.4 2.6 27 4.3 12.6 1.6 23.3 3 23.7 3 0.5 0 0.8-2.7 0.8-6v-6c9.9-5.1 15.4-9.3 19.6-13.5 3.9-3.8 8.9-10.1 11.1-14 2.9-5.1 5.4-7.9 8.9-10.3 3.4-2.2 6.1-3.2 8.6-3.2 2.1 0 7.1-0.5 11-1.1 5.6-0.8 7.9-1.7 10.1-3.7 1.5-1.5 2.7-3.5 2.7-4.4 0-1.5-1.2-1.9-8.3-2.2-4.5-0.2-12.4-0.5-17.5-0.7-6.9-0.3-9.5-0.8-10.2-1.9-0.7-1.2-1.1-1.3-2.2-0.2-0.9 0.9-3.5 1.1-9.6 0.7-8.1-0.5-8.2-0.5-8.5-3.2l-0.3-2.8c-2.4 5.5-2.4 5.5-10.2 4.9-4.2-0.4-8.3-1-9-1.5-0.7-0.5-1.7-0.5-2.5 0.1-0.8 0.6-4.5 0.6-10.7 0-5.2-0.5-13-1-17.3-1-5.2 0-7.9-0.4-8.2-1.2-0.3-0.7 0.6-5.8 1.9-11.3 1.4-5.5 3-11.8 3.6-14 0.5-2.2 1.9-8.5 3.1-14 1.1-5.5 2.5-10.4 3-11 0.5-0.6 0.9-2.4 0.9-4 0-1.6 1.6-9.1 3.4-16.5 1.9-7.4 4.6-18.8 6-25.2 1.4-6.5 3-11.8 3.6-11.8 0.5 0 1-1.9 1-4.2 0-2.4 0.7-7 1.6-10.3 0.8-3.3 1.9-7.7 2.5-9.7l0.9-3.8c12.8 1 16.7 1.6 17 1.9 0.3 0.3 4.8 0.6 9.9 0.6 9.3 0 9.5 0.1 10.2 2.5 0.7 2.5 0.7 2.5 1.3 0.3 0.6-2.2 1.1-2.3 9.1-2.3 8 0 8.5 0.1 9.1 2.3 0.7 2.2 0.7 2.2 2.1 0.2 1.3-2 1.8-2 19.6-0.8 10.6 0.7 18.3 1.7 18.4 2.3 0.2 0.6 0.7 0.7 1.5 0 0.8-0.6 7.9-0.5 19.3 0.2 9.9 0.5 18.1 1.1 18.3 1.2 0.2 0-0.9 5.3-2.5 11.6l-2.9 11.5c-5.7 0.4-6.4 1-6.4 2.5 0 1.5 0.7 2 2.5 2 1.8 0 2.5 0.5 2.5 2 0 1.1-1.2 6.3-2.8 11.6-2.1 7.7-3.2 9.9-5 10.5-1.2 0.5-2.2 1.6-2.2 2.4 0 0.8 0.7 1.5 1.5 1.5 0.9 0 1.5 0.9 1.5 2.5 0 1.4-1 6.4-2.3 11.3-1.3 4.8-2.7 9.3-3 10-0.4 0.6-1.4 1.2-2.2 1.2-0.8 0-1.5 0.6-1.5 1.3 0.1 0.6 0.7 1.6 1.6 2.2 1.3 0.9 1.1 2.4-1.2 11.5-1.4 5.8-3.2 11.2-4 12-0.9 0.9-1.2 2.6-0.8 4.5 0.3 1.6-0.1 5.5-1 8.5-0.9 3-1.6 6.1-1.6 6.8 0 0.8 1.6 1.2 4.5 1.2 2.5 0 4.7 0.4 5 1 0.3 0.6 2.7 1 5.5 1 2.7 0 5-0.1 5-0.2 0-0.2 0.9-5 1.9-10.8 1.1-5.8 3.6-19.1 5.6-29.5 1.9-10.4 4.4-23.7 5.5-29.5 1.1-5.8 5.3-28.5 9.5-50.5 4.1-22 7.5-40.9 7.5-42 0-1.1-1.9-4.1-4.2-6.7-2.7-2.9-5.2-4.7-6.6-4.8-1.3 0-4 1.8-6.7 4.5-2.7 2.7-5.4 4.5-6.8 4.5-1.3-0.1-3.8-1.8-6.2-4.6-3.1-3.4-4.7-4.4-7-4.4-2.2 0-4.1 1.1-7 4-2.3 2.4-4.9 4-6.3 4-1.3 0-3.9-1.8-6.5-4.5-3.2-3.5-4.9-4.6-7.2-4.6-2.2 0-4 1.1-6.8 4.1-2.4 2.6-4.6 4-6.2 4-1.7 0-3.9-1.5-6.8-4.5-3.2-3.5-4.9-4.5-7.2-4.5-2.2 0.1-4 1.2-6.5 4-2.6 3-4.3 4-6.5 4-2.3 0-3.8-1-6.8-4.5-2.9-3.5-4.4-4.5-6.7-4.5-2.1 0-4 1.1-6.7 4-2.8 3-4.6 4-6.8 4-2.3 0-3.8-1-6.8-4.5-2.5-3.1-4.5-4.5-6.2-4.5-1.5 0-4.5 1.8-7.7 4.6z"/>
		<path id="Path 106" class="s6" d="m108.2 115.9c3.5 3.3 6.5 5.7 6.8 5.4 0.3-0.3-2.1-2.9-5.3-5.9-3.1-3-6.2-5.4-6.8-5.4-0.5 0 1.8 2.7 5.3 5.9z"/>
		<path id="Path 107" class="s22" d="m73.3 109.5c-2.9 1.4-5.5 2.9-5.8 3.5-0.3 0.6-0.3 1 0 1 0.3 0 2.6-1.1 5.3-2.5 2.6-1.4 5.3-2.5 6-2.5 0.6 0 1.3-0.4 1.5-1 0.2-0.6-0.2-1-0.8-1-0.5 0-3.4 1.1-6.2 2.5z"/>
		<path id="Path 108" class="s17" d="m81.5 107.4c-1.7 0.8-5.3 2.4-8 3.7-2.8 1.3-7 4.1-9.5 6.3-2.5 2.1-5.1 5-5.9 6.5-1 1.7-1.6 6.7-1.9 14.6-0.3 10.1-0.1 12.6 1.5 15.9 1 2.1 4.3 5.9 7.3 8.4 3 2.4 7.1 5.2 9 6 1.9 0.8 7.3 1.9 12 2.3 6.5 0.6 9.6 0.5 13-0.6 2.5-0.8 6.7-3.4 9.4-5.7 2.7-2.4 6-6 7.3-8.1 1.2-2 3-6.7 3.9-10.5 0.8-3.7 1.2-8.1 0.9-9.7-0.4-1.7-1.9-5.7-3.5-9-2-4.5-4.6-7.7-10.1-12.7-6.4-5.8-8.2-6.9-12.9-7.8-3-0.5-6.4-1-7.5-1-1.1 0-3.3 0.7-5 1.4z"/>
		<path id="Path 109" class="s14" d="m89.3 139.3l-5.2 5.2c-3.6-3.5-5.2-4.5-5.8-4.5-0.7 0-1.3 1.1-1.3 2.5 0 1.4 0.9 3.4 2 4.5 1.1 1.1 3.2 2 4.8 2 2 0 4.3-1.5 8.7-5.9 4.3-4.3 5.8-6.4 5.3-7.5-0.5-0.9-1.4-1.6-2.1-1.6-0.7 0-3.6 2.4-6.4 5.2z"/>
		<path id="Path 110" class="s3" d="m336.1 108c-0.6 2.4-0.8 4.9-0.3 6.3 0.6 1.5 1.1 1.8 1.5 1 0.4-0.7 0.9-3.5 1.2-6.3 0.3-2.8 0.1-5-0.4-5-0.4 0-1.4 1.8-2 4z"/>
		<path id="Path 111" class="s14" d="m333.1 109.1c-0.6 3.8-1.1 7.3-1.1 7.9 0 0.6 0.3 1 0.7 1 0.5 0 1.6-3 2.6-6.7 0.9-3.8 1.7-7.1 1.7-7.4-0.1-0.4-0.7-0.9-1.4-1.2-1-0.4-1.7 1.3-2.5 6.4z"/>
		<path id="Path 112" class="s0" d="m149 102.3c0 1.1-1.4 2.2-4.3 3.3-2.3 0.8-9.1 4.3-15.2 7.7-6 3.4-11.8 6.9-12.8 7.7-1.7 1.4-1.7 1.7 0 5.8 1 2.3 2.1 4.2 2.5 4.2 0.5 0 3.8-2 7.5-4.4 3.8-2.4 9.6-5.8 13.1-7.5 4.8-2.4 6.2-2.8 6.2-1.6 0 0.8 0.4 1.5 1 1.5 0.6 0 0.7-0.6 0.4-1.2-0.4-0.7 0.1-4.6 0.9-8.6 0.9-4.1 1.4-7.7 1.1-8-0.2-0.4-0.4 0.1-0.4 1.1z"/>
		<path id="Path 113" class="s27" d="m333.7 96.8c-0.2 0.4-0.7 2.4-1.1 4.5-0.3 2.2-0.2 3.7 0.4 3.7 0.6 0 1-0.7 1-1.5 0-1.2 0.4-1.3 2-0.5 1.1 0.6 2.2 1 2.5 1 0.3 0 0.5-0.6 0.5-1.2 0-0.7-0.5-2.5-1.2-4-0.7-1.6-1.8-2.8-2.5-2.8-0.7 0-1.4 0.3-1.6 0.8z"/>
		<path id="Path 114" class="s28" d="m339.4 96.7c-0.6 1.5-0.7 3.9-0.4 5.3 0.6 2.1 0.8 1.8 1.4-2.3 0.4-2.6 0.6-5 0.4-5.3-0.2-0.3-0.8 0.8-1.4 2.3z"/>
		<path id="Path 115" class="s29" d="m334.6 90.3c-0.3 1.7-0.6 3.8-0.6 4.5 0 0.6 0.6 1.2 1.2 1.2 0.7 0 1.6-1.4 2.1-3.2 0.4-1.8 0.7-3.9 0.7-4.5 0-0.7-0.6-1.3-1.4-1.3-0.8 0-1.7 1.4-2 3.3z"/>
		<path id="Path 116" class="s30" d="m338.1 88.8c-0.6 3.1-1.1 6.7-1.1 8 0 1.2 0.4 2.2 1 2.2 0.5 0 1-0.7 1-1.5 0-0.8 0.8-2.3 1.7-3.2 1.1-1 1.8-3.2 1.9-5.7 0-2.3-0.4-4.4-1-4.8-0.6-0.4-1.4-0.8-1.7-0.8-0.4 0-1.2 2.6-1.8 5.8z"/>
		<path id="Path 117" class="s25" d="m159 57.5c-0.7 2.8-1 5.7-0.8 6.5 0.3 0.8 0.9-1.2 1.6-4.4 0.6-3.3 0.9-6.2 0.7-6.5-0.2-0.3-0.9 1.7-1.5 4.4z"/>
		<path id="Path 118" class="s26" d="m344.1 42.3c-0.6 2.8-2.4 12.4-4.1 21.2-1.7 8.8-3.3 17-3.5 18.3-0.5 2-0.1 2.2 2.9 2l3.3-0.3c5-23.2 6.7-32 6.9-34.5 0.4-3.2 0-5.6-1.3-8.3-1-2.1-2.1-3.7-2.5-3.7-0.4 0-1.1 2.4-1.7 5.3z"/>
		<path id="Path 119" class="s3" d="m335.1 34.3c-0.6 2.8-4.9 24.8-9.6 48.7-4.7 23.9-8.5 43.8-8.5 44.3 0 0.4-0.5 0.7-1 0.7-0.6 0-2.2-0.9-3.8-2.1-2-1.5-2.8-1.7-2.9-0.7-0.1 0.7-3 16.5-6.5 35.2l-6.3 33.8c5 4.4 6.6 4.8 11.5 4.8 3.3 0 6-0.2 6-0.5 0-0.3 3.4-18.4 7.6-40.3 4.2-21.8 8.2-40.1 8.9-40.7 0.7-0.6 1.7-3.5 2.4-6.5 0.7-3.7 0.8-5.7 0.1-6-0.7-0.3-0.1-4.9 1.4-13 1.4-6.9 3.9-19.7 5.6-28.5 1.7-8.8 3.5-18.4 4-21.2 0.6-2.9 1.3-5.3 1.7-5.3 0.5 0 1.3 1 2 2.2 0.7 1.4 1.2 1.7 1.2 0.8 0-0.8-0.8-2.6-1.9-4-1.1-1.4-2-3.5-2-4.7 0-2-0.5-2.3-4.4-2.3h-4.5z"/>
		<path id="Path 120" class="s25" d="m337.1 23.5l-0.1 5.5c6.7 0 6.9-0.2 6.4-2.3-0.4-1.2-1.9-3.7-3.5-5.5l-2.8-3.3z"/>
		<path id="Path 121" class="s26" d="m330.2 16.3c-0.5 0.6-1.2 3-1.5 5.2-0.3 2.2-3.5 20-7.2 39.5-3.6 19.5-7.5 40.4-8.6 46.5-1 6.1-2.4 12.1-3 13.5-0.9 2.2-0.6 2.8 1.8 4.7 1.5 1.2 3.4 2.2 4.1 2.3 0.6 0 1.2-0.3 1.2-0.8 0-0.4 4.4-22.5 9.7-49.2 5.3-26.7 9.8-51 10-54 0.3-4.3 0-5.9-1.4-7.3-1-1-2.3-1.8-2.9-1.7-0.7 0-1.6 0.6-2.2 1.3z"/>
		<path id="Path 122" class="s5" d="m204.5 5.7c-3.9 0.2-7.4 0.9-8 1.5-0.7 0.8-0.3 0.9 1.5 0.4 1.4-0.3 5.5-0.6 9.3-0.6 3.8 0 6.7-0.4 6.7-1 0-0.5-0.6-0.9-1.3-0.8-0.6 0.1-4.3 0.4-8.2 0.5z"/>
		<path id="Path 123" class="s31" d="m280.7 5.3c-1.3 1.7-4.1 6.2-6.3 10l-3.9 6.7c-24.8-0.2-36.2-0.5-41.4-0.9l-9.4-0.6-5.5-13c-17.1-0.2-21.1 0.3-25.2 1.7-3 1-7.5 3.4-10 5.2-2.5 1.8-6.1 5.3-8 7.8-1.9 2.6-4.5 7.5-5.7 11-1.2 3.4-2.7 9.2-3.3 12.8-0.6 3.6-2.1 11-3.2 16.5-1.1 5.5-2.4 11.8-2.9 14-0.5 2.2-1.7 7.8-2.8 12.5-1 4.7-2.8 12.9-4 18.3-1.7 7.8-1.9 10-0.8 11.2 0.6 0.9 1.8 1.6 2.5 1.5 0.6 0 3.5-2 6.2-4.5 3.1-2.8 5.9-4.5 7.5-4.5 1.7 0 3.6 1.4 6.3 4.5 2.9 3.5 4.4 4.5 6.7 4.5 2.2 0 4.1-1.1 7-4 2.8-2.8 4.9-4 6.8-4 2 0 3.7 1.2 6.5 4.5 2.9 3.5 4.4 4.5 6.7 4.5 2.2 0 3.9-1 6.5-4 2.5-2.8 4.3-3.9 6.5-4 2.3 0 4 1 7.3 4.5 2.8 3 5 4.5 6.7 4.5 1.6 0 3.8-1.4 6.3-4 2.7-3 4.5-4.1 6.7-4.1 2.3 0 4 1.1 7.3 4.6 2.5 2.7 5.1 4.5 6.5 4.5 1.3 0 3.9-1.6 6.2-4 2.9-2.9 4.8-4 7-4 2.3 0 3.9 1 7 4.4 2.4 2.8 4.9 4.5 6.3 4.6 1.3 0 4-1.8 6.7-4.5 2.7-2.7 5.4-4.5 6.8-4.5 1.3 0.1 3.7 1.8 6.2 4.6l4 4.5c1.9-4.3 3.3-10.5 4.4-16.6 1.1-6.1 5-27 8.6-46.5 3.7-19.5 7-37.5 7.4-39.9 0.3-2.6 1.3-4.9 2.4-5.5 0.9-0.6 1.7-1.7 1.7-2.4 0-0.6-0.3-1.2-0.7-1.2-0.5 0-3.2-2.3-6-5l-5.3-5h-37.9z"/>
		<path id="Path 124" class="s0" d="m226.4 43.8c-1 1.5-1.3 1.5-2.8 0.2-0.9-0.8-1.9-1.2-2.1-0.7-0.3 0.4-0.3 1.1 0 1.7 0.3 0.6 1.9 1 3.5 1 1.6 0 3.3-0.6 3.6-1.2 0.3-0.7 0.2-1.6-0.3-2-0.5-0.4-1.4 0-1.9 1z"/>
		<path id="Path 125" class="s31" d="m261.9 38.8c-0.7 1.6-0.7 3.7-0.2 5.2 0.5 1.4 1.5 2.5 2.3 2.5 1.1 0 1.6-1.4 1.8-5.2 0.1-4.2-0.1-5.3-1.3-5.3-0.9 0-2 1.2-2.6 2.8zm-11.5-1.5c-0.3 1.2-0.4 3.5-0.2 5.2 0.2 2.2 0.8 3 2.3 3 1.7 0 2-0.7 2.2-5.2 0.2-4.7 0-5.3-1.7-5.3-1.2 0-2.2 0.9-2.6 2.3z"/>
		<path id="Path 126" class="s3" d="m196 37c0 1.1-0.3 2.6-0.6 3.3-0.3 0.6 0.2 1.5 1 2 1.3 0.6 1.6 0 1.6-3.3 0-2.2-0.4-4-1-4-0.6 0-1 0.9-1 2zm68.5-2c-0.3 0.6-0.1 1 0.5 1 0.6 0 1 2 1 4.5 0 3.3 0.4 4.5 1.5 4.5 1.1 0 1.5-1.1 1.5-4.3 0-2.3-0.5-4.8-1.2-5.5-0.7-0.7-1.6-1.2-2-1.2-0.4 0-0.9 0.4-1.3 1z"/>
		<path id="Path 127" class="s15" d="m249 35.2c-0.9 0.8-1.3 2.9-1.2 5.7 0.1 2.6 0.7 5.2 1.4 5.9 0.7 0.7 1.6 1.2 2 1.2 0.5 0 0.4-0.9-0.2-2-0.6-1.1-1-3.3-1-5 0-1.7 0.4-3.9 0.8-5 0.5-1.1 0.6-2 0.2-2-0.3 0-1.2 0.5-2 1.2z"/>
		<path id="Path 128" class="s32" d="m239.1 36.4c0 1.4-0.9 3.1-1.8 3.7-1.3 0.7-1.4 1.1-0.5 1.5 1 0.3 1 0.7 0 1.9-0.7 0.9-1.9 1.6-2.5 1.5-0.7 0-1.3 0.4-1.3 1 0 0.6 0.9 1 2 1 1.1 0 3.2-1.5 4.6-3.2 1.7-2.3 2.5-4.2 2.2-6.2-0.2-1.6-0.8-3.1-1.4-3.4-0.7-0.2-1.2 0.8-1.3 2.2z"/>
		<path id="Path 129" class="s31" d="m234.5 35.2c-0.4 0.7-0.4 2.1-0.1 3 0.3 1 1.4 1.7 2.4 1.5 1.1-0.1 1.7-1.1 1.7-2.7 0-1.5-0.7-2.6-1.7-2.8-0.9-0.2-2 0.2-2.3 1z"/>
		<path id="Path 130" class="s32" d="m228 38.5c0 2.5 0.4 4.5 1 4.5 0.6 0 1-2 1-4.5 0-2.5-0.4-4.5-1-4.5-0.6 0-1 2-1 4.5z"/>
		<path id="Path 131" class="s19" d="m220.6 35.5c-0.3 0.8-0.6 2.8-0.6 4.5 0 1.7 0.4 3 1 3 0.6 0 1-1 1-2.3 0-1.2 0.2-3.2 0.4-4.5 0.2-1.2 0.1-2.2-0.4-2.2-0.5 0-1.1 0.7-1.4 1.5z"/>
		<path id="Path 132" class="s14" d="m294 36.7v3.8c10.5 1.2 13.9 1.2 14.3 0.8 0.4-0.5 0.6-2.4 0.5-4.3l-0.3-3.5-14.4-0.6z"/>
		<path id="Path 133" class="s0" d="m254.8 38.8c0.4 4.7 0.1 5.9-1.4 6.9-1.1 0.7-1.6 1.6-1.2 2 0.4 0.5 1.5 0.5 2.3 0.1 0.8-0.5 2-2 2.5-3.5l1.1-2.8c2.6 5.4 4.3 7.1 5.4 7.3 1.1 0.2 2.7-0.4 3.5-1.3 0.8-0.8 1.2-1.9 0.8-2.3-0.4-0.4-1.5 0-2.4 0.8-1.4 1.3-1.8 1.3-3.1-0.5-0.9-1.3-1.2-3.1-0.8-5 0.3-1.7 1.2-3.8 1.9-4.7 1-1.5 1-1.8-0.1-1.8-0.7 0-2.1 1.1-3.1 2.5l-1.7 2.6c-2.7-4.7-3.6-6.1-3.8-6.1-0.2 0-0.1 2.6 0.1 5.8z"/>
		<path id="Path 134" class="s33" d="m223.1 35.6c-0.5 1.4-1 3.5-1 4.7-0.1 1.2 0.6 2.9 1.5 3.7 1.4 1.3 1.8 1.3 3-0.5 0.8-1.1 1.4-3.3 1.4-5 0-1.7-0.5-3.6-1.2-4.3-0.7-0.7-1.6-1.2-2.1-1.2-0.4 0-1.1 1.2-1.6 2.6z"/>
		<path id="Path 135" class="s0" d="m233 33.2c-0.8 0.6-1.3 2.3-1.2 3.7 0 1.5 0.8 3.3 1.7 4.1 0.8 0.8 1.8 1.2 2 0.7 0.3-0.4 0-1.5-0.6-2.5-0.7-0.9-0.9-2.5-0.5-3.5 0.3-0.9 1.4-1.6 2.4-1.5 1.1 0.2 2-0.1 2.1-0.7 0.1-0.6-0.9-1.1-2.1-1.3-1.3-0.2-3 0.3-3.8 1z"/>
		<path id="Path 136" class="s15" d="m186.9 33.9c-0.6 1.1-1 3.1-1 4.5 0.1 2.3 0.5 2.6 3.2 2.4 2.9-0.3 3-0.5 2.4-3.8-0.4-1.9-0.9-3.8-1.1-4.2-0.2-0.5-0.8-0.8-1.4-0.8-0.5 0-1.4 0.9-2.1 1.9z"/>
		<path id="Path 137" class="s0" d="m223.1 31.7c-0.8 0.2-1.4 0.9-1.3 1.4 0.1 0.5 1.1 0.7 2.2 0.4 1.1-0.3 2.2-0.1 2.5 0.5 0.3 0.6 0.9 0.8 1.5 0.5 0.6-0.3 0.5-1.1-0.2-2-0.7-0.9-1.7-1.5-2.3-1.5-0.6 0.1-1.7 0.4-2.4 0.7z"/>
		<path id="Path 138" class="s10" d="m192.6 32.5c-0.3 0.8-0.6 3.3-0.6 5.5 0 2.9 0.4 4 1.5 4 0.8 0 1.7-0.7 2-1.5 0.3-0.8 0.5-3.3 0.5-5.5 0-2.8-0.4-4-1.4-4-0.8 0-1.7 0.7-2 1.5z"/>
		<path id="Path 139" class="s14" d="m199.6 29.9c-0.2 0.5-0.8 3.7-1.3 7.1-0.8 5.9-0.7 6.2 1.2 5.9 1.6-0.3 2.2-1.6 2.8-5.9 0.5-3 0.6-6.1 0.3-6.7-0.3-0.7-1-1.3-1.6-1.3-0.5 0-1.1 0.4-1.4 0.9z"/>
		<path id="Path 140" class="s14" d="m267 3.1c-6.9 0.4-21.3 1.3-32 1.9-10.7 0.6-19.8 1.4-20.2 1.8-0.4 0.4 0.6 3.6 2.1 7.2l2.8 6.5c14.6 1 26 1.3 34.8 1.4l16 0.1c6.1-10.5 8.8-15 10-16.8 1.7-2.6 1.8-3.2 0.6-3.1-0.9 0.1-7.2 0.5-14.1 1z"/>
		<path id="Path 141" class="s25" d="m301 1c-6.6 0.6-5.9 0.7 5.5 0.7 8 0.1 12.2-0.2 11-0.7-1.1-0.5-3.6-0.8-5.5-0.7-1.9 0-6.9 0.3-11 0.7z"/>
	</g>
</svg>