<svg version="1.2" xmlns="http://www.w3.org/2000/svg" viewBox="0 0 115 115" width="115" height="115">
	<title>Screen Shot 2023-10-23 at 5</title>
	<style>
		.s0 { fill: #1d1d22 } 
	</style>
	<path id="Path 0" class="s0" d="m50.5 3.6c-1.5 1.4-1.6 5.7-1.6 41.5 0.1 21.9-0.2 39.9-0.6 39.9-0.5 0.1-8.2-7.6-17.3-17-9.1-9.4-16.6-17.5-16.8-18.1-0.1-0.5-1.2-0.9-2.4-0.9-1.4 0-3.7 1.6-6 4.3-2.1 2.3-3.8 4.9-3.8 5.7 0 0.8 12.5 14 27.7 29.3l27.8 27.7c43-43 55.5-56.2 55.5-57 0-0.8-1.9-3.4-4.2-5.7-2.4-2.4-4.7-4.3-5.3-4.3-0.6 0-4.2 3.2-8.2 7.2-4 4-12.1 12.1-18 18-5.9 5.9-11.1 10.8-11.5 10.8-0.5 0-0.8-18.4-0.8-41 0-35.6-0.2-41.1-1.5-41.5-0.8-0.3-3.7-0.5-6.4-0.5-3.1 0-5.6 0.6-6.6 1.6z"/>
</svg>