<svg version="1.2" xmlns="http://www.w3.org/2000/svg" viewBox="0 0 80 177" width="80" height="177">
	<title>Screen Shot 2023-10-21 at 12</title>
	<style>
		.s0 { fill: #dfdfdf } 
		.s1 { fill: #e8e0e0 } 
		.s2 { fill: #c0272a } 
		.s3 { fill: #daa1a2 } 
		.s4 { fill: #c86060 } 
	</style>
	<g id="Background">
		<path id="Path 0" fill-rule="evenodd" class="s0" d="m6.4 1h34.3c18.9 0 34.3 0.3 34.3 0.8 0 0.4 0.7 5.2 1.5 10.7 0.8 5.6 1.5 17.6 1.5 27.3 0 11.3-0.5 19-1.4 22.4-0.7 2.9-1.9 6.4-2.7 7.7-0.8 1.4-1.8 3-2.4 3.7-0.5 0.6-1.8 0.9-2.7 0.8-1.3-0.3-1.8 0.2-1.8 1.9 0 1.7 0.2 1.9 1 0.7 0.5-0.8 1.3-1.1 1.7-0.7 0.4 0.4 0.3 1.1-0.3 1.5-0.6 0.4-1.4 1.4-1.7 2.2-0.4 1.2-0.6 1.1-0.6-0.2-0.1-1-0.5-1.8-1.1-1.8-0.5 0-1.2 0.9-1.5 2-0.3 1.1-0.3 2.9 0 4q0.5 2-1 2c-0.8 0-3 1.6-4.7 3.5-1.8 1.9-3.4 3.3-3.5 3-0.2-0.3-1.3 0.4-2.5 1.5-1.3 1.2-3.4 2.4-4.8 2.7-1.4 0.3-2.8 1.1-3.2 1.7-0.4 0.6-0.8 14.5-0.8 30.9 0 19.1 0.4 29.7 1 29.7 0.6 0 1 3.7 1 18h-9l-0.1-8.7c0-4.9-0.2-8.2-0.5-7.5-0.2 0.6-1.1 1.2-2 1.2-1.4 0-1.4-0.1 0-1.5 1.4-1.3 1.6-5.4 1.6-30.2 0-15.9-0.2-29.8-0.5-31-0.3-1.6-1.2-2.3-2.7-2.3-1.3 0-3.4-0.8-4.8-1.7-1.4-1-3.3-2.6-4.2-3.5-1-1-1.8-2-1.8-2.3 0-0.3 0.7-0.5 1.5-0.5 0.8 0 1.5-0.5 1.5-1 0-0.5-0.8-1.2-1.7-1.5-1-0.3-2.4-0.7-3-1-0.9-0.3-1.1 0.2-0.7 1.8 0.3 1.4-0.1 1-1.3-1.1-1-1.8-2.1-3.3-2.5-3.2-0.5 0-1.4-0.6-2.1-1.2-0.8-0.7-1.7-2.3-2-3.5-0.4-1.3-1.1-2.3-1.7-2.3-0.5 0-1.2-1.3-1.5-3-0.3-1.7-0.9-3-1.5-3-0.5 0-1-1.1-1-2.5 0-1.4-0.7-2.7-1.5-3-1-0.3-1.5-1.8-1.5-4 0-1.9-0.4-3.5-1-3.5-0.6 0-0.9-6.2-0.6-17.3 0.2-9.4 0.8-21 1.4-25.7 0.5-4.7 1.5-9.5 2.3-10.7zm43.1 160.9c0.8 0 1.5 0.5 1.5 1 0 0.6 0.9 1.3 2 1.5 1.1 0.3 2 1.1 2 1.8-0.1 0.9-0.3 0.9-0.8-0.1-0.4-0.7-1.1-1.3-1.5-1.2-0.4 0-1.6-0.2-2.7-0.5-1.1-0.2-2-0.9-2-1.5 0-0.5 0.6-1 1.5-1zm25.8 11.3c0.7 0.2 1.3 1.2 1.4 2.1 0.2 0.9-0.4 1.6-1.2 1.6-0.9 0-1.5-0.8-1.4-2 0-1.2 0.6-1.9 1.2-1.7z"/>
		<path id="Path 1" class="s1" d="m3.7 66.6c0.1 1.3 0.8 2.4 1.3 2.4 0.5 0 1-0.9 1-1.9-0.1-1-0.7-2.1-1.4-2.4-0.9-0.4-1.2 0.2-0.9 1.9zm2.3 4.7c0 0.6 1.3 3.2 2.9 5.7 1.5 2.5 4.2 6.1 5.9 8 1.7 1.9 3.4 3.2 3.7 2.8 0.3-0.5-0.1-1.7-0.8-2.8-0.6-1.1-1.5-2-2-2-0.4 0-1.3-0.6-2-1.2-0.8-0.7-1.7-2.3-2-3.5-0.4-1.3-1.2-2.3-1.7-2.3-0.5 0-1.2-1.3-1.3-3-0.2-1.7-0.9-3-1.5-3-0.7 0-1.2 0.6-1.2 1.3zm65 2.7c0 0.6-0.9 0.8-2 0.5q-2-0.5-2.1 1.1c0 0.8-0.7 2.2-1.5 3-0.9 0.9-1.5 2.4-1.5 3.5 0.1 1.2 0.6 1.7 1.6 1.4 0.8-0.3 1.5-1.7 1.5-3.2 0-1.8 0.3-2.3 0.8-1.5 0.5 1 1.3 0.7 3-1.5 1.2-1.5 2.3-3.1 2.2-3.5 0-0.5-0.5-0.8-1-0.8-0.5 0-1 0.5-1 1zm-51.1 13.8c0.2 1.5 1.1 3.2 2 3.9 0.9 0.7 2.1 1.2 2.6 1.2 0.5 0 0.2-0.5-0.7-1.2-1-0.7-1.7-1.5-1.8-1.9 0-0.5 0.7-0.8 1.5-0.8 0.8 0 1.5-0.4 1.5-1 0-0.5-0.8-1.2-1.7-1.5-1-0.3-2.3-0.7-2.8-1-0.6-0.3-0.8 0.7-0.6 2.3zm41.1-1.1c-0.7 0.2-1.3 0.9-1.2 1.4 0.1 0.5 0.7 0.9 1.2 0.9 0.5 0 1.2-0.7 1.4-1.5 0.2-0.8 0.3-1.5 0.2-1.4 0 0-0.8 0.3-1.6 0.6zm-31.5 74.8c-3.3 1.9-6.8 3.5-7.8 3.5-0.9 0-1.7 0.4-1.7 1 0 0.6-1.2 1.2-2.8 1.5-1.5 0.3-5.5 1.8-9 3.5-3.5 1.7-6.1 3.5-5.9 4.3 0.3 0.9 4.8 1.3 17.5 1.5l17.2 0.2c-0.1-13.6-0.3-16.9-0.6-16.2-0.2 0.6-1.1 1.2-2 1.2-1.4 0-1.4-0.1 0-1.5 0.9-0.8 1.6-1.7 1.6-2 0-0.3-0.1-0.5-0.3-0.5-0.1 0-2.9 1.6-6.2 3.5zm16.6 6.9l-0.1 8.6c27.3 0 28-0.1 28-2 0-1.2-1.5-2.9-4-4.5-2.2-1.4-4.5-2.5-5-2.5-0.5 0-2.2-0.6-3.8-1.4-1.5-0.7-4.4-2.1-6.5-3-2-0.9-3.7-1.2-3.7-0.6 0 0.6 0.9 1.2 2 1.5 1.1 0.3 2 1.1 2 1.8q0 1.2-1-0.3c-0.5-0.8-1-1.2-1-0.7 0 0.4-1 0.3-2.3-0.2-1.2-0.4-2.2-1.6-2.2-2.6 0-1-0.5-2-1.1-2.3-0.8-0.2-1.2 2.3-1.3 8.2z"/>
		<path id="Path 2" class="s0" d="m65.2 173.4c-0.2 1.1 0.6 1.6 2.8 1.6 1.7 0 3-0.4 3-1 0-0.6-0.7-1-1.5-1-0.8 0-2.1-0.3-2.8-0.6-0.8-0.4-1.5 0-1.5 1z"/>
		<path id="Path 3" class="s1" d="m41.5 98.7c-0.5 0.3-0.8 6.4-0.7 13.5 0.1 7.7 0.6 12.8 1.2 12.8 0.6 0 1-5.2 1-13.5 0-7.4-0.2-13.5-0.3-13.5-0.2 0-0.7 0.3-1.2 0.7z"/>
		<path id="Path 4" class="s2" d="m12 45c0 0.5-0.7 1-1.5 1-0.8 0-1.5 0.7-1.5 1.5 0 0.8 0.3 1.5 0.8 1.5 0.4 0 1 1.8 1.4 4 0.5 2.2 1.3 4 1.8 4 0.5 0 1 1.1 1 2.5 0 1.4 0.5 2.5 1 2.5 0.5 0 1 0.7 1 1.5 0 0.8 0.6 2.1 1.3 2.8 0.8 0.6 1.7 2.2 2 3.5 0.4 1.2 1.2 2.2 1.7 2.2 0.5 0 1 0.5 1 1 0 0.5 0.9 1.9 2 3 1.1 1.1 2.5 2 3 2 0.5 0 1 0.7 1 1.5 0 0.9 0.9 1.5 2.5 1.5 1.4 0 2.6 0.5 2.8 1 0.1 0.6 2.9 1.2 6.1 1.3 4.1 0.1 6-0.2 6.3-1.1 0.1-0.6 1.2-1.2 2.3-1.2 1.1 0 4-1.9 6.3-4.3 2.4-2.3 4.7-5.2 5-6.5 0.4-1.2 1.2-2.2 1.7-2.2 0.5 0 1-0.7 1-1.5 0-0.8 0.7-1.5 1.5-1.5q1.5 0 1.5-3c0-1.7 0.5-3 1-3 0.5 0 1.2-1.6 1.5-3.5 0.3-1.9 1-3.5 1.5-3.5 0.5 0 1-1.1 1-2.5 0-1.4-0.7-3.2-1.5-4-1.3-1.3-5.9-1.5-29-1.5-17.7 0-27.5 0.4-27.5 1z"/>
		<path id="Path 5" fill-rule="evenodd" class="s3" d="m40.8 41c25.1 0 32.2 0.3 32.2 1.3 0 0.9-7.1 1.2-64.5 1.2l0.3 5c0.1 2.8 0.7 5.1 1.2 5.3 0.6 0.1 1 1.3 1 2.7 0 1.4 0.7 2.7 1.5 3 0.8 0.3 1.5 1.6 1.5 3 0 1.4 0.5 2.5 1 2.5 0.5 0 1.2 1.1 1.5 2.5 0.3 1.4 1 2.5 1.5 2.5 0.5 0 1 0.7 1 1.5 0 0.8 0.7 1.5 1.5 1.5 0.8 0 1.5 0.7 1.5 1.5 0 0.8-0.7 1.5-1.5 1.5-0.8 0-1.5-0.6-1.5-1.3-0.1-0.6-1.2-2.2-2.5-3.5-1.4-1.2-2.5-2.8-2.5-3.5 0-0.6-1-3.2-2.3-5.6-1.2-2.4-2.5-4.5-3-4.7-0.4-0.2-0.7-1.7-0.7-3.4 0-1.7-0.5-3-1-3-0.5 0-1-1.6-1-3.5 0-1.9 0.6-4.2 1.2-5 1.1-1.2 6.5-1.4 33.5-1.5zm31.4 8c0.5 0 0.9 1.1 0.9 2.5 0 1.4-0.5 2.5-1 2.5-0.5 0-1.2 1.3-1.5 3-0.3 1.7-1 3-1.5 3-0.5 0-1 1.1-1 2.5 0 1.6-0.6 2.5-1.5 2.5-0.8 0-1.5-0.5-1.5-1 0-0.5 0.7-1.7 1.5-2.5 0.8-0.8 1.5-2.4 1.5-3.5 0-1.1 0.5-2 1-2 0.5 0 1-0.9 1-2 0-1.1 0.3-2.7 0.6-3.5 0.3-0.8 1-1.5 1.5-1.5zm-8.1 18c0.5 0 1 0.6 1 1.2-0.1 0.7-1.1 2.2-2.4 3.3-1.2 1.1-2.6 3-2.9 4.3-0.4 1.2-1.2 2.2-1.7 2.2-0.5 0-1 0.7-1 1.5 0 0.8-0.7 1.5-1.5 1.5-0.8 0-1.5 0.5-1.5 1 0 0.5-1 1.3-2.2 1.6-1.3 0.4-2.6 1.2-3 1.8-0.4 0.7-4.1 1.1-9.4 1.1-6.1 0-8.8-0.4-9.1-1.3-0.2-0.6-1-1.2-1.8-1.2-0.8 0-1.5-0.7-1.5-1.5 0-0.8 0.7-1.5 1.5-1.5 0.8 0 1.5 0.7 1.5 1.5q0 1.5 3 1.5c1.7 0 3 0.5 3 1 0 0.5 1.8 1 4 1 2.2 0 4-0.5 4-1 0-0.5 1.1-1 2.4-1 1.4 0 3.1-0.7 4-1.5 0.8-0.8 1.9-1.5 2.5-1.5 0.6 0 1.1-0.7 1.1-1.5 0-0.8 0.7-1.5 1.5-1.5 0.8 0 1.5-0.5 1.5-1 0-0.5 0.6-1.7 1.3-2.5 0.6-0.8 1.7-2 2.3-2.7 0.5-0.7 1.3-2.1 1.7-3 0.3-1 1.1-1.8 1.7-1.8zm-40.8 11c1 0 1.8 0.8 1.8 1.8 0 0.9-0.4 1.3-0.8 0.7-0.4-0.5-1.2-1.3-1.7-1.8-0.6-0.4-0.3-0.7 0.7-0.7z"/>
		<path id="Path 6" class="s4" d="m8.5 44c-0.3 0.5-0.3 3 0 5.5 0.3 2.5 1 4.5 1.5 4.5 0.5 0 1.1 1.2 1.3 2.7 0.1 1.4 0.8 2.8 1.4 3 0.7 0.2 1.3-0.4 1.3-1.2 0-0.8-0.5-1.5-1-1.5-0.5 0-1.3-1.8-1.8-4-0.4-2.2-1-4-1.4-4-0.5 0-0.8-0.7-0.8-1.5 0-0.8 0.7-1.5 1.5-1.5 0.8 0 1.5-0.5 1.5-1 0-0.6 9.8-1 27.5-1 23.1 0 27.7 0.2 29 1.5 0.8 0.8 1.5 2.4 1.5 3.5 0 1.8 0.2 1.8 1.5 0.5 0.8-0.8 1.5-2.4 1.5-3.5 0-1.3-0.8-2.2-2.3-2.5-1.2-0.3-15.6-0.5-31.9-0.5-18.8 0-29.9 0.4-30.3 1zm59.1 11.5c-0.3 1.9-1.1 3.5-1.6 3.5-0.5 0-1 0.7-1 1.5 0 0.8 0.5 1.5 1 1.5 0.5 0 1.3-1.4 1.7-3 0.5-1.7 1.1-3 1.5-3 0.5 0 0.8-0.9 0.8-2 0-1.1-0.4-2-0.9-2-0.5 0-1.2 1.6-1.5 3.5zm-53.6 8c0 0.8 0.5 1.5 1 1.5 0.5 0 1.2 1.1 1.5 2.5 0.3 1.4 1 2.5 1.5 2.5 0.5 0 1 0.7 1 1.5 0 0.8 0.7 1.5 1.5 1.5 1.3 0 1.3-0.2 0-1.5-0.8-0.8-1.5-2.2-1.5-3 0-0.8-0.5-1.5-1-1.5-0.5 0-1.2-1.1-1.3-2.5-0.2-1.4-0.9-2.5-1.5-2.5-0.7 0-1.2 0.7-1.2 1.5zm48 3c0 0.8-0.5 1.5-1 1.5-0.5 0-1.3 1-1.7 2.3-0.3 1.2-2.5 4.1-4.7 6.5-2.4 2.4-5.1 4.2-6.4 4.2-1.2 0-2.4 0.6-2.5 1.2-0.3 0.9-2.2 1.2-6.3 1.1-3.2-0.1-6-0.7-6.2-1.3-0.1-0.5-0.9-1-1.7-1-0.8 0-1.5 0.7-1.5 1.5q0 1.5 3 1.5c1.7 0 3 0.5 3 1 0 0.5 1.8 1 4 1 2.2 0 4-0.5 4-1 0-0.5 1.1-1 2.4-1 1.4 0 3.1-0.7 4-1.5 0.8-0.8 1.9-1.5 2.5-1.5 0.6 0 1.1-0.7 1.1-1.5 0-0.8 0.7-1.5 1.5-1.5 0.8 0 1.5-0.5 1.5-1 0-0.5 0.6-1.7 1.2-2.5 0.7-0.8 1.8-2 2.4-2.7 0.5-0.7 1.3-2.1 1.7-3 0.4-1 1.2-1.8 1.7-1.8 0.5 0 1-0.5 1-1 0-0.5-0.7-1-1.5-1-0.8 0-1.5 0.7-1.5 1.5zm-40 10c0 0.8 0.7 1.5 1.5 1.5 0.8 0 1.5 0.7 1.5 1.5 0 0.8 0.7 1.5 1.5 1.5 0.8 0 1.5-0.7 1.5-1.5 0-0.8-0.7-1.5-1.5-1.5-0.8 0-1.7-0.7-2-1.5-0.3-0.8-1-1.5-1.5-1.5-0.5 0-1 0.7-1 1.5z"/>
	</g>
</svg>