<svg version="1.2" xmlns="http://www.w3.org/2000/svg" viewBox="0 0 119 135" width="119" height="135">
	<title>Screen Shot 2023-10-17 at 4</title>
	<style>
		.s0 { opacity: 1;fill: #b4b4b6 } 
	</style>
	<path id="Path 0" fill-rule="evenodd" class="s0" d="m60 0.1q6.5-0.1 8.5 1.4c1.1 0.8 2.9 1.4 4 1.4 1.1 0 2.7 0.7 3.5 1.6 0.8 0.9 1.8 1.6 2.3 1.5 0.4 0 2.7 1.9 5.2 4.3 2.5 2.3 4.5 4.8 4.5 5.5 0 0.6 0.3 1.2 0.8 1.2 0.4 0 1.5 1.8 2.5 4 1.2 2.8 1.7 6.6 1.7 13 0 6.4-0.5 10.2-1.8 13-0.9 2.2-2 4-2.5 4-0.4 0-0.7 0.7-0.7 1.5 0 0.8-1.9 3.3-4.3 5.5-2.3 2.2-4.8 4-5.5 4-0.6 0-1.2 0.3-1.2 0.8 0 0.4-1.9 1.6-4.2 2.7-3.2 1.4-6.5 1.9-12.8 2-4.9 0-10.5-0.6-13.3-1.5-2.6-0.8-4.7-2.1-4.7-2.8 0-0.6-0.6-1.2-1.2-1.2-0.7 0-3.2-1.8-5.5-4-2.4-2.2-4.3-4.7-4.3-5.5 0-0.8-0.5-1.5-1-1.5-0.5 0-1-1-1-2.3 0-1.2-0.7-3.1-1.5-4.2-1.1-1.4-1.5-4.6-1.6-11 0-7 0.4-9.3 1.6-10.5 0.9-0.8 1.6-2.5 1.5-3.8 0-1.2 0.5-2.2 1-2.2 0.5 0 1-0.6 1-1.3 0-0.6 1.9-3.1 4.3-5.5 2.4-2.3 4.8-4.2 5.3-4.2 0.6 0 1.6-0.6 2.3-1.3 0.7-0.6 3.4-1.9 5.9-2.9 2.6-0.9 7.6-1.7 11.2-1.7zm-13 12.4c0 0.8-0.5 1.5-1.1 1.5-0.6 0-1.7 0.7-2.5 1.5-0.8 0.8-1.4 2-1.4 2.5 0 0.5-0.7 1-1.5 1-0.8 0-1.5 0.7-1.5 1.5 0 0.8-0.5 1.5-1 1.5-0.5 0-1 1-1 2.2 0.1 1.3-0.6 3-1.5 3.8-1 1-1.6 3.2-1.5 6.3 0 2.6 0.5 4.9 1 5.2 0.5 0.3 1.2 1.8 1.5 3.5 0.3 1.7 1 3 1.5 3 0.5 0 1 0.6 1 1.2 0 0.7 1.1 2.5 2.5 4 1.4 1.6 3.2 2.8 4 2.8 0.8 0 1.7 0.7 2 1.5 0.3 0.8 1.6 1.5 3 1.5 1.4 0 2.7 0.5 3 1 0.3 0.5 3 1 6 1 3 0 5.7-0.5 6-1 0.3-0.5 1.6-1 3-1 1.4 0 2.7-0.7 3-1.5 0.3-0.8 1.2-1.5 2-1.5 0.8 0 2.6-1.2 4-2.8 1.4-1.5 2.5-3.3 2.5-4 0-0.6 0.3-1.3 0.8-1.5 0.4-0.1 1.5-1.9 2.5-4 0.9-2 1.7-5.7 1.7-8.2 0-2.7-0.6-5.1-1.5-6-0.8-0.8-1.5-2.4-1.5-3.5 0-1.1-0.5-2-1-2-0.5 0-1-0.7-1-1.5 0-0.8-0.7-1.5-1.5-1.5-0.8 0-1.5-0.5-1.5-1 0-0.5-0.7-1.7-1.5-2.5-0.8-0.8-2-1.5-2.5-1.5-0.5 0-1-0.7-1-1.5 0-1-1-1.5-2.7-1.5-1.6 0-5-0.2-7.8-0.4-2.7-0.2-7.1-0.2-9.7 0-3.4 0.3-4.8 0.8-4.8 1.9zm14 68.8c25.2 0.2 26.7 0.4 30.8 2.5 2.3 1.2 4.7 2.2 5.2 2.2 0.5 0 1 0.7 1 1.5 0 0.8 0.7 1.5 1.5 1.5 0.8 0 3.9 2.5 6.8 5.6 2.8 3 5.4 6.1 5.6 6.7 0.3 0.7 1 1.8 1.8 2.5 0.7 0.6 1.3 2.1 1.3 3.2 0 1.1 0.4 2.2 1 2.5 0.6 0.3 1 2.3 1 4.5 0 2.2 0.4 4.2 1 4.5 0.6 0.3 1 2.3 1 4.5 0 2.2-0.6 5-1.2 6.3-0.7 1.2-2 3-2.8 4-1.4 1.7-4.9 1.8-55.5 1.8-50.6 0-54.1-0.1-55.5-1.8-0.8-1-2.1-2.8-2.7-4-0.7-1.3-1.3-3.9-1.3-5.8 0-1.9 0.5-3.7 1-4 0.6-0.3 1-1.8 1-3.5 0-1.7 0.7-5.2 1.5-8 0.8-2.7 2-5 2.5-5 0.6 0 1-0.6 1-1.2 0-0.7 2.5-3.9 5.6-7 3-3.2 6.1-5.8 6.9-5.8 0.8 0 1.5-0.7 1.5-1.5 0-0.8 0.5-1.5 1-1.5 0.5 0 2.9-0.9 5.3-1.9 2.3-1.1 4.9-2.2 5.7-2.5 0.8-0.3 13.4-0.4 28-0.3zm-33.3 12.2c-0.9 0.3-1.7 1.2-1.7 2 0 0.8-0.9 1.5-2 1.5-1.1 0-2 0.3-2 0.8 0 0.4-1.4 2.3-3.2 4.2-1.8 2-3.9 4.6-4.6 5.8-0.6 1.2-1.2 2.6-1.2 3.2 0 0.6-0.7 2.5-1.5 4.3-0.9 1.7-1.5 4.8-1.3 6.7l0.3 3.5c30.2 1 50.3 1.3 64 1.3 13.7 0 27-0.3 29.5-0.6l4.5-0.7c0.6-7.9 0-10.4-2.2-14.7-1.5-3.2-3.4-5.8-4.1-5.8-0.6 0-1.2-0.8-1.2-1.7-0.1-1-1.2-2.8-2.5-4-1.4-1.3-3.2-2.3-4-2.3-0.8 0-1.5-0.7-1.5-1.5 0-0.8-0.8-1.7-1.8-2-0.9-0.2-4.2-1.3-7.2-2.4-4.9-1.8-7.8-2-25-1.9-16.5 0-20.3 0.3-24.5 1.9-2.8 1.1-5.8 2.1-6.8 2.4z"/>
</svg>